<svg width="1363" height="163" viewBox="0 0 1363 163" fill="none" xmlns="http://www.w3.org/2000/svg">
<path d="M0 15C0 6.71573 6.71573 0 15 0H37V163H15C6.71573 163 0 156.284 0 148V15Z" fill="#424242"/>
<rect width="1097" height="163" transform="translate(37)" fill="#F0F0F0"/>
<path d="M101.906 53.9219L94.3945 51.2383V48.0859L104.602 52.375V54.6367L101.906 53.9219ZM94.3945 56.1719L101.918 53.4297L104.602 52.7852V55.0352L94.3945 59.3242V56.1719ZM117.012 58.293L120.41 43.9375H122.309L122.742 46.3281L119.121 61H117.082L117.012 58.293ZM115.266 43.9375L118.078 58.293L117.844 61H115.57L111.785 43.9375H115.266ZM125.73 58.2344L128.508 43.9375H131.988L128.215 61H125.941L125.73 58.2344ZM123.375 43.9375L126.797 58.3516L126.703 61H124.664L121.02 46.3164L121.488 43.9375H123.375ZM139.148 61.2344C138.164 61.2344 137.281 61.0781 136.5 60.7656C135.719 60.4453 135.055 60.0039 134.508 59.4414C133.969 58.8789 133.555 58.2266 133.266 57.4844C132.977 56.7344 132.832 55.9375 132.832 55.0938V54.625C132.832 53.6641 132.969 52.7852 133.242 51.9883C133.516 51.1914 133.906 50.5 134.414 49.9141C134.93 49.3281 135.555 48.8789 136.289 48.5664C137.023 48.2461 137.852 48.0859 138.773 48.0859C139.672 48.0859 140.469 48.2344 141.164 48.5312C141.859 48.8281 142.441 49.25 142.91 49.7969C143.387 50.3438 143.746 51 143.988 51.7656C144.23 52.5234 144.352 53.3672 144.352 54.2969V55.7031H134.273V53.4531H141.035V53.1953C141.035 52.7266 140.949 52.3086 140.777 51.9414C140.613 51.5664 140.363 51.2695 140.027 51.0508C139.691 50.832 139.262 50.7227 138.738 50.7227C138.293 50.7227 137.91 50.8203 137.59 51.0156C137.27 51.2109 137.008 51.4844 136.805 51.8359C136.609 52.1875 136.461 52.6016 136.359 53.0781C136.266 53.5469 136.219 54.0625 136.219 54.625V55.0938C136.219 55.6016 136.289 56.0703 136.43 56.5C136.578 56.9297 136.785 57.3008 137.051 57.6133C137.324 57.9258 137.652 58.168 138.035 58.3398C138.426 58.5117 138.867 58.5977 139.359 58.5977C139.969 58.5977 140.535 58.4805 141.059 58.2461C141.59 58.0039 142.047 57.6406 142.43 57.1562L144.07 58.9375C143.805 59.3203 143.441 59.6875 142.98 60.0391C142.527 60.3906 141.98 60.6797 141.34 60.9062C140.699 61.125 139.969 61.2344 139.148 61.2344ZM146.273 43H149.648V58.0938L149.309 61H146.273V43ZM157.676 54.5312V54.7773C157.676 55.7227 157.574 56.5898 157.371 57.3789C157.176 58.168 156.871 58.8516 156.457 59.4297C156.043 60 155.527 60.4453 154.91 60.7656C154.301 61.0781 153.582 61.2344 152.754 61.2344C151.98 61.2344 151.309 61.0781 150.738 60.7656C150.176 60.4531 149.703 60.0117 149.32 59.4414C148.938 58.8711 148.629 58.2031 148.395 57.4375C148.16 56.6719 147.984 55.8359 147.867 54.9297V54.3906C147.984 53.4844 148.16 52.6484 148.395 51.8828C148.629 51.1172 148.938 50.4492 149.32 49.8789C149.703 49.3086 150.176 48.8672 150.738 48.5547C151.301 48.2422 151.965 48.0859 152.73 48.0859C153.566 48.0859 154.293 48.2461 154.91 48.5664C155.535 48.8789 156.051 49.3242 156.457 49.9023C156.871 50.4727 157.176 51.1523 157.371 51.9414C157.574 52.7227 157.676 53.5859 157.676 54.5312ZM154.301 54.7773V54.5312C154.301 54.0156 154.262 53.5312 154.184 53.0781C154.113 52.6172 153.988 52.2148 153.809 51.8711C153.629 51.5195 153.383 51.2422 153.07 51.0391C152.766 50.8359 152.371 50.7344 151.887 50.7344C151.426 50.7344 151.035 50.8125 150.715 50.9688C150.395 51.125 150.129 51.3438 149.918 51.625C149.715 51.9062 149.562 52.2422 149.461 52.6328C149.359 53.0156 149.297 53.4375 149.273 53.8984V55.4336C149.297 56.0508 149.398 56.5977 149.578 57.0742C149.766 57.543 150.047 57.9141 150.422 58.1875C150.805 58.4531 151.301 58.5859 151.91 58.5859C152.387 58.5859 152.781 58.4922 153.094 58.3047C153.406 58.1172 153.648 57.8516 153.82 57.5078C154 57.1641 154.125 56.7617 154.195 56.3008C154.266 55.832 154.301 55.3242 154.301 54.7773ZM166.629 57.4961C166.629 57.2539 166.559 57.0352 166.418 56.8398C166.277 56.6445 166.016 56.4648 165.633 56.3008C165.258 56.1289 164.715 55.9727 164.004 55.832C163.363 55.6914 162.766 55.5156 162.211 55.3047C161.664 55.0859 161.188 54.8242 160.781 54.5195C160.383 54.2148 160.07 53.8555 159.844 53.4414C159.617 53.0195 159.504 52.5391 159.504 52C159.504 51.4688 159.617 50.9688 159.844 50.5C160.078 50.0312 160.41 49.6172 160.84 49.2578C161.277 48.8906 161.809 48.6055 162.434 48.4023C163.066 48.1914 163.777 48.0859 164.566 48.0859C165.668 48.0859 166.613 48.2617 167.402 48.6133C168.199 48.9648 168.809 49.4492 169.23 50.0664C169.66 50.6758 169.875 51.3711 169.875 52.1523H166.5C166.5 51.8242 166.43 51.5312 166.289 51.2734C166.156 51.0078 165.945 50.8008 165.656 50.6523C165.375 50.4961 165.008 50.418 164.555 50.418C164.18 50.418 163.855 50.4844 163.582 50.6172C163.309 50.7422 163.098 50.9141 162.949 51.1328C162.809 51.3438 162.738 51.5781 162.738 51.8359C162.738 52.0312 162.777 52.207 162.855 52.3633C162.941 52.5117 163.078 52.6484 163.266 52.7734C163.453 52.8984 163.695 53.0156 163.992 53.125C164.297 53.2266 164.672 53.3203 165.117 53.4062C166.031 53.5938 166.848 53.8398 167.566 54.1445C168.285 54.4414 168.855 54.8477 169.277 55.3633C169.699 55.8711 169.91 56.5391 169.91 57.3672C169.91 57.9297 169.785 58.4453 169.535 58.9141C169.285 59.3828 168.926 59.793 168.457 60.1445C167.988 60.4883 167.426 60.7578 166.77 60.9531C166.121 61.1406 165.391 61.2344 164.578 61.2344C163.398 61.2344 162.398 61.0234 161.578 60.6016C160.766 60.1797 160.148 59.6445 159.727 58.9961C159.312 58.3398 159.105 57.668 159.105 56.9805H162.305C162.32 57.4414 162.438 57.8125 162.656 58.0938C162.883 58.375 163.168 58.5781 163.512 58.7031C163.863 58.8281 164.242 58.8906 164.648 58.8906C165.086 58.8906 165.449 58.832 165.738 58.7148C166.027 58.5898 166.246 58.4258 166.395 58.2227C166.551 58.0117 166.629 57.7695 166.629 57.4961ZM175.664 48.3203V61H172.277V48.3203H175.664ZM172.066 45.0156C172.066 44.5234 172.238 44.1172 172.582 43.7969C172.926 43.4766 173.387 43.3164 173.965 43.3164C174.535 43.3164 174.992 43.4766 175.336 43.7969C175.688 44.1172 175.863 44.5234 175.863 45.0156C175.863 45.5078 175.688 45.9141 175.336 46.2344C174.992 46.5547 174.535 46.7148 173.965 46.7148C173.387 46.7148 172.926 46.5547 172.582 46.2344C172.238 45.9141 172.066 45.5078 172.066 45.0156ZM184.664 48.3203V50.7109H177.281V48.3203H184.664ZM179.109 45.1914H182.484V57.1797C182.484 57.5469 182.531 57.8281 182.625 58.0234C182.727 58.2188 182.875 58.3555 183.07 58.4336C183.266 58.5039 183.512 58.5391 183.809 58.5391C184.02 58.5391 184.207 58.5312 184.371 58.5156C184.543 58.4922 184.688 58.4688 184.805 58.4453L184.816 60.9297C184.527 61.0234 184.215 61.0977 183.879 61.1523C183.543 61.207 183.172 61.2344 182.766 61.2344C182.023 61.2344 181.375 61.1133 180.82 60.8711C180.273 60.6211 179.852 60.2227 179.555 59.6758C179.258 59.1289 179.109 58.4102 179.109 57.5195V45.1914ZM192.422 61.2344C191.438 61.2344 190.555 61.0781 189.773 60.7656C188.992 60.4453 188.328 60.0039 187.781 59.4414C187.242 58.8789 186.828 58.2266 186.539 57.4844C186.25 56.7344 186.105 55.9375 186.105 55.0938V54.625C186.105 53.6641 186.242 52.7852 186.516 51.9883C186.789 51.1914 187.18 50.5 187.688 49.9141C188.203 49.3281 188.828 48.8789 189.562 48.5664C190.297 48.2461 191.125 48.0859 192.047 48.0859C192.945 48.0859 193.742 48.2344 194.438 48.5312C195.133 48.8281 195.715 49.25 196.184 49.7969C196.66 50.3438 197.02 51 197.262 51.7656C197.504 52.5234 197.625 53.3672 197.625 54.2969V55.7031H187.547V53.4531H194.309V53.1953C194.309 52.7266 194.223 52.3086 194.051 51.9414C193.887 51.5664 193.637 51.2695 193.301 51.0508C192.965 50.832 192.535 50.7227 192.012 50.7227C191.566 50.7227 191.184 50.8203 190.863 51.0156C190.543 51.2109 190.281 51.4844 190.078 51.8359C189.883 52.1875 189.734 52.6016 189.633 53.0781C189.539 53.5469 189.492 54.0625 189.492 54.625V55.0938C189.492 55.6016 189.562 56.0703 189.703 56.5C189.852 56.9297 190.059 57.3008 190.324 57.6133C190.598 57.9258 190.926 58.168 191.309 58.3398C191.699 58.5117 192.141 58.5977 192.633 58.5977C193.242 58.5977 193.809 58.4805 194.332 58.2461C194.863 58.0039 195.32 57.6406 195.703 57.1562L197.344 58.9375C197.078 59.3203 196.715 59.6875 196.254 60.0391C195.801 60.3906 195.254 60.6797 194.613 60.9062C193.973 61.125 193.242 61.2344 192.422 61.2344ZM212.414 53.5117H208.031L208.008 51.0977H211.688C212.336 51.0977 212.867 51.0156 213.281 50.8516C213.695 50.6797 214.004 50.4336 214.207 50.1133C214.418 49.7852 214.523 49.3867 214.523 48.918C214.523 48.3867 214.422 47.957 214.219 47.6289C214.023 47.3008 213.715 47.0625 213.293 46.9141C212.879 46.7656 212.344 46.6914 211.688 46.6914H209.25V61H205.734V43.9375H211.688C212.68 43.9375 213.566 44.0312 214.348 44.2188C215.137 44.4062 215.805 44.6914 216.352 45.0742C216.898 45.457 217.316 45.9414 217.605 46.5273C217.895 47.1055 218.039 47.793 218.039 48.5898C218.039 49.293 217.879 49.9414 217.559 50.5352C217.246 51.1289 216.75 51.6133 216.07 51.9883C215.398 52.3633 214.52 52.5703 213.434 52.6094L212.414 53.5117ZM212.262 61H207.07L208.441 58.2578H212.262C212.879 58.2578 213.383 58.1602 213.773 57.9648C214.164 57.7617 214.453 57.4883 214.641 57.1445C214.828 56.8008 214.922 56.4062 214.922 55.9609C214.922 55.4609 214.836 55.0273 214.664 54.6602C214.5 54.293 214.234 54.0117 213.867 53.8164C213.5 53.6133 213.016 53.5117 212.414 53.5117H209.027L209.051 51.0977H213.27L214.078 52.0469C215.117 52.0312 215.953 52.2148 216.586 52.5977C217.227 52.9727 217.691 53.4609 217.98 54.0625C218.277 54.6641 218.426 55.3086 218.426 55.9961C218.426 57.0898 218.188 58.0117 217.711 58.7617C217.234 59.5039 216.535 60.0625 215.613 60.4375C214.699 60.8125 213.582 61 212.262 61ZM228.352 57.9648V48.3203H231.727V61H228.551L228.352 57.9648ZM228.727 55.3633L229.723 55.3398C229.723 56.1836 229.625 56.9688 229.43 57.6953C229.234 58.4141 228.941 59.0391 228.551 59.5703C228.16 60.0938 227.668 60.5039 227.074 60.8008C226.48 61.0898 225.781 61.2344 224.977 61.2344C224.359 61.2344 223.789 61.1484 223.266 60.9766C222.75 60.7969 222.305 60.5195 221.93 60.1445C221.562 59.7617 221.273 59.2734 221.062 58.6797C220.859 58.0781 220.758 57.3555 220.758 56.5117V48.3203H224.133V56.5352C224.133 56.9102 224.176 57.2266 224.262 57.4844C224.355 57.7422 224.484 57.9531 224.648 58.1172C224.812 58.2812 225.004 58.3984 225.223 58.4688C225.449 58.5391 225.699 58.5742 225.973 58.5742C226.668 58.5742 227.215 58.4336 227.613 58.1523C228.02 57.8711 228.305 57.4883 228.469 57.0039C228.641 56.5117 228.727 55.9648 228.727 55.3633ZM237.867 48.3203V61H234.48V48.3203H237.867ZM234.27 45.0156C234.27 44.5234 234.441 44.1172 234.785 43.7969C235.129 43.4766 235.59 43.3164 236.168 43.3164C236.738 43.3164 237.195 43.4766 237.539 43.7969C237.891 44.1172 238.066 44.5234 238.066 45.0156C238.066 45.5078 237.891 45.9141 237.539 46.2344C237.195 46.5547 236.738 46.7148 236.168 46.7148C235.59 46.7148 235.129 46.5547 234.785 46.2344C234.441 45.9141 234.27 45.5078 234.27 45.0156ZM244.219 43V61H240.832V43H244.219ZM254.496 58.2344V43H257.895V61H254.836L254.496 58.2344ZM246.48 54.8125V54.5664C246.48 53.5977 246.59 52.7188 246.809 51.9297C247.027 51.1328 247.348 50.4492 247.77 49.8789C248.191 49.3086 248.711 48.8672 249.328 48.5547C249.945 48.2422 250.648 48.0859 251.438 48.0859C252.18 48.0859 252.828 48.2422 253.383 48.5547C253.945 48.8672 254.422 49.3125 254.812 49.8906C255.211 50.4609 255.531 51.1367 255.773 51.918C256.016 52.6914 256.191 53.5391 256.301 54.4609V55C256.191 55.8828 256.016 56.7031 255.773 57.4609C255.531 58.2188 255.211 58.8828 254.812 59.4531C254.422 60.0156 253.945 60.4531 253.383 60.7656C252.82 61.0781 252.164 61.2344 251.414 61.2344C250.625 61.2344 249.922 61.0742 249.305 60.7539C248.695 60.4336 248.18 59.9844 247.758 59.4062C247.344 58.8281 247.027 58.1484 246.809 57.3672C246.59 56.5859 246.48 55.7344 246.48 54.8125ZM249.855 54.5664V54.8125C249.855 55.3359 249.895 55.8242 249.973 56.2773C250.059 56.7305 250.195 57.1328 250.383 57.4844C250.578 57.8281 250.828 58.0977 251.133 58.293C251.445 58.4805 251.824 58.5742 252.27 58.5742C252.848 58.5742 253.324 58.4453 253.699 58.1875C254.074 57.9219 254.359 57.5586 254.555 57.0977C254.758 56.6367 254.875 56.1055 254.906 55.5039V53.9688C254.883 53.4766 254.812 53.0352 254.695 52.6445C254.586 52.2461 254.422 51.9062 254.203 51.625C253.992 51.3438 253.727 51.125 253.406 50.9688C253.094 50.8125 252.723 50.7344 252.293 50.7344C251.855 50.7344 251.48 50.8359 251.168 51.0391C250.855 51.2344 250.602 51.5039 250.406 51.8477C250.219 52.1914 250.078 52.5977 249.984 53.0664C249.898 53.5273 249.855 54.0273 249.855 54.5664ZM266.367 61.2344C265.383 61.2344 264.5 61.0781 263.719 60.7656C262.938 60.4453 262.273 60.0039 261.727 59.4414C261.188 58.8789 260.773 58.2266 260.484 57.4844C260.195 56.7344 260.051 55.9375 260.051 55.0938V54.625C260.051 53.6641 260.188 52.7852 260.461 51.9883C260.734 51.1914 261.125 50.5 261.633 49.9141C262.148 49.3281 262.773 48.8789 263.508 48.5664C264.242 48.2461 265.07 48.0859 265.992 48.0859C266.891 48.0859 267.688 48.2344 268.383 48.5312C269.078 48.8281 269.66 49.25 270.129 49.7969C270.605 50.3438 270.965 51 271.207 51.7656C271.449 52.5234 271.57 53.3672 271.57 54.2969V55.7031H261.492V53.4531H268.254V53.1953C268.254 52.7266 268.168 52.3086 267.996 51.9414C267.832 51.5664 267.582 51.2695 267.246 51.0508C266.91 50.832 266.48 50.7227 265.957 50.7227C265.512 50.7227 265.129 50.8203 264.809 51.0156C264.488 51.2109 264.227 51.4844 264.023 51.8359C263.828 52.1875 263.68 52.6016 263.578 53.0781C263.484 53.5469 263.438 54.0625 263.438 54.625V55.0938C263.438 55.6016 263.508 56.0703 263.648 56.5C263.797 56.9297 264.004 57.3008 264.27 57.6133C264.543 57.9258 264.871 58.168 265.254 58.3398C265.645 58.5117 266.086 58.5977 266.578 58.5977C267.188 58.5977 267.754 58.4805 268.277 58.2461C268.809 58.0039 269.266 57.6406 269.648 57.1562L271.289 58.9375C271.023 59.3203 270.66 59.6875 270.199 60.0391C269.746 60.3906 269.199 60.6797 268.559 60.9062C267.918 61.125 267.188 61.2344 266.367 61.2344ZM276.867 51.0859V61H273.492V48.3203H276.668L276.867 51.0859ZM280.688 48.2383L280.629 51.3672C280.465 51.3438 280.266 51.3242 280.031 51.3086C279.805 51.2852 279.598 51.2734 279.41 51.2734C278.934 51.2734 278.52 51.3359 278.168 51.4609C277.824 51.5781 277.535 51.7539 277.301 51.9883C277.074 52.2227 276.902 52.5078 276.785 52.8438C276.676 53.1797 276.613 53.5625 276.598 53.9922L275.918 53.7812C275.918 52.9609 276 52.207 276.164 51.5195C276.328 50.8242 276.566 50.2188 276.879 49.7031C277.199 49.1875 277.59 48.7891 278.051 48.5078C278.512 48.2266 279.039 48.0859 279.633 48.0859C279.82 48.0859 280.012 48.1016 280.207 48.1328C280.402 48.1562 280.562 48.1914 280.688 48.2383Z" fill="#888888"/>
<path d="M118.594 98.4219V104.75H101.086V98.4219H118.594ZM103.828 84.875V119H95.6016V84.875H103.828ZM124.125 84.875V119H115.922V84.875H124.125ZM127.992 106.578V106.086C127.992 104.227 128.258 102.516 128.789 100.953C129.32 99.375 130.102 98.0078 131.133 96.8516C132.164 95.6953 133.438 94.7969 134.953 94.1562C136.469 93.5 138.219 93.1719 140.203 93.1719C142.203 93.1719 143.961 93.5 145.477 94.1562C147.008 94.7969 148.289 95.6953 149.32 96.8516C150.352 98.0078 151.133 99.375 151.664 100.953C152.195 102.516 152.461 104.227 152.461 106.086V106.578C152.461 108.422 152.195 110.133 151.664 111.711C151.133 113.273 150.352 114.641 149.32 115.812C148.289 116.969 147.016 117.867 145.5 118.508C143.984 119.148 142.234 119.469 140.25 119.469C138.266 119.469 136.508 119.148 134.977 118.508C133.445 117.867 132.164 116.969 131.133 115.812C130.102 114.641 129.32 113.273 128.789 111.711C128.258 110.133 127.992 108.422 127.992 106.578ZM135.891 106.086V106.578C135.891 107.531 135.961 108.422 136.102 109.25C136.242 110.078 136.477 110.805 136.805 111.43C137.133 112.039 137.578 112.516 138.141 112.859C138.703 113.203 139.406 113.375 140.25 113.375C141.078 113.375 141.766 113.203 142.312 112.859C142.875 112.516 143.32 112.039 143.648 111.43C143.977 110.805 144.211 110.078 144.352 109.25C144.492 108.422 144.562 107.531 144.562 106.578V106.086C144.562 105.164 144.492 104.297 144.352 103.484C144.211 102.656 143.977 101.93 143.648 101.305C143.32 100.664 142.875 100.164 142.312 99.8047C141.75 99.4453 141.047 99.2656 140.203 99.2656C139.375 99.2656 138.68 99.4453 138.117 99.8047C137.57 100.164 137.133 100.664 136.805 101.305C136.477 101.93 136.242 102.656 136.102 103.484C135.961 104.297 135.891 105.164 135.891 106.086ZM163.688 111.453L168.375 93.6406H173.32L171.562 102.57L166.922 119H162.961L163.688 111.453ZM161.836 93.6406L164.742 111.312L165.07 119H160.266L154.266 93.6406H161.836ZM177.492 110.938L180.422 93.6406H187.992L182.039 119H177.234L177.492 110.938ZM173.883 93.6406L178.617 111.406L179.344 119H175.336L170.789 102.617L169.102 93.6406H173.883ZM218.297 84.875V119H210.07V84.875H218.297ZM228.562 84.875V91.2266H200.039V84.875H228.562ZM225.773 106.578V106.086C225.773 104.227 226.039 102.516 226.57 100.953C227.102 99.375 227.883 98.0078 228.914 96.8516C229.945 95.6953 231.219 94.7969 232.734 94.1562C234.25 93.5 236 93.1719 237.984 93.1719C239.984 93.1719 241.742 93.5 243.258 94.1562C244.789 94.7969 246.07 95.6953 247.102 96.8516C248.133 98.0078 248.914 99.375 249.445 100.953C249.977 102.516 250.242 104.227 250.242 106.086V106.578C250.242 108.422 249.977 110.133 249.445 111.711C248.914 113.273 248.133 114.641 247.102 115.812C246.07 116.969 244.797 117.867 243.281 118.508C241.766 119.148 240.016 119.469 238.031 119.469C236.047 119.469 234.289 119.148 232.758 118.508C231.227 117.867 229.945 116.969 228.914 115.812C227.883 114.641 227.102 113.273 226.57 111.711C226.039 110.133 225.773 108.422 225.773 106.578ZM233.672 106.086V106.578C233.672 107.531 233.742 108.422 233.883 109.25C234.023 110.078 234.258 110.805 234.586 111.43C234.914 112.039 235.359 112.516 235.922 112.859C236.484 113.203 237.188 113.375 238.031 113.375C238.859 113.375 239.547 113.203 240.094 112.859C240.656 112.516 241.102 112.039 241.43 111.43C241.758 110.805 241.992 110.078 242.133 109.25C242.273 108.422 242.344 107.531 242.344 106.578V106.086C242.344 105.164 242.273 104.297 242.133 103.484C241.992 102.656 241.758 101.93 241.43 101.305C241.102 100.664 240.656 100.164 240.094 99.8047C239.531 99.4453 238.828 99.2656 237.984 99.2656C237.156 99.2656 236.461 99.4453 235.898 99.8047C235.352 100.164 234.914 100.664 234.586 101.305C234.258 101.93 234.023 102.656 233.883 103.484C233.742 104.297 233.672 105.164 233.672 106.086ZM266.086 84.875H279.516C282.141 84.875 284.422 85.2656 286.359 86.0469C288.297 86.8281 289.789 87.9844 290.836 89.5156C291.898 91.0469 292.43 92.9375 292.43 95.1875C292.43 97.1406 292.125 98.7734 291.516 100.086C290.906 101.398 290.055 102.484 288.961 103.344C287.883 104.188 286.625 104.883 285.188 105.43L282.492 106.953H271.219L271.172 100.602H279.516C280.562 100.602 281.43 100.414 282.117 100.039C282.805 99.6641 283.32 99.1328 283.664 98.4453C284.023 97.7422 284.203 96.9062 284.203 95.9375C284.203 94.9531 284.023 94.1094 283.664 93.4062C283.305 92.7031 282.773 92.1641 282.07 91.7891C281.383 91.4141 280.531 91.2266 279.516 91.2266H274.312V119H266.086V84.875ZM284.766 119L277.219 103.906L285.938 103.859L293.578 118.648V119H284.766ZM311.836 112.836V93.6406H319.758V119H312.352L311.836 112.836ZM312.586 107.68L314.648 107.633C314.648 109.336 314.445 110.914 314.039 112.367C313.633 113.805 313.031 115.055 312.234 116.117C311.453 117.18 310.484 118.008 309.328 118.602C308.188 119.18 306.867 119.469 305.367 119.469C304.117 119.469 302.969 119.297 301.922 118.953C300.891 118.594 300 118.039 299.25 117.289C298.5 116.523 297.914 115.547 297.492 114.359C297.086 113.156 296.883 111.719 296.883 110.047V93.6406H304.781V110.094C304.781 110.656 304.852 111.141 304.992 111.547C305.133 111.953 305.336 112.297 305.602 112.578C305.867 112.844 306.195 113.047 306.586 113.188C306.992 113.312 307.453 113.375 307.969 113.375C309.156 113.375 310.086 113.125 310.758 112.625C311.43 112.125 311.898 111.445 312.164 110.586C312.445 109.727 312.586 108.758 312.586 107.68ZM331.875 99.0547V119H323.977V93.6406H331.383L331.875 99.0547ZM330.938 105.453L329.086 105.5C329.086 103.562 329.32 101.836 329.789 100.32C330.258 98.7891 330.922 97.4922 331.781 96.4297C332.641 95.3672 333.664 94.5625 334.852 94.0156C336.055 93.4531 337.391 93.1719 338.859 93.1719C340.031 93.1719 341.102 93.3438 342.07 93.6875C343.055 94.0312 343.898 94.5859 344.602 95.3516C345.32 96.1172 345.867 97.1328 346.242 98.3984C346.633 99.6484 346.828 101.195 346.828 103.039V119H338.883V103.016C338.883 102 338.742 101.227 338.461 100.695C338.18 100.148 337.773 99.7734 337.242 99.5703C336.711 99.3672 336.062 99.2656 335.297 99.2656C334.484 99.2656 333.797 99.4219 333.234 99.7344C332.672 100.047 332.219 100.484 331.875 101.047C331.547 101.594 331.305 102.242 331.148 102.992C331.008 103.742 330.938 104.562 330.938 105.453ZM363.773 108.195H357.047C357.047 106.82 357.141 105.609 357.328 104.562C357.531 103.5 357.875 102.547 358.359 101.703C358.844 100.859 359.5 100.078 360.328 99.3594C361.062 98.75 361.695 98.1641 362.227 97.6016C362.758 97.0391 363.164 96.4688 363.445 95.8906C363.727 95.3125 363.867 94.6953 363.867 94.0391C363.867 93.2266 363.75 92.5625 363.516 92.0469C363.297 91.5312 362.961 91.1484 362.508 90.8984C362.07 90.6328 361.516 90.5 360.844 90.5C360.297 90.5 359.781 90.6328 359.297 90.8984C358.828 91.1641 358.445 91.5781 358.148 92.1406C357.852 92.6875 357.688 93.4141 357.656 94.3203H349.711C349.758 91.9922 350.273 90.1016 351.258 88.6484C352.258 87.1797 353.586 86.1094 355.242 85.4375C356.914 84.75 358.781 84.4062 360.844 84.4062C363.125 84.4062 365.086 84.7578 366.727 85.4609C368.367 86.1641 369.625 87.2109 370.5 88.6016C371.375 89.9766 371.812 91.6719 371.812 93.6875C371.812 95.0312 371.555 96.2031 371.039 97.2031C370.539 98.1875 369.859 99.1094 369 99.9688C368.156 100.812 367.211 101.719 366.164 102.688C365.258 103.484 364.641 104.297 364.312 105.125C363.984 105.938 363.805 106.961 363.773 108.195ZM356.086 115.32C356.086 114.195 356.492 113.258 357.305 112.508C358.117 111.742 359.172 111.359 360.469 111.359C361.766 111.359 362.82 111.742 363.633 112.508C364.445 113.258 364.852 114.195 364.852 115.32C364.852 116.445 364.445 117.391 363.633 118.156C362.82 118.906 361.766 119.281 360.469 119.281C359.172 119.281 358.117 118.906 357.305 118.156C356.492 117.391 356.086 116.445 356.086 115.32Z" fill="black"/>
<path d="M1134 0H1348C1356.28 0 1363 6.71573 1363 15V148C1363 156.284 1356.28 163 1348 163H1134V0Z" fill="#1E6673"/>
<path d="M1260.62 78.8847C1263.81 78.8847 1266.93 79.805 1269.59 81.5293C1272.25 83.2536 1274.32 85.7044 1275.54 88.5718C1276.76 91.4391 1277.08 94.5943 1276.46 97.6383C1275.84 100.682 1274.3 103.478 1272.04 105.673C1269.78 107.868 1266.9 109.362 1263.77 109.968C1260.63 110.573 1257.39 110.262 1254.43 109.075C1251.48 107.887 1248.96 105.876 1247.18 103.295C1245.41 100.714 1244.46 97.6806 1244.46 94.5769C1244.46 90.4151 1246.16 86.4237 1249.19 83.4808C1252.22 80.538 1256.33 78.8847 1260.62 78.8847ZM1260.62 73.6539C1256.36 73.6539 1252.19 74.881 1248.65 77.1801C1245.11 79.4791 1242.35 82.7469 1240.72 86.57C1239.09 90.3932 1238.66 94.6001 1239.49 98.6588C1240.32 102.717 1242.37 106.446 1245.39 109.372C1248.4 112.298 1252.24 114.291 1256.41 115.098C1260.59 115.905 1264.92 115.491 1268.86 113.907C1272.79 112.324 1276.16 109.642 1278.52 106.201C1280.89 102.76 1282.15 98.7151 1282.15 94.5769C1282.15 89.0278 1279.88 83.706 1275.85 79.7821C1271.81 75.8583 1266.33 73.6539 1260.62 73.6539Z" fill="white"/>
<path d="M1274.08 47.5H1220.23C1218.8 47.5 1217.43 48.0511 1216.42 49.0321C1215.41 50.013 1214.85 51.3435 1214.85 52.7307V105.038C1214.85 106.426 1215.41 107.756 1216.42 108.737C1217.43 109.718 1218.8 110.269 1220.23 110.269H1231V105.038H1220.23V68.423H1279.46V52.7307C1279.46 51.3435 1278.89 50.013 1277.88 49.0321C1276.87 48.0511 1275.5 47.5 1274.08 47.5ZM1220.23 63.1922V52.7307H1274.08V63.1922H1220.23Z" fill="white"/>
<path d="M1255.23 86.731V102.423L1268.69 94.5771L1255.23 86.731Z" fill="white"/>
</svg>
