<svg width="1363" height="163" viewBox="0 0 1363 163" fill="none" xmlns="http://www.w3.org/2000/svg">
<path d="M0 15C0 6.71573 6.71573 0 15 0H37V163H15C6.71573 163 0 156.284 0 148V15Z" fill="#424242"/>
<rect width="1097" height="163" transform="translate(37)" fill="#F0F0F0"/>
<path d="M101.906 53.9219L94.3945 51.2383V48.0859L104.602 52.375V54.6367L101.906 53.9219ZM94.3945 56.1719L101.918 53.4297L104.602 52.7852V55.0352L94.3945 59.3242V56.1719ZM117.012 58.293L120.41 43.9375H122.309L122.742 46.3281L119.121 61H117.082L117.012 58.293ZM115.266 43.9375L118.078 58.293L117.844 61H115.57L111.785 43.9375H115.266ZM125.73 58.2344L128.508 43.9375H131.988L128.215 61H125.941L125.73 58.2344ZM123.375 43.9375L126.797 58.3516L126.703 61H124.664L121.02 46.3164L121.488 43.9375H123.375ZM139.148 61.2344C138.164 61.2344 137.281 61.0781 136.5 60.7656C135.719 60.4453 135.055 60.0039 134.508 59.4414C133.969 58.8789 133.555 58.2266 133.266 57.4844C132.977 56.7344 132.832 55.9375 132.832 55.0938V54.625C132.832 53.6641 132.969 52.7852 133.242 51.9883C133.516 51.1914 133.906 50.5 134.414 49.9141C134.93 49.3281 135.555 48.8789 136.289 48.5664C137.023 48.2461 137.852 48.0859 138.773 48.0859C139.672 48.0859 140.469 48.2344 141.164 48.5312C141.859 48.8281 142.441 49.25 142.91 49.7969C143.387 50.3438 143.746 51 143.988 51.7656C144.23 52.5234 144.352 53.3672 144.352 54.2969V55.7031H134.273V53.4531H141.035V53.1953C141.035 52.7266 140.949 52.3086 140.777 51.9414C140.613 51.5664 140.363 51.2695 140.027 51.0508C139.691 50.832 139.262 50.7227 138.738 50.7227C138.293 50.7227 137.91 50.8203 137.59 51.0156C137.27 51.2109 137.008 51.4844 136.805 51.8359C136.609 52.1875 136.461 52.6016 136.359 53.0781C136.266 53.5469 136.219 54.0625 136.219 54.625V55.0938C136.219 55.6016 136.289 56.0703 136.43 56.5C136.578 56.9297 136.785 57.3008 137.051 57.6133C137.324 57.9258 137.652 58.168 138.035 58.3398C138.426 58.5117 138.867 58.5977 139.359 58.5977C139.969 58.5977 140.535 58.4805 141.059 58.2461C141.59 58.0039 142.047 57.6406 142.43 57.1562L144.07 58.9375C143.805 59.3203 143.441 59.6875 142.98 60.0391C142.527 60.3906 141.98 60.6797 141.34 60.9062C140.699 61.125 139.969 61.2344 139.148 61.2344ZM146.273 43H149.648V58.0938L149.309 61H146.273V43ZM157.676 54.5312V54.7773C157.676 55.7227 157.574 56.5898 157.371 57.3789C157.176 58.168 156.871 58.8516 156.457 59.4297C156.043 60 155.527 60.4453 154.91 60.7656C154.301 61.0781 153.582 61.2344 152.754 61.2344C151.98 61.2344 151.309 61.0781 150.738 60.7656C150.176 60.4531 149.703 60.0117 149.32 59.4414C148.938 58.8711 148.629 58.2031 148.395 57.4375C148.16 56.6719 147.984 55.8359 147.867 54.9297V54.3906C147.984 53.4844 148.16 52.6484 148.395 51.8828C148.629 51.1172 148.938 50.4492 149.32 49.8789C149.703 49.3086 150.176 48.8672 150.738 48.5547C151.301 48.2422 151.965 48.0859 152.73 48.0859C153.566 48.0859 154.293 48.2461 154.91 48.5664C155.535 48.8789 156.051 49.3242 156.457 49.9023C156.871 50.4727 157.176 51.1523 157.371 51.9414C157.574 52.7227 157.676 53.5859 157.676 54.5312ZM154.301 54.7773V54.5312C154.301 54.0156 154.262 53.5312 154.184 53.0781C154.113 52.6172 153.988 52.2148 153.809 51.8711C153.629 51.5195 153.383 51.2422 153.07 51.0391C152.766 50.8359 152.371 50.7344 151.887 50.7344C151.426 50.7344 151.035 50.8125 150.715 50.9688C150.395 51.125 150.129 51.3438 149.918 51.625C149.715 51.9062 149.562 52.2422 149.461 52.6328C149.359 53.0156 149.297 53.4375 149.273 53.8984V55.4336C149.297 56.0508 149.398 56.5977 149.578 57.0742C149.766 57.543 150.047 57.9141 150.422 58.1875C150.805 58.4531 151.301 58.5859 151.91 58.5859C152.387 58.5859 152.781 58.4922 153.094 58.3047C153.406 58.1172 153.648 57.8516 153.82 57.5078C154 57.1641 154.125 56.7617 154.195 56.3008C154.266 55.832 154.301 55.3242 154.301 54.7773ZM166.629 57.4961C166.629 57.2539 166.559 57.0352 166.418 56.8398C166.277 56.6445 166.016 56.4648 165.633 56.3008C165.258 56.1289 164.715 55.9727 164.004 55.832C163.363 55.6914 162.766 55.5156 162.211 55.3047C161.664 55.0859 161.188 54.8242 160.781 54.5195C160.383 54.2148 160.07 53.8555 159.844 53.4414C159.617 53.0195 159.504 52.5391 159.504 52C159.504 51.4688 159.617 50.9688 159.844 50.5C160.078 50.0312 160.41 49.6172 160.84 49.2578C161.277 48.8906 161.809 48.6055 162.434 48.4023C163.066 48.1914 163.777 48.0859 164.566 48.0859C165.668 48.0859 166.613 48.2617 167.402 48.6133C168.199 48.9648 168.809 49.4492 169.23 50.0664C169.66 50.6758 169.875 51.3711 169.875 52.1523H166.5C166.5 51.8242 166.43 51.5312 166.289 51.2734C166.156 51.0078 165.945 50.8008 165.656 50.6523C165.375 50.4961 165.008 50.418 164.555 50.418C164.18 50.418 163.855 50.4844 163.582 50.6172C163.309 50.7422 163.098 50.9141 162.949 51.1328C162.809 51.3438 162.738 51.5781 162.738 51.8359C162.738 52.0312 162.777 52.207 162.855 52.3633C162.941 52.5117 163.078 52.6484 163.266 52.7734C163.453 52.8984 163.695 53.0156 163.992 53.125C164.297 53.2266 164.672 53.3203 165.117 53.4062C166.031 53.5938 166.848 53.8398 167.566 54.1445C168.285 54.4414 168.855 54.8477 169.277 55.3633C169.699 55.8711 169.91 56.5391 169.91 57.3672C169.91 57.9297 169.785 58.4453 169.535 58.9141C169.285 59.3828 168.926 59.793 168.457 60.1445C167.988 60.4883 167.426 60.7578 166.77 60.9531C166.121 61.1406 165.391 61.2344 164.578 61.2344C163.398 61.2344 162.398 61.0234 161.578 60.6016C160.766 60.1797 160.148 59.6445 159.727 58.9961C159.312 58.3398 159.105 57.668 159.105 56.9805H162.305C162.32 57.4414 162.438 57.8125 162.656 58.0938C162.883 58.375 163.168 58.5781 163.512 58.7031C163.863 58.8281 164.242 58.8906 164.648 58.8906C165.086 58.8906 165.449 58.832 165.738 58.7148C166.027 58.5898 166.246 58.4258 166.395 58.2227C166.551 58.0117 166.629 57.7695 166.629 57.4961ZM175.664 48.3203V61H172.277V48.3203H175.664ZM172.066 45.0156C172.066 44.5234 172.238 44.1172 172.582 43.7969C172.926 43.4766 173.387 43.3164 173.965 43.3164C174.535 43.3164 174.992 43.4766 175.336 43.7969C175.688 44.1172 175.863 44.5234 175.863 45.0156C175.863 45.5078 175.688 45.9141 175.336 46.2344C174.992 46.5547 174.535 46.7148 173.965 46.7148C173.387 46.7148 172.926 46.5547 172.582 46.2344C172.238 45.9141 172.066 45.5078 172.066 45.0156ZM184.664 48.3203V50.7109H177.281V48.3203H184.664ZM179.109 45.1914H182.484V57.1797C182.484 57.5469 182.531 57.8281 182.625 58.0234C182.727 58.2188 182.875 58.3555 183.07 58.4336C183.266 58.5039 183.512 58.5391 183.809 58.5391C184.02 58.5391 184.207 58.5312 184.371 58.5156C184.543 58.4922 184.688 58.4688 184.805 58.4453L184.816 60.9297C184.527 61.0234 184.215 61.0977 183.879 61.1523C183.543 61.207 183.172 61.2344 182.766 61.2344C182.023 61.2344 181.375 61.1133 180.82 60.8711C180.273 60.6211 179.852 60.2227 179.555 59.6758C179.258 59.1289 179.109 58.4102 179.109 57.5195V45.1914ZM192.422 61.2344C191.438 61.2344 190.555 61.0781 189.773 60.7656C188.992 60.4453 188.328 60.0039 187.781 59.4414C187.242 58.8789 186.828 58.2266 186.539 57.4844C186.25 56.7344 186.105 55.9375 186.105 55.0938V54.625C186.105 53.6641 186.242 52.7852 186.516 51.9883C186.789 51.1914 187.18 50.5 187.688 49.9141C188.203 49.3281 188.828 48.8789 189.562 48.5664C190.297 48.2461 191.125 48.0859 192.047 48.0859C192.945 48.0859 193.742 48.2344 194.438 48.5312C195.133 48.8281 195.715 49.25 196.184 49.7969C196.66 50.3438 197.02 51 197.262 51.7656C197.504 52.5234 197.625 53.3672 197.625 54.2969V55.7031H187.547V53.4531H194.309V53.1953C194.309 52.7266 194.223 52.3086 194.051 51.9414C193.887 51.5664 193.637 51.2695 193.301 51.0508C192.965 50.832 192.535 50.7227 192.012 50.7227C191.566 50.7227 191.184 50.8203 190.863 51.0156C190.543 51.2109 190.281 51.4844 190.078 51.8359C189.883 52.1875 189.734 52.6016 189.633 53.0781C189.539 53.5469 189.492 54.0625 189.492 54.625V55.0938C189.492 55.6016 189.562 56.0703 189.703 56.5C189.852 56.9297 190.059 57.3008 190.324 57.6133C190.598 57.9258 190.926 58.168 191.309 58.3398C191.699 58.5117 192.141 58.5977 192.633 58.5977C193.242 58.5977 193.809 58.4805 194.332 58.2461C194.863 58.0039 195.32 57.6406 195.703 57.1562L197.344 58.9375C197.078 59.3203 196.715 59.6875 196.254 60.0391C195.801 60.3906 195.254 60.6797 194.613 60.9062C193.973 61.125 193.242 61.2344 192.422 61.2344ZM212.414 53.5117H208.031L208.008 51.0977H211.688C212.336 51.0977 212.867 51.0156 213.281 50.8516C213.695 50.6797 214.004 50.4336 214.207 50.1133C214.418 49.7852 214.523 49.3867 214.523 48.918C214.523 48.3867 214.422 47.957 214.219 47.6289C214.023 47.3008 213.715 47.0625 213.293 46.9141C212.879 46.7656 212.344 46.6914 211.688 46.6914H209.25V61H205.734V43.9375H211.688C212.68 43.9375 213.566 44.0312 214.348 44.2188C215.137 44.4062 215.805 44.6914 216.352 45.0742C216.898 45.457 217.316 45.9414 217.605 46.5273C217.895 47.1055 218.039 47.793 218.039 48.5898C218.039 49.293 217.879 49.9414 217.559 50.5352C217.246 51.1289 216.75 51.6133 216.07 51.9883C215.398 52.3633 214.52 52.5703 213.434 52.6094L212.414 53.5117ZM212.262 61H207.07L208.441 58.2578H212.262C212.879 58.2578 213.383 58.1602 213.773 57.9648C214.164 57.7617 214.453 57.4883 214.641 57.1445C214.828 56.8008 214.922 56.4062 214.922 55.9609C214.922 55.4609 214.836 55.0273 214.664 54.6602C214.5 54.293 214.234 54.0117 213.867 53.8164C213.5 53.6133 213.016 53.5117 212.414 53.5117H209.027L209.051 51.0977H213.27L214.078 52.0469C215.117 52.0312 215.953 52.2148 216.586 52.5977C217.227 52.9727 217.691 53.4609 217.98 54.0625C218.277 54.6641 218.426 55.3086 218.426 55.9961C218.426 57.0898 218.188 58.0117 217.711 58.7617C217.234 59.5039 216.535 60.0625 215.613 60.4375C214.699 60.8125 213.582 61 212.262 61ZM228.352 57.9648V48.3203H231.727V61H228.551L228.352 57.9648ZM228.727 55.3633L229.723 55.3398C229.723 56.1836 229.625 56.9688 229.43 57.6953C229.234 58.4141 228.941 59.0391 228.551 59.5703C228.16 60.0938 227.668 60.5039 227.074 60.8008C226.48 61.0898 225.781 61.2344 224.977 61.2344C224.359 61.2344 223.789 61.1484 223.266 60.9766C222.75 60.7969 222.305 60.5195 221.93 60.1445C221.562 59.7617 221.273 59.2734 221.062 58.6797C220.859 58.0781 220.758 57.3555 220.758 56.5117V48.3203H224.133V56.5352C224.133 56.9102 224.176 57.2266 224.262 57.4844C224.355 57.7422 224.484 57.9531 224.648 58.1172C224.812 58.2812 225.004 58.3984 225.223 58.4688C225.449 58.5391 225.699 58.5742 225.973 58.5742C226.668 58.5742 227.215 58.4336 227.613 58.1523C228.02 57.8711 228.305 57.4883 228.469 57.0039C228.641 56.5117 228.727 55.9648 228.727 55.3633ZM237.867 48.3203V61H234.48V48.3203H237.867ZM234.27 45.0156C234.27 44.5234 234.441 44.1172 234.785 43.7969C235.129 43.4766 235.59 43.3164 236.168 43.3164C236.738 43.3164 237.195 43.4766 237.539 43.7969C237.891 44.1172 238.066 44.5234 238.066 45.0156C238.066 45.5078 237.891 45.9141 237.539 46.2344C237.195 46.5547 236.738 46.7148 236.168 46.7148C235.59 46.7148 235.129 46.5547 234.785 46.2344C234.441 45.9141 234.27 45.5078 234.27 45.0156ZM244.219 43V61H240.832V43H244.219ZM254.496 58.2344V43H257.895V61H254.836L254.496 58.2344ZM246.48 54.8125V54.5664C246.48 53.5977 246.59 52.7188 246.809 51.9297C247.027 51.1328 247.348 50.4492 247.77 49.8789C248.191 49.3086 248.711 48.8672 249.328 48.5547C249.945 48.2422 250.648 48.0859 251.438 48.0859C252.18 48.0859 252.828 48.2422 253.383 48.5547C253.945 48.8672 254.422 49.3125 254.812 49.8906C255.211 50.4609 255.531 51.1367 255.773 51.918C256.016 52.6914 256.191 53.5391 256.301 54.4609V55C256.191 55.8828 256.016 56.7031 255.773 57.4609C255.531 58.2188 255.211 58.8828 254.812 59.4531C254.422 60.0156 253.945 60.4531 253.383 60.7656C252.82 61.0781 252.164 61.2344 251.414 61.2344C250.625 61.2344 249.922 61.0742 249.305 60.7539C248.695 60.4336 248.18 59.9844 247.758 59.4062C247.344 58.8281 247.027 58.1484 246.809 57.3672C246.59 56.5859 246.48 55.7344 246.48 54.8125ZM249.855 54.5664V54.8125C249.855 55.3359 249.895 55.8242 249.973 56.2773C250.059 56.7305 250.195 57.1328 250.383 57.4844C250.578 57.8281 250.828 58.0977 251.133 58.293C251.445 58.4805 251.824 58.5742 252.27 58.5742C252.848 58.5742 253.324 58.4453 253.699 58.1875C254.074 57.9219 254.359 57.5586 254.555 57.0977C254.758 56.6367 254.875 56.1055 254.906 55.5039V53.9688C254.883 53.4766 254.812 53.0352 254.695 52.6445C254.586 52.2461 254.422 51.9062 254.203 51.625C253.992 51.3438 253.727 51.125 253.406 50.9688C253.094 50.8125 252.723 50.7344 252.293 50.7344C251.855 50.7344 251.48 50.8359 251.168 51.0391C250.855 51.2344 250.602 51.5039 250.406 51.8477C250.219 52.1914 250.078 52.5977 249.984 53.0664C249.898 53.5273 249.855 54.0273 249.855 54.5664ZM266.367 61.2344C265.383 61.2344 264.5 61.0781 263.719 60.7656C262.938 60.4453 262.273 60.0039 261.727 59.4414C261.188 58.8789 260.773 58.2266 260.484 57.4844C260.195 56.7344 260.051 55.9375 260.051 55.0938V54.625C260.051 53.6641 260.188 52.7852 260.461 51.9883C260.734 51.1914 261.125 50.5 261.633 49.9141C262.148 49.3281 262.773 48.8789 263.508 48.5664C264.242 48.2461 265.07 48.0859 265.992 48.0859C266.891 48.0859 267.688 48.2344 268.383 48.5312C269.078 48.8281 269.66 49.25 270.129 49.7969C270.605 50.3438 270.965 51 271.207 51.7656C271.449 52.5234 271.57 53.3672 271.57 54.2969V55.7031H261.492V53.4531H268.254V53.1953C268.254 52.7266 268.168 52.3086 267.996 51.9414C267.832 51.5664 267.582 51.2695 267.246 51.0508C266.91 50.832 266.48 50.7227 265.957 50.7227C265.512 50.7227 265.129 50.8203 264.809 51.0156C264.488 51.2109 264.227 51.4844 264.023 51.8359C263.828 52.1875 263.68 52.6016 263.578 53.0781C263.484 53.5469 263.438 54.0625 263.438 54.625V55.0938C263.438 55.6016 263.508 56.0703 263.648 56.5C263.797 56.9297 264.004 57.3008 264.27 57.6133C264.543 57.9258 264.871 58.168 265.254 58.3398C265.645 58.5117 266.086 58.5977 266.578 58.5977C267.188 58.5977 267.754 58.4805 268.277 58.2461C268.809 58.0039 269.266 57.6406 269.648 57.1562L271.289 58.9375C271.023 59.3203 270.66 59.6875 270.199 60.0391C269.746 60.3906 269.199 60.6797 268.559 60.9062C267.918 61.125 267.188 61.2344 266.367 61.2344ZM276.867 51.0859V61H273.492V48.3203H276.668L276.867 51.0859ZM280.688 48.2383L280.629 51.3672C280.465 51.3438 280.266 51.3242 280.031 51.3086C279.805 51.2852 279.598 51.2734 279.41 51.2734C278.934 51.2734 278.52 51.3359 278.168 51.4609C277.824 51.5781 277.535 51.7539 277.301 51.9883C277.074 52.2227 276.902 52.5078 276.785 52.8438C276.676 53.1797 276.613 53.5625 276.598 53.9922L275.918 53.7812C275.918 52.9609 276 52.207 276.164 51.5195C276.328 50.8242 276.566 50.2188 276.879 49.7031C277.199 49.1875 277.59 48.7891 278.051 48.5078C278.512 48.2266 279.039 48.0859 279.633 48.0859C279.82 48.0859 280.012 48.1016 280.207 48.1328C280.402 48.1562 280.562 48.1914 280.688 48.2383Z" fill="#888888"/>
<path d="M112.125 84.875V119H103.898V84.875H112.125ZM122.391 84.875V91.2266H93.8672V84.875H122.391ZM135.68 119.469C133.617 119.469 131.773 119.148 130.148 118.508C128.523 117.852 127.148 116.953 126.023 115.812C124.914 114.672 124.062 113.359 123.469 111.875C122.891 110.391 122.602 108.82 122.602 107.164V106.273C122.602 104.414 122.859 102.695 123.375 101.117C123.891 99.5234 124.656 98.1328 125.672 96.9453C126.688 95.7578 127.961 94.8359 129.492 94.1797C131.023 93.5078 132.805 93.1719 134.836 93.1719C136.633 93.1719 138.242 93.4609 139.664 94.0391C141.086 94.6172 142.289 95.4453 143.273 96.5234C144.273 97.6016 145.031 98.9062 145.547 100.438C146.078 101.969 146.344 103.688 146.344 105.594V108.805H125.625V103.859H138.633V103.25C138.648 102.406 138.5 101.688 138.188 101.094C137.891 100.5 137.453 100.047 136.875 99.7344C136.297 99.4219 135.594 99.2656 134.766 99.2656C133.906 99.2656 133.195 99.4531 132.633 99.8281C132.086 100.203 131.656 100.719 131.344 101.375C131.047 102.016 130.836 102.758 130.711 103.602C130.586 104.445 130.523 105.336 130.523 106.273V107.164C130.523 108.102 130.648 108.953 130.898 109.719C131.164 110.484 131.539 111.141 132.023 111.688C132.523 112.219 133.117 112.633 133.805 112.93C134.508 113.227 135.305 113.375 136.195 113.375C137.273 113.375 138.336 113.172 139.383 112.766C140.43 112.359 141.328 111.688 142.078 110.75L145.664 115.016C145.148 115.75 144.414 116.461 143.461 117.148C142.523 117.836 141.398 118.398 140.086 118.836C138.773 119.258 137.305 119.469 135.68 119.469ZM160.266 113.375C161 113.375 161.625 113.242 162.141 112.977C162.672 112.695 163.07 112.305 163.336 111.805C163.617 111.289 163.75 110.672 163.734 109.953H171.164C171.18 111.859 170.711 113.531 169.758 114.969C168.82 116.391 167.539 117.5 165.914 118.297C164.305 119.078 162.484 119.469 160.453 119.469C158.469 119.469 156.734 119.148 155.25 118.508C153.766 117.852 152.523 116.945 151.523 115.789C150.539 114.617 149.797 113.25 149.297 111.688C148.812 110.125 148.57 108.43 148.57 106.602V106.062C148.57 104.234 148.812 102.539 149.297 100.977C149.797 99.3984 150.539 98.0312 151.523 96.875C152.523 95.7031 153.758 94.7969 155.227 94.1562C156.711 93.5 158.438 93.1719 160.406 93.1719C162.516 93.1719 164.375 93.5703 165.984 94.3672C167.609 95.1641 168.883 96.3203 169.805 97.8359C170.727 99.3516 171.18 101.188 171.164 103.344H163.734C163.75 102.578 163.633 101.891 163.383 101.281C163.133 100.672 162.742 100.188 162.211 99.8281C161.695 99.4531 161.031 99.2656 160.219 99.2656C159.406 99.2656 158.75 99.4453 158.25 99.8047C157.75 100.164 157.367 100.664 157.102 101.305C156.852 101.93 156.68 102.648 156.586 103.461C156.508 104.273 156.469 105.141 156.469 106.062V106.602C156.469 107.539 156.508 108.422 156.586 109.25C156.68 110.062 156.859 110.781 157.125 111.406C157.391 112.016 157.773 112.5 158.273 112.859C158.773 113.203 159.438 113.375 160.266 113.375ZM182.273 83V119H174.375V83H182.273ZM181.336 105.453L179.484 105.5C179.484 103.719 179.703 102.078 180.141 100.578C180.578 99.0781 181.203 97.7734 182.016 96.6641C182.828 95.5547 183.805 94.6953 184.945 94.0859C186.086 93.4766 187.352 93.1719 188.742 93.1719C189.992 93.1719 191.133 93.3516 192.164 93.7109C193.211 94.0703 194.109 94.6484 194.859 95.4453C195.625 96.2422 196.211 97.2812 196.617 98.5625C197.039 99.8438 197.25 101.406 197.25 103.25V119H189.305V103.203C189.305 102.172 189.156 101.375 188.859 100.812C188.578 100.234 188.172 99.8359 187.641 99.6172C187.109 99.3828 186.461 99.2656 185.695 99.2656C184.773 99.2656 184.023 99.4219 183.445 99.7344C182.867 100.047 182.422 100.484 182.109 101.047C181.812 101.594 181.609 102.242 181.5 102.992C181.391 103.742 181.336 104.562 181.336 105.453ZM231.539 109.93C231.539 109.398 231.461 108.922 231.305 108.5C231.148 108.062 230.859 107.656 230.438 107.281C230.016 106.906 229.406 106.531 228.609 106.156C227.828 105.766 226.797 105.359 225.516 104.938C224.016 104.438 222.57 103.875 221.18 103.25C219.789 102.609 218.547 101.867 217.453 101.023C216.359 100.164 215.492 99.1641 214.852 98.0234C214.211 96.8672 213.891 95.5234 213.891 93.9922C213.891 92.5234 214.219 91.2031 214.875 90.0312C215.531 88.8438 216.445 87.8359 217.617 87.0078C218.805 86.1641 220.195 85.5234 221.789 85.0859C223.383 84.6328 225.125 84.4062 227.016 84.4062C229.516 84.4062 231.719 84.8438 233.625 85.7188C235.547 86.5781 237.047 87.8047 238.125 89.3984C239.219 90.9766 239.766 92.8438 239.766 95H231.586C231.586 94.1406 231.406 93.3828 231.047 92.7266C230.703 92.0703 230.18 91.5547 229.477 91.1797C228.773 90.8047 227.891 90.6172 226.828 90.6172C225.797 90.6172 224.93 90.7734 224.227 91.0859C223.523 91.3984 222.992 91.8203 222.633 92.3516C222.273 92.8672 222.094 93.4375 222.094 94.0625C222.094 94.5781 222.234 95.0469 222.516 95.4688C222.812 95.875 223.227 96.2578 223.758 96.6172C224.305 96.9766 224.961 97.3203 225.727 97.6484C226.508 97.9766 227.383 98.2969 228.352 98.6094C230.164 99.1875 231.773 99.8359 233.18 100.555C234.602 101.258 235.797 102.062 236.766 102.969C237.75 103.859 238.492 104.875 238.992 106.016C239.508 107.156 239.766 108.445 239.766 109.883C239.766 111.414 239.469 112.773 238.875 113.961C238.281 115.148 237.43 116.156 236.32 116.984C235.211 117.797 233.883 118.414 232.336 118.836C230.789 119.258 229.062 119.469 227.156 119.469C225.406 119.469 223.68 119.25 221.977 118.812C220.289 118.359 218.758 117.672 217.383 116.75C216.008 115.812 214.906 114.617 214.078 113.164C213.266 111.695 212.859 109.953 212.859 107.938H221.109C221.109 108.938 221.242 109.781 221.508 110.469C221.773 111.156 222.164 111.711 222.68 112.133C223.195 112.539 223.828 112.836 224.578 113.023C225.328 113.195 226.188 113.281 227.156 113.281C228.203 113.281 229.047 113.133 229.688 112.836C230.328 112.523 230.797 112.117 231.094 111.617C231.391 111.102 231.539 110.539 231.539 109.93ZM256.992 93.6406V99.125H241.711V93.6406H256.992ZM244.922 87.3359H252.82V110.727C252.82 111.398 252.898 111.922 253.055 112.297C253.211 112.656 253.477 112.914 253.852 113.07C254.242 113.211 254.758 113.281 255.398 113.281C255.852 113.281 256.227 113.273 256.523 113.258C256.82 113.227 257.102 113.188 257.367 113.141V118.789C256.695 119.008 255.992 119.172 255.258 119.281C254.523 119.406 253.742 119.469 252.914 119.469C251.227 119.469 249.781 119.203 248.578 118.672C247.391 118.141 246.484 117.305 245.859 116.164C245.234 115.023 244.922 113.539 244.922 111.711V87.3359ZM273.305 112.625V102.172C273.305 101.453 273.203 100.836 273 100.32C272.797 99.8047 272.477 99.4062 272.039 99.125C271.602 98.8281 271.016 98.6797 270.281 98.6797C269.688 98.6797 269.18 98.7812 268.758 98.9844C268.336 99.1875 268.016 99.4922 267.797 99.8984C267.578 100.305 267.469 100.82 267.469 101.445H259.57C259.57 100.273 259.828 99.1875 260.344 98.1875C260.875 97.1719 261.625 96.2891 262.594 95.5391C263.578 94.7891 264.75 94.2109 266.109 93.8047C267.484 93.3828 269.016 93.1719 270.703 93.1719C272.719 93.1719 274.516 93.5078 276.094 94.1797C277.688 94.8516 278.945 95.8594 279.867 97.2031C280.789 98.5312 281.25 100.203 281.25 102.219V112.602C281.25 114.258 281.344 115.516 281.531 116.375C281.719 117.219 281.984 117.961 282.328 118.602V119H274.406C274.031 118.219 273.75 117.266 273.562 116.141C273.391 115 273.305 113.828 273.305 112.625ZM274.266 103.508L274.312 107.727H270.82C270.086 107.727 269.461 107.828 268.945 108.031C268.445 108.234 268.039 108.516 267.727 108.875C267.43 109.219 267.211 109.609 267.07 110.047C266.945 110.484 266.883 110.945 266.883 111.43C266.883 111.898 266.992 112.32 267.211 112.695C267.445 113.055 267.758 113.336 268.148 113.539C268.539 113.742 268.977 113.844 269.461 113.844C270.336 113.844 271.078 113.68 271.688 113.352C272.312 113.008 272.789 112.594 273.117 112.109C273.445 111.625 273.609 111.172 273.609 110.75L275.344 113.984C275.031 114.609 274.672 115.242 274.266 115.883C273.875 116.523 273.383 117.117 272.789 117.664C272.211 118.195 271.5 118.633 270.656 118.977C269.812 119.305 268.789 119.469 267.586 119.469C266.023 119.469 264.586 119.148 263.273 118.508C261.977 117.867 260.938 116.977 260.156 115.836C259.375 114.68 258.984 113.352 258.984 111.852C258.984 110.539 259.219 109.367 259.688 108.336C260.172 107.305 260.898 106.43 261.867 105.711C262.836 104.992 264.07 104.445 265.57 104.07C267.07 103.695 268.836 103.508 270.867 103.508H274.266ZM296.344 113.375C297.078 113.375 297.703 113.242 298.219 112.977C298.75 112.695 299.148 112.305 299.414 111.805C299.695 111.289 299.828 110.672 299.812 109.953H307.242C307.258 111.859 306.789 113.531 305.836 114.969C304.898 116.391 303.617 117.5 301.992 118.297C300.383 119.078 298.562 119.469 296.531 119.469C294.547 119.469 292.812 119.148 291.328 118.508C289.844 117.852 288.602 116.945 287.602 115.789C286.617 114.617 285.875 113.25 285.375 111.688C284.891 110.125 284.648 108.43 284.648 106.602V106.062C284.648 104.234 284.891 102.539 285.375 100.977C285.875 99.3984 286.617 98.0312 287.602 96.875C288.602 95.7031 289.836 94.7969 291.305 94.1562C292.789 93.5 294.516 93.1719 296.484 93.1719C298.594 93.1719 300.453 93.5703 302.062 94.3672C303.688 95.1641 304.961 96.3203 305.883 97.8359C306.805 99.3516 307.258 101.188 307.242 103.344H299.812C299.828 102.578 299.711 101.891 299.461 101.281C299.211 100.672 298.82 100.188 298.289 99.8281C297.773 99.4531 297.109 99.2656 296.297 99.2656C295.484 99.2656 294.828 99.4453 294.328 99.8047C293.828 100.164 293.445 100.664 293.18 101.305C292.93 101.93 292.758 102.648 292.664 103.461C292.586 104.273 292.547 105.141 292.547 106.062V106.602C292.547 107.539 292.586 108.422 292.664 109.25C292.758 110.062 292.938 110.781 293.203 111.406C293.469 112.016 293.852 112.5 294.352 112.859C294.852 113.203 295.516 113.375 296.344 113.375ZM318.586 82.9766V119H310.688V82.9766H318.586ZM334.805 93.6406L323.789 106.555L318.023 112.32L314.578 107.305L319.383 101.047L325.336 93.6406H334.805ZM326.344 119L319.57 107.445L325.406 103.297L335.391 119H326.344ZM350.156 111.875C350.156 111.438 350.008 111.062 349.711 110.75C349.43 110.422 348.93 110.125 348.211 109.859C347.492 109.578 346.484 109.297 345.188 109.016C343.953 108.75 342.789 108.398 341.695 107.961C340.617 107.523 339.672 106.992 338.859 106.367C338.047 105.742 337.406 105 336.938 104.141C336.484 103.281 336.258 102.297 336.258 101.188C336.258 100.109 336.484 99.0938 336.938 98.1406C337.406 97.1719 338.086 96.3203 338.977 95.5859C339.883 94.8359 340.984 94.25 342.281 93.8281C343.578 93.3906 345.055 93.1719 346.711 93.1719C348.992 93.1719 350.961 93.5234 352.617 94.2266C354.273 94.9141 355.547 95.8828 356.438 97.1328C357.344 98.3672 357.797 99.7969 357.797 101.422H349.898C349.898 100.781 349.789 100.234 349.57 99.7812C349.367 99.3281 349.031 98.9844 348.562 98.75C348.094 98.5 347.469 98.375 346.688 98.375C346.141 98.375 345.641 98.4766 345.188 98.6797C344.75 98.8828 344.398 99.1641 344.133 99.5234C343.867 99.8828 343.734 100.305 343.734 100.789C343.734 101.133 343.812 101.445 343.969 101.727C344.141 101.992 344.398 102.242 344.742 102.477C345.086 102.695 345.523 102.898 346.055 103.086C346.586 103.258 347.227 103.414 347.977 103.555C349.68 103.867 351.273 104.312 352.758 104.891C354.242 105.469 355.445 106.289 356.367 107.352C357.305 108.414 357.773 109.844 357.773 111.641C357.773 112.766 357.516 113.805 357 114.758C356.484 115.695 355.742 116.523 354.773 117.242C353.805 117.945 352.641 118.492 351.281 118.883C349.922 119.273 348.391 119.469 346.688 119.469C344.266 119.469 342.219 119.039 340.547 118.18C338.875 117.305 337.609 116.211 336.75 114.898C335.906 113.57 335.484 112.227 335.484 110.867H342.844C342.875 111.648 343.062 112.289 343.406 112.789C343.766 113.289 344.242 113.656 344.836 113.891C345.43 114.125 346.117 114.242 346.898 114.242C347.617 114.242 348.211 114.141 348.68 113.938C349.164 113.734 349.531 113.461 349.781 113.117C350.031 112.758 350.156 112.344 350.156 111.875Z" fill="black"/>
<path d="M1134 0H1348C1356.28 0 1363 6.71573 1363 15V148C1363 156.284 1356.28 163 1348 163H1134V0Z" fill="#1E6673"/>
<path fill-rule="evenodd" clip-rule="evenodd" d="M1219.98 53C1219.85 53 1219.73 53.0527 1219.64 53.1464C1219.55 53.2402 1219.5 53.3674 1219.5 53.5V109.5C1219.5 109.633 1219.55 109.76 1219.64 109.854C1219.73 109.947 1219.85 110 1219.98 110H1277.02C1277.15 110 1277.27 109.947 1277.36 109.854C1277.45 109.76 1277.5 109.633 1277.5 109.5V64C1277.5 63.8674 1277.45 63.7402 1277.36 63.6464C1277.27 63.5527 1277.15 63.5 1277.02 63.5H1248.5C1247.65 63.5 1246.84 63.1045 1246.29 62.4206L1238.77 53H1219.98ZM1215.58 48.9038C1216.74 47.6848 1218.33 47 1219.98 47H1240.11C1240.97 47 1241.77 47.3955 1242.32 48.0794L1249.85 57.5H1277.02C1278.67 57.5 1280.26 58.1848 1281.42 59.4038C1282.59 60.6228 1283.25 62.2761 1283.25 64V109.5C1283.25 111.224 1282.59 112.877 1281.42 114.096C1280.26 115.315 1278.67 116 1277.02 116H1219.98C1218.33 116 1216.74 115.315 1215.58 114.096C1214.41 112.877 1213.75 111.224 1213.75 109.5V53.5C1213.75 51.7761 1214.41 50.1228 1215.58 48.9038Z" fill="white"/>
<path fill-rule="evenodd" clip-rule="evenodd" d="M1244.16 75.5251C1245.47 76.892 1245.47 79.108 1244.16 80.4749L1238.15 86.75L1244.16 93.0251C1245.47 94.392 1245.47 96.608 1244.16 97.9749C1242.85 99.3417 1240.73 99.3417 1239.42 97.9749L1231.03 89.2249C1229.72 87.858 1229.72 85.642 1231.03 84.2751L1239.42 75.5251C1240.73 74.1583 1242.85 74.1583 1244.16 75.5251Z" fill="white"/>
<path fill-rule="evenodd" clip-rule="evenodd" d="M1252.12 97.9749C1250.81 96.608 1250.81 94.392 1252.12 93.0251L1258.13 86.75L1252.12 80.4749C1250.81 79.108 1250.81 76.892 1252.12 75.5251C1253.43 74.1583 1255.55 74.1583 1256.86 75.5251L1265.25 84.2751C1266.56 85.642 1266.56 87.858 1265.25 89.2249L1256.86 97.9749C1255.55 99.3417 1253.43 99.3417 1252.12 97.9749Z" fill="white"/>
</svg>
