<svg width="1363" height="163" viewBox="0 0 1363 163" fill="none" xmlns="http://www.w3.org/2000/svg">
<path d="M0 15C0 6.71573 6.71573 0 15 0H37V163H15C6.71573 163 0 156.284 0 148V15Z" fill="#424242"/>
<rect width="1097" height="163" transform="translate(37)" fill="#F0F0F0"/>
<path d="M101.906 53.9219L94.3945 51.2383V48.0859L104.602 52.375V54.6367L101.906 53.9219ZM94.3945 56.1719L101.918 53.4297L104.602 52.7852V55.0352L94.3945 59.3242V56.1719ZM117.012 58.293L120.41 43.9375H122.309L122.742 46.3281L119.121 61H117.082L117.012 58.293ZM115.266 43.9375L118.078 58.293L117.844 61H115.57L111.785 43.9375H115.266ZM125.73 58.2344L128.508 43.9375H131.988L128.215 61H125.941L125.73 58.2344ZM123.375 43.9375L126.797 58.3516L126.703 61H124.664L121.02 46.3164L121.488 43.9375H123.375ZM139.148 61.2344C138.164 61.2344 137.281 61.0781 136.5 60.7656C135.719 60.4453 135.055 60.0039 134.508 59.4414C133.969 58.8789 133.555 58.2266 133.266 57.4844C132.977 56.7344 132.832 55.9375 132.832 55.0938V54.625C132.832 53.6641 132.969 52.7852 133.242 51.9883C133.516 51.1914 133.906 50.5 134.414 49.9141C134.93 49.3281 135.555 48.8789 136.289 48.5664C137.023 48.2461 137.852 48.0859 138.773 48.0859C139.672 48.0859 140.469 48.2344 141.164 48.5312C141.859 48.8281 142.441 49.25 142.91 49.7969C143.387 50.3438 143.746 51 143.988 51.7656C144.23 52.5234 144.352 53.3672 144.352 54.2969V55.7031H134.273V53.4531H141.035V53.1953C141.035 52.7266 140.949 52.3086 140.777 51.9414C140.613 51.5664 140.363 51.2695 140.027 51.0508C139.691 50.832 139.262 50.7227 138.738 50.7227C138.293 50.7227 137.91 50.8203 137.59 51.0156C137.27 51.2109 137.008 51.4844 136.805 51.8359C136.609 52.1875 136.461 52.6016 136.359 53.0781C136.266 53.5469 136.219 54.0625 136.219 54.625V55.0938C136.219 55.6016 136.289 56.0703 136.43 56.5C136.578 56.9297 136.785 57.3008 137.051 57.6133C137.324 57.9258 137.652 58.168 138.035 58.3398C138.426 58.5117 138.867 58.5977 139.359 58.5977C139.969 58.5977 140.535 58.4805 141.059 58.2461C141.59 58.0039 142.047 57.6406 142.43 57.1562L144.07 58.9375C143.805 59.3203 143.441 59.6875 142.98 60.0391C142.527 60.3906 141.98 60.6797 141.34 60.9062C140.699 61.125 139.969 61.2344 139.148 61.2344ZM146.273 43H149.648V58.0938L149.309 61H146.273V43ZM157.676 54.5312V54.7773C157.676 55.7227 157.574 56.5898 157.371 57.3789C157.176 58.168 156.871 58.8516 156.457 59.4297C156.043 60 155.527 60.4453 154.91 60.7656C154.301 61.0781 153.582 61.2344 152.754 61.2344C151.98 61.2344 151.309 61.0781 150.738 60.7656C150.176 60.4531 149.703 60.0117 149.32 59.4414C148.938 58.8711 148.629 58.2031 148.395 57.4375C148.16 56.6719 147.984 55.8359 147.867 54.9297V54.3906C147.984 53.4844 148.16 52.6484 148.395 51.8828C148.629 51.1172 148.938 50.4492 149.32 49.8789C149.703 49.3086 150.176 48.8672 150.738 48.5547C151.301 48.2422 151.965 48.0859 152.73 48.0859C153.566 48.0859 154.293 48.2461 154.91 48.5664C155.535 48.8789 156.051 49.3242 156.457 49.9023C156.871 50.4727 157.176 51.1523 157.371 51.9414C157.574 52.7227 157.676 53.5859 157.676 54.5312ZM154.301 54.7773V54.5312C154.301 54.0156 154.262 53.5312 154.184 53.0781C154.113 52.6172 153.988 52.2148 153.809 51.8711C153.629 51.5195 153.383 51.2422 153.07 51.0391C152.766 50.8359 152.371 50.7344 151.887 50.7344C151.426 50.7344 151.035 50.8125 150.715 50.9688C150.395 51.125 150.129 51.3438 149.918 51.625C149.715 51.9062 149.562 52.2422 149.461 52.6328C149.359 53.0156 149.297 53.4375 149.273 53.8984V55.4336C149.297 56.0508 149.398 56.5977 149.578 57.0742C149.766 57.543 150.047 57.9141 150.422 58.1875C150.805 58.4531 151.301 58.5859 151.91 58.5859C152.387 58.5859 152.781 58.4922 153.094 58.3047C153.406 58.1172 153.648 57.8516 153.82 57.5078C154 57.1641 154.125 56.7617 154.195 56.3008C154.266 55.832 154.301 55.3242 154.301 54.7773ZM166.629 57.4961C166.629 57.2539 166.559 57.0352 166.418 56.8398C166.277 56.6445 166.016 56.4648 165.633 56.3008C165.258 56.1289 164.715 55.9727 164.004 55.832C163.363 55.6914 162.766 55.5156 162.211 55.3047C161.664 55.0859 161.188 54.8242 160.781 54.5195C160.383 54.2148 160.07 53.8555 159.844 53.4414C159.617 53.0195 159.504 52.5391 159.504 52C159.504 51.4688 159.617 50.9688 159.844 50.5C160.078 50.0312 160.41 49.6172 160.84 49.2578C161.277 48.8906 161.809 48.6055 162.434 48.4023C163.066 48.1914 163.777 48.0859 164.566 48.0859C165.668 48.0859 166.613 48.2617 167.402 48.6133C168.199 48.9648 168.809 49.4492 169.23 50.0664C169.66 50.6758 169.875 51.3711 169.875 52.1523H166.5C166.5 51.8242 166.43 51.5312 166.289 51.2734C166.156 51.0078 165.945 50.8008 165.656 50.6523C165.375 50.4961 165.008 50.418 164.555 50.418C164.18 50.418 163.855 50.4844 163.582 50.6172C163.309 50.7422 163.098 50.9141 162.949 51.1328C162.809 51.3438 162.738 51.5781 162.738 51.8359C162.738 52.0312 162.777 52.207 162.855 52.3633C162.941 52.5117 163.078 52.6484 163.266 52.7734C163.453 52.8984 163.695 53.0156 163.992 53.125C164.297 53.2266 164.672 53.3203 165.117 53.4062C166.031 53.5938 166.848 53.8398 167.566 54.1445C168.285 54.4414 168.855 54.8477 169.277 55.3633C169.699 55.8711 169.91 56.5391 169.91 57.3672C169.91 57.9297 169.785 58.4453 169.535 58.9141C169.285 59.3828 168.926 59.793 168.457 60.1445C167.988 60.4883 167.426 60.7578 166.77 60.9531C166.121 61.1406 165.391 61.2344 164.578 61.2344C163.398 61.2344 162.398 61.0234 161.578 60.6016C160.766 60.1797 160.148 59.6445 159.727 58.9961C159.312 58.3398 159.105 57.668 159.105 56.9805H162.305C162.32 57.4414 162.438 57.8125 162.656 58.0938C162.883 58.375 163.168 58.5781 163.512 58.7031C163.863 58.8281 164.242 58.8906 164.648 58.8906C165.086 58.8906 165.449 58.832 165.738 58.7148C166.027 58.5898 166.246 58.4258 166.395 58.2227C166.551 58.0117 166.629 57.7695 166.629 57.4961ZM175.664 48.3203V61H172.277V48.3203H175.664ZM172.066 45.0156C172.066 44.5234 172.238 44.1172 172.582 43.7969C172.926 43.4766 173.387 43.3164 173.965 43.3164C174.535 43.3164 174.992 43.4766 175.336 43.7969C175.688 44.1172 175.863 44.5234 175.863 45.0156C175.863 45.5078 175.688 45.9141 175.336 46.2344C174.992 46.5547 174.535 46.7148 173.965 46.7148C173.387 46.7148 172.926 46.5547 172.582 46.2344C172.238 45.9141 172.066 45.5078 172.066 45.0156ZM184.664 48.3203V50.7109H177.281V48.3203H184.664ZM179.109 45.1914H182.484V57.1797C182.484 57.5469 182.531 57.8281 182.625 58.0234C182.727 58.2188 182.875 58.3555 183.07 58.4336C183.266 58.5039 183.512 58.5391 183.809 58.5391C184.02 58.5391 184.207 58.5312 184.371 58.5156C184.543 58.4922 184.688 58.4688 184.805 58.4453L184.816 60.9297C184.527 61.0234 184.215 61.0977 183.879 61.1523C183.543 61.207 183.172 61.2344 182.766 61.2344C182.023 61.2344 181.375 61.1133 180.82 60.8711C180.273 60.6211 179.852 60.2227 179.555 59.6758C179.258 59.1289 179.109 58.4102 179.109 57.5195V45.1914ZM192.422 61.2344C191.438 61.2344 190.555 61.0781 189.773 60.7656C188.992 60.4453 188.328 60.0039 187.781 59.4414C187.242 58.8789 186.828 58.2266 186.539 57.4844C186.25 56.7344 186.105 55.9375 186.105 55.0938V54.625C186.105 53.6641 186.242 52.7852 186.516 51.9883C186.789 51.1914 187.18 50.5 187.688 49.9141C188.203 49.3281 188.828 48.8789 189.562 48.5664C190.297 48.2461 191.125 48.0859 192.047 48.0859C192.945 48.0859 193.742 48.2344 194.438 48.5312C195.133 48.8281 195.715 49.25 196.184 49.7969C196.66 50.3438 197.02 51 197.262 51.7656C197.504 52.5234 197.625 53.3672 197.625 54.2969V55.7031H187.547V53.4531H194.309V53.1953C194.309 52.7266 194.223 52.3086 194.051 51.9414C193.887 51.5664 193.637 51.2695 193.301 51.0508C192.965 50.832 192.535 50.7227 192.012 50.7227C191.566 50.7227 191.184 50.8203 190.863 51.0156C190.543 51.2109 190.281 51.4844 190.078 51.8359C189.883 52.1875 189.734 52.6016 189.633 53.0781C189.539 53.5469 189.492 54.0625 189.492 54.625V55.0938C189.492 55.6016 189.562 56.0703 189.703 56.5C189.852 56.9297 190.059 57.3008 190.324 57.6133C190.598 57.9258 190.926 58.168 191.309 58.3398C191.699 58.5117 192.141 58.5977 192.633 58.5977C193.242 58.5977 193.809 58.4805 194.332 58.2461C194.863 58.0039 195.32 57.6406 195.703 57.1562L197.344 58.9375C197.078 59.3203 196.715 59.6875 196.254 60.0391C195.801 60.3906 195.254 60.6797 194.613 60.9062C193.973 61.125 193.242 61.2344 192.422 61.2344ZM212.414 53.5117H208.031L208.008 51.0977H211.688C212.336 51.0977 212.867 51.0156 213.281 50.8516C213.695 50.6797 214.004 50.4336 214.207 50.1133C214.418 49.7852 214.523 49.3867 214.523 48.918C214.523 48.3867 214.422 47.957 214.219 47.6289C214.023 47.3008 213.715 47.0625 213.293 46.9141C212.879 46.7656 212.344 46.6914 211.688 46.6914H209.25V61H205.734V43.9375H211.688C212.68 43.9375 213.566 44.0312 214.348 44.2188C215.137 44.4062 215.805 44.6914 216.352 45.0742C216.898 45.457 217.316 45.9414 217.605 46.5273C217.895 47.1055 218.039 47.793 218.039 48.5898C218.039 49.293 217.879 49.9414 217.559 50.5352C217.246 51.1289 216.75 51.6133 216.07 51.9883C215.398 52.3633 214.52 52.5703 213.434 52.6094L212.414 53.5117ZM212.262 61H207.07L208.441 58.2578H212.262C212.879 58.2578 213.383 58.1602 213.773 57.9648C214.164 57.7617 214.453 57.4883 214.641 57.1445C214.828 56.8008 214.922 56.4062 214.922 55.9609C214.922 55.4609 214.836 55.0273 214.664 54.6602C214.5 54.293 214.234 54.0117 213.867 53.8164C213.5 53.6133 213.016 53.5117 212.414 53.5117H209.027L209.051 51.0977H213.27L214.078 52.0469C215.117 52.0312 215.953 52.2148 216.586 52.5977C217.227 52.9727 217.691 53.4609 217.98 54.0625C218.277 54.6641 218.426 55.3086 218.426 55.9961C218.426 57.0898 218.188 58.0117 217.711 58.7617C217.234 59.5039 216.535 60.0625 215.613 60.4375C214.699 60.8125 213.582 61 212.262 61ZM228.352 57.9648V48.3203H231.727V61H228.551L228.352 57.9648ZM228.727 55.3633L229.723 55.3398C229.723 56.1836 229.625 56.9688 229.43 57.6953C229.234 58.4141 228.941 59.0391 228.551 59.5703C228.16 60.0938 227.668 60.5039 227.074 60.8008C226.48 61.0898 225.781 61.2344 224.977 61.2344C224.359 61.2344 223.789 61.1484 223.266 60.9766C222.75 60.7969 222.305 60.5195 221.93 60.1445C221.562 59.7617 221.273 59.2734 221.062 58.6797C220.859 58.0781 220.758 57.3555 220.758 56.5117V48.3203H224.133V56.5352C224.133 56.9102 224.176 57.2266 224.262 57.4844C224.355 57.7422 224.484 57.9531 224.648 58.1172C224.812 58.2812 225.004 58.3984 225.223 58.4688C225.449 58.5391 225.699 58.5742 225.973 58.5742C226.668 58.5742 227.215 58.4336 227.613 58.1523C228.02 57.8711 228.305 57.4883 228.469 57.0039C228.641 56.5117 228.727 55.9648 228.727 55.3633ZM237.867 48.3203V61H234.48V48.3203H237.867ZM234.27 45.0156C234.27 44.5234 234.441 44.1172 234.785 43.7969C235.129 43.4766 235.59 43.3164 236.168 43.3164C236.738 43.3164 237.195 43.4766 237.539 43.7969C237.891 44.1172 238.066 44.5234 238.066 45.0156C238.066 45.5078 237.891 45.9141 237.539 46.2344C237.195 46.5547 236.738 46.7148 236.168 46.7148C235.59 46.7148 235.129 46.5547 234.785 46.2344C234.441 45.9141 234.27 45.5078 234.27 45.0156ZM244.219 43V61H240.832V43H244.219ZM254.496 58.2344V43H257.895V61H254.836L254.496 58.2344ZM246.48 54.8125V54.5664C246.48 53.5977 246.59 52.7188 246.809 51.9297C247.027 51.1328 247.348 50.4492 247.77 49.8789C248.191 49.3086 248.711 48.8672 249.328 48.5547C249.945 48.2422 250.648 48.0859 251.438 48.0859C252.18 48.0859 252.828 48.2422 253.383 48.5547C253.945 48.8672 254.422 49.3125 254.812 49.8906C255.211 50.4609 255.531 51.1367 255.773 51.918C256.016 52.6914 256.191 53.5391 256.301 54.4609V55C256.191 55.8828 256.016 56.7031 255.773 57.4609C255.531 58.2188 255.211 58.8828 254.812 59.4531C254.422 60.0156 253.945 60.4531 253.383 60.7656C252.82 61.0781 252.164 61.2344 251.414 61.2344C250.625 61.2344 249.922 61.0742 249.305 60.7539C248.695 60.4336 248.18 59.9844 247.758 59.4062C247.344 58.8281 247.027 58.1484 246.809 57.3672C246.59 56.5859 246.48 55.7344 246.48 54.8125ZM249.855 54.5664V54.8125C249.855 55.3359 249.895 55.8242 249.973 56.2773C250.059 56.7305 250.195 57.1328 250.383 57.4844C250.578 57.8281 250.828 58.0977 251.133 58.293C251.445 58.4805 251.824 58.5742 252.27 58.5742C252.848 58.5742 253.324 58.4453 253.699 58.1875C254.074 57.9219 254.359 57.5586 254.555 57.0977C254.758 56.6367 254.875 56.1055 254.906 55.5039V53.9688C254.883 53.4766 254.812 53.0352 254.695 52.6445C254.586 52.2461 254.422 51.9062 254.203 51.625C253.992 51.3438 253.727 51.125 253.406 50.9688C253.094 50.8125 252.723 50.7344 252.293 50.7344C251.855 50.7344 251.48 50.8359 251.168 51.0391C250.855 51.2344 250.602 51.5039 250.406 51.8477C250.219 52.1914 250.078 52.5977 249.984 53.0664C249.898 53.5273 249.855 54.0273 249.855 54.5664ZM266.367 61.2344C265.383 61.2344 264.5 61.0781 263.719 60.7656C262.938 60.4453 262.273 60.0039 261.727 59.4414C261.188 58.8789 260.773 58.2266 260.484 57.4844C260.195 56.7344 260.051 55.9375 260.051 55.0938V54.625C260.051 53.6641 260.188 52.7852 260.461 51.9883C260.734 51.1914 261.125 50.5 261.633 49.9141C262.148 49.3281 262.773 48.8789 263.508 48.5664C264.242 48.2461 265.07 48.0859 265.992 48.0859C266.891 48.0859 267.688 48.2344 268.383 48.5312C269.078 48.8281 269.66 49.25 270.129 49.7969C270.605 50.3438 270.965 51 271.207 51.7656C271.449 52.5234 271.57 53.3672 271.57 54.2969V55.7031H261.492V53.4531H268.254V53.1953C268.254 52.7266 268.168 52.3086 267.996 51.9414C267.832 51.5664 267.582 51.2695 267.246 51.0508C266.91 50.832 266.48 50.7227 265.957 50.7227C265.512 50.7227 265.129 50.8203 264.809 51.0156C264.488 51.2109 264.227 51.4844 264.023 51.8359C263.828 52.1875 263.68 52.6016 263.578 53.0781C263.484 53.5469 263.438 54.0625 263.438 54.625V55.0938C263.438 55.6016 263.508 56.0703 263.648 56.5C263.797 56.9297 264.004 57.3008 264.27 57.6133C264.543 57.9258 264.871 58.168 265.254 58.3398C265.645 58.5117 266.086 58.5977 266.578 58.5977C267.188 58.5977 267.754 58.4805 268.277 58.2461C268.809 58.0039 269.266 57.6406 269.648 57.1562L271.289 58.9375C271.023 59.3203 270.66 59.6875 270.199 60.0391C269.746 60.3906 269.199 60.6797 268.559 60.9062C267.918 61.125 267.188 61.2344 266.367 61.2344ZM276.867 51.0859V61H273.492V48.3203H276.668L276.867 51.0859ZM280.688 48.2383L280.629 51.3672C280.465 51.3438 280.266 51.3242 280.031 51.3086C279.805 51.2852 279.598 51.2734 279.41 51.2734C278.934 51.2734 278.52 51.3359 278.168 51.4609C277.824 51.5781 277.535 51.7539 277.301 51.9883C277.074 52.2227 276.902 52.5078 276.785 52.8438C276.676 53.1797 276.613 53.5625 276.598 53.9922L275.918 53.7812C275.918 52.9609 276 52.207 276.164 51.5195C276.328 50.8242 276.566 50.2188 276.879 49.7031C277.199 49.1875 277.59 48.7891 278.051 48.5078C278.512 48.2266 279.039 48.0859 279.633 48.0859C279.82 48.0859 280.012 48.1016 280.207 48.1328C280.402 48.1562 280.562 48.1914 280.688 48.2383Z" fill="#888888"/>
<path d="M104.344 84.875V119H96.1406V84.875H104.344ZM117.727 99.0078V119H109.828V93.6406H117.234L117.727 99.0078ZM116.766 105.453L114.961 105.5C114.961 103.719 115.172 102.078 115.594 100.578C116.016 99.0781 116.641 97.7734 117.469 96.6641C118.297 95.5547 119.312 94.6953 120.516 94.0859C121.734 93.4766 123.141 93.1719 124.734 93.1719C125.844 93.1719 126.852 93.3438 127.758 93.6875C128.664 94.0156 129.445 94.5391 130.102 95.2578C130.758 95.9609 131.258 96.8828 131.602 98.0234C131.961 99.1484 132.141 100.5 132.141 102.078V119H124.242V103.086C124.242 102.008 124.117 101.195 123.867 100.648C123.633 100.102 123.289 99.7344 122.836 99.5469C122.383 99.3594 121.828 99.2656 121.172 99.2656C120.484 99.2656 119.867 99.4219 119.32 99.7344C118.773 100.047 118.305 100.484 117.914 101.047C117.539 101.594 117.25 102.242 117.047 102.992C116.859 103.742 116.766 104.562 116.766 105.453ZM131.25 105.453L129.047 105.5C129.047 103.719 129.242 102.078 129.633 100.578C130.039 99.0781 130.641 97.7734 131.438 96.6641C132.25 95.5547 133.258 94.6953 134.461 94.0859C135.664 93.4766 137.062 93.1719 138.656 93.1719C139.812 93.1719 140.875 93.3438 141.844 93.6875C142.812 94.0312 143.648 94.5859 144.352 95.3516C145.055 96.1172 145.602 97.1328 145.992 98.3984C146.383 99.6484 146.578 101.195 146.578 103.039V119H138.656V103.039C138.656 101.992 138.531 101.203 138.281 100.672C138.047 100.125 137.703 99.7578 137.25 99.5703C136.797 99.3672 136.258 99.2656 135.633 99.2656C134.883 99.2656 134.234 99.4219 133.688 99.7344C133.141 100.047 132.68 100.484 132.305 101.047C131.945 101.594 131.68 102.242 131.508 102.992C131.336 103.742 131.25 104.562 131.25 105.453ZM159.07 98.5156V128.75H151.172V93.6406H158.531L159.07 98.5156ZM174.633 106.016V106.508C174.633 108.352 174.422 110.062 174 111.641C173.578 113.219 172.953 114.594 172.125 115.766C171.297 116.938 170.266 117.852 169.031 118.508C167.812 119.148 166.398 119.469 164.789 119.469C163.273 119.469 161.969 119.133 160.875 118.461C159.781 117.789 158.867 116.859 158.133 115.672C157.398 114.484 156.805 113.125 156.352 111.594C155.898 110.062 155.539 108.445 155.273 106.742V106.109C155.539 104.281 155.898 102.586 156.352 101.023C156.805 99.4453 157.398 98.0703 158.133 96.8984C158.867 95.7266 159.773 94.8125 160.852 94.1562C161.945 93.5 163.25 93.1719 164.766 93.1719C166.375 93.1719 167.789 93.4766 169.008 94.0859C170.242 94.6953 171.273 95.5703 172.102 96.7109C172.945 97.8359 173.578 99.1875 174 100.766C174.422 102.344 174.633 104.094 174.633 106.016ZM166.734 106.508V106.016C166.734 105.031 166.664 104.133 166.523 103.32C166.383 102.492 166.156 101.773 165.844 101.164C165.547 100.555 165.148 100.086 164.648 99.7578C164.148 99.4297 163.531 99.2656 162.797 99.2656C161.953 99.2656 161.242 99.3984 160.664 99.6641C160.102 99.9141 159.648 100.305 159.305 100.836C158.977 101.352 158.742 102 158.602 102.781C158.477 103.547 158.422 104.445 158.438 105.477V107.398C158.406 108.586 158.523 109.633 158.789 110.539C159.055 111.43 159.516 112.125 160.172 112.625C160.828 113.125 161.719 113.375 162.844 113.375C163.594 113.375 164.219 113.203 164.719 112.859C165.219 112.5 165.617 112.008 165.914 111.383C166.211 110.742 166.422 110.008 166.547 109.18C166.672 108.352 166.734 107.461 166.734 106.508ZM186.492 83V119H178.57V83H186.492ZM203.648 119.469C201.586 119.469 199.742 119.148 198.117 118.508C196.492 117.852 195.117 116.953 193.992 115.812C192.883 114.672 192.031 113.359 191.438 111.875C190.859 110.391 190.57 108.82 190.57 107.164V106.273C190.57 104.414 190.828 102.695 191.344 101.117C191.859 99.5234 192.625 98.1328 193.641 96.9453C194.656 95.7578 195.93 94.8359 197.461 94.1797C198.992 93.5078 200.773 93.1719 202.805 93.1719C204.602 93.1719 206.211 93.4609 207.633 94.0391C209.055 94.6172 210.258 95.4453 211.242 96.5234C212.242 97.6016 213 98.9062 213.516 100.438C214.047 101.969 214.312 103.688 214.312 105.594V108.805H193.594V103.859H206.602V103.25C206.617 102.406 206.469 101.688 206.156 101.094C205.859 100.5 205.422 100.047 204.844 99.7344C204.266 99.4219 203.562 99.2656 202.734 99.2656C201.875 99.2656 201.164 99.4531 200.602 99.8281C200.055 100.203 199.625 100.719 199.312 101.375C199.016 102.016 198.805 102.758 198.68 103.602C198.555 104.445 198.492 105.336 198.492 106.273V107.164C198.492 108.102 198.617 108.953 198.867 109.719C199.133 110.484 199.508 111.141 199.992 111.688C200.492 112.219 201.086 112.633 201.773 112.93C202.477 113.227 203.273 113.375 204.164 113.375C205.242 113.375 206.305 113.172 207.352 112.766C208.398 112.359 209.297 111.688 210.047 110.75L213.633 115.016C213.117 115.75 212.383 116.461 211.43 117.148C210.492 117.836 209.367 118.398 208.055 118.836C206.742 119.258 205.273 119.469 203.648 119.469ZM225.492 99.0078V119H217.594V93.6406H225L225.492 99.0078ZM224.531 105.453L222.727 105.5C222.727 103.719 222.938 102.078 223.359 100.578C223.781 99.0781 224.406 97.7734 225.234 96.6641C226.062 95.5547 227.078 94.6953 228.281 94.0859C229.5 93.4766 230.906 93.1719 232.5 93.1719C233.609 93.1719 234.617 93.3438 235.523 93.6875C236.43 94.0156 237.211 94.5391 237.867 95.2578C238.523 95.9609 239.023 96.8828 239.367 98.0234C239.727 99.1484 239.906 100.5 239.906 102.078V119H232.008V103.086C232.008 102.008 231.883 101.195 231.633 100.648C231.398 100.102 231.055 99.7344 230.602 99.5469C230.148 99.3594 229.594 99.2656 228.938 99.2656C228.25 99.2656 227.633 99.4219 227.086 99.7344C226.539 100.047 226.07 100.484 225.68 101.047C225.305 101.594 225.016 102.242 224.812 102.992C224.625 103.742 224.531 104.562 224.531 105.453ZM239.016 105.453L236.812 105.5C236.812 103.719 237.008 102.078 237.398 100.578C237.805 99.0781 238.406 97.7734 239.203 96.6641C240.016 95.5547 241.023 94.6953 242.227 94.0859C243.43 93.4766 244.828 93.1719 246.422 93.1719C247.578 93.1719 248.641 93.3438 249.609 93.6875C250.578 94.0312 251.414 94.5859 252.117 95.3516C252.82 96.1172 253.367 97.1328 253.758 98.3984C254.148 99.6484 254.344 101.195 254.344 103.039V119H246.422V103.039C246.422 101.992 246.297 101.203 246.047 100.672C245.812 100.125 245.469 99.7578 245.016 99.5703C244.562 99.3672 244.023 99.2656 243.398 99.2656C242.648 99.2656 242 99.4219 241.453 99.7344C240.906 100.047 240.445 100.484 240.07 101.047C239.711 101.594 239.445 102.242 239.273 102.992C239.102 103.742 239.016 104.562 239.016 105.453ZM271.148 119.469C269.086 119.469 267.242 119.148 265.617 118.508C263.992 117.852 262.617 116.953 261.492 115.812C260.383 114.672 259.531 113.359 258.938 111.875C258.359 110.391 258.07 108.82 258.07 107.164V106.273C258.07 104.414 258.328 102.695 258.844 101.117C259.359 99.5234 260.125 98.1328 261.141 96.9453C262.156 95.7578 263.43 94.8359 264.961 94.1797C266.492 93.5078 268.273 93.1719 270.305 93.1719C272.102 93.1719 273.711 93.4609 275.133 94.0391C276.555 94.6172 277.758 95.4453 278.742 96.5234C279.742 97.6016 280.5 98.9062 281.016 100.438C281.547 101.969 281.812 103.688 281.812 105.594V108.805H261.094V103.859H274.102V103.25C274.117 102.406 273.969 101.688 273.656 101.094C273.359 100.5 272.922 100.047 272.344 99.7344C271.766 99.4219 271.062 99.2656 270.234 99.2656C269.375 99.2656 268.664 99.4531 268.102 99.8281C267.555 100.203 267.125 100.719 266.812 101.375C266.516 102.016 266.305 102.758 266.18 103.602C266.055 104.445 265.992 105.336 265.992 106.273V107.164C265.992 108.102 266.117 108.953 266.367 109.719C266.633 110.484 267.008 111.141 267.492 111.688C267.992 112.219 268.586 112.633 269.273 112.93C269.977 113.227 270.773 113.375 271.664 113.375C272.742 113.375 273.805 113.172 274.852 112.766C275.898 112.359 276.797 111.688 277.547 110.75L281.133 115.016C280.617 115.75 279.883 116.461 278.93 117.148C277.992 117.836 276.867 118.398 275.555 118.836C274.242 119.258 272.773 119.469 271.148 119.469ZM292.781 99.0547V119H284.883V93.6406H292.289L292.781 99.0547ZM291.844 105.453L289.992 105.5C289.992 103.562 290.227 101.836 290.695 100.32C291.164 98.7891 291.828 97.4922 292.688 96.4297C293.547 95.3672 294.57 94.5625 295.758 94.0156C296.961 93.4531 298.297 93.1719 299.766 93.1719C300.938 93.1719 302.008 93.3438 302.977 93.6875C303.961 94.0312 304.805 94.5859 305.508 95.3516C306.227 96.1172 306.773 97.1328 307.148 98.3984C307.539 99.6484 307.734 101.195 307.734 103.039V119H299.789V103.016C299.789 102 299.648 101.227 299.367 100.695C299.086 100.148 298.68 99.7734 298.148 99.5703C297.617 99.3672 296.969 99.2656 296.203 99.2656C295.391 99.2656 294.703 99.4219 294.141 99.7344C293.578 100.047 293.125 100.484 292.781 101.047C292.453 101.594 292.211 102.242 292.055 102.992C291.914 103.742 291.844 104.562 291.844 105.453ZM325.477 93.6406V99.125H310.195V93.6406H325.477ZM313.406 87.3359H321.305V110.727C321.305 111.398 321.383 111.922 321.539 112.297C321.695 112.656 321.961 112.914 322.336 113.07C322.727 113.211 323.242 113.281 323.883 113.281C324.336 113.281 324.711 113.273 325.008 113.258C325.305 113.227 325.586 113.188 325.852 113.141V118.789C325.18 119.008 324.477 119.172 323.742 119.281C323.008 119.406 322.227 119.469 321.398 119.469C319.711 119.469 318.266 119.203 317.062 118.672C315.875 118.141 314.969 117.305 314.344 116.164C313.719 115.023 313.406 113.539 313.406 111.711V87.3359ZM341.789 112.625V102.172C341.789 101.453 341.688 100.836 341.484 100.32C341.281 99.8047 340.961 99.4062 340.523 99.125C340.086 98.8281 339.5 98.6797 338.766 98.6797C338.172 98.6797 337.664 98.7812 337.242 98.9844C336.82 99.1875 336.5 99.4922 336.281 99.8984C336.062 100.305 335.953 100.82 335.953 101.445H328.055C328.055 100.273 328.312 99.1875 328.828 98.1875C329.359 97.1719 330.109 96.2891 331.078 95.5391C332.062 94.7891 333.234 94.2109 334.594 93.8047C335.969 93.3828 337.5 93.1719 339.188 93.1719C341.203 93.1719 343 93.5078 344.578 94.1797C346.172 94.8516 347.43 95.8594 348.352 97.2031C349.273 98.5312 349.734 100.203 349.734 102.219V112.602C349.734 114.258 349.828 115.516 350.016 116.375C350.203 117.219 350.469 117.961 350.812 118.602V119H342.891C342.516 118.219 342.234 117.266 342.047 116.141C341.875 115 341.789 113.828 341.789 112.625ZM342.75 103.508L342.797 107.727H339.305C338.57 107.727 337.945 107.828 337.43 108.031C336.93 108.234 336.523 108.516 336.211 108.875C335.914 109.219 335.695 109.609 335.555 110.047C335.43 110.484 335.367 110.945 335.367 111.43C335.367 111.898 335.477 112.32 335.695 112.695C335.93 113.055 336.242 113.336 336.633 113.539C337.023 113.742 337.461 113.844 337.945 113.844C338.82 113.844 339.562 113.68 340.172 113.352C340.797 113.008 341.273 112.594 341.602 112.109C341.93 111.625 342.094 111.172 342.094 110.75L343.828 113.984C343.516 114.609 343.156 115.242 342.75 115.883C342.359 116.523 341.867 117.117 341.273 117.664C340.695 118.195 339.984 118.633 339.141 118.977C338.297 119.305 337.273 119.469 336.07 119.469C334.508 119.469 333.07 119.148 331.758 118.508C330.461 117.867 329.422 116.977 328.641 115.836C327.859 114.68 327.469 113.352 327.469 111.852C327.469 110.539 327.703 109.367 328.172 108.336C328.656 107.305 329.383 106.43 330.352 105.711C331.32 104.992 332.555 104.445 334.055 104.07C335.555 103.695 337.32 103.508 339.352 103.508H342.75ZM367.477 93.6406V99.125H352.195V93.6406H367.477ZM355.406 87.3359H363.305V110.727C363.305 111.398 363.383 111.922 363.539 112.297C363.695 112.656 363.961 112.914 364.336 113.07C364.727 113.211 365.242 113.281 365.883 113.281C366.336 113.281 366.711 113.273 367.008 113.258C367.305 113.227 367.586 113.188 367.852 113.141V118.789C367.18 119.008 366.477 119.172 365.742 119.281C365.008 119.406 364.227 119.469 363.398 119.469C361.711 119.469 360.266 119.203 359.062 118.672C357.875 118.141 356.969 117.305 356.344 116.164C355.719 115.023 355.406 113.539 355.406 111.711V87.3359ZM378.961 93.6406V119H371.039V93.6406H378.961ZM370.57 87.1016C370.57 85.9766 370.977 85.0547 371.789 84.3359C372.602 83.6172 373.656 83.2578 374.953 83.2578C376.25 83.2578 377.305 83.6172 378.117 84.3359C378.93 85.0547 379.336 85.9766 379.336 87.1016C379.336 88.2266 378.93 89.1484 378.117 89.8672C377.305 90.5859 376.25 90.9453 374.953 90.9453C373.656 90.9453 372.602 90.5859 371.789 89.8672C370.977 89.1484 370.57 88.2266 370.57 87.1016ZM382.852 106.578V106.086C382.852 104.227 383.117 102.516 383.648 100.953C384.18 99.375 384.961 98.0078 385.992 96.8516C387.023 95.6953 388.297 94.7969 389.812 94.1562C391.328 93.5 393.078 93.1719 395.062 93.1719C397.062 93.1719 398.82 93.5 400.336 94.1562C401.867 94.7969 403.148 95.6953 404.18 96.8516C405.211 98.0078 405.992 99.375 406.523 100.953C407.055 102.516 407.32 104.227 407.32 106.086V106.578C407.32 108.422 407.055 110.133 406.523 111.711C405.992 113.273 405.211 114.641 404.18 115.812C403.148 116.969 401.875 117.867 400.359 118.508C398.844 119.148 397.094 119.469 395.109 119.469C393.125 119.469 391.367 119.148 389.836 118.508C388.305 117.867 387.023 116.969 385.992 115.812C384.961 114.641 384.18 113.273 383.648 111.711C383.117 110.133 382.852 108.422 382.852 106.578ZM390.75 106.086V106.578C390.75 107.531 390.82 108.422 390.961 109.25C391.102 110.078 391.336 110.805 391.664 111.43C391.992 112.039 392.438 112.516 393 112.859C393.562 113.203 394.266 113.375 395.109 113.375C395.938 113.375 396.625 113.203 397.172 112.859C397.734 112.516 398.18 112.039 398.508 111.43C398.836 110.805 399.07 110.078 399.211 109.25C399.352 108.422 399.422 107.531 399.422 106.578V106.086C399.422 105.164 399.352 104.297 399.211 103.484C399.07 102.656 398.836 101.93 398.508 101.305C398.18 100.664 397.734 100.164 397.172 99.8047C396.609 99.4453 395.906 99.2656 395.062 99.2656C394.234 99.2656 393.539 99.4453 392.977 99.8047C392.43 100.164 391.992 100.664 391.664 101.305C391.336 101.93 391.102 102.656 390.961 103.484C390.82 104.297 390.75 105.164 390.75 106.086ZM418.594 99.0547V119H410.695V93.6406H418.102L418.594 99.0547ZM417.656 105.453L415.805 105.5C415.805 103.562 416.039 101.836 416.508 100.32C416.977 98.7891 417.641 97.4922 418.5 96.4297C419.359 95.3672 420.383 94.5625 421.57 94.0156C422.773 93.4531 424.109 93.1719 425.578 93.1719C426.75 93.1719 427.82 93.3438 428.789 93.6875C429.773 94.0312 430.617 94.5859 431.32 95.3516C432.039 96.1172 432.586 97.1328 432.961 98.3984C433.352 99.6484 433.547 101.195 433.547 103.039V119H425.602V103.016C425.602 102 425.461 101.227 425.18 100.695C424.898 100.148 424.492 99.7734 423.961 99.5703C423.43 99.3672 422.781 99.2656 422.016 99.2656C421.203 99.2656 420.516 99.4219 419.953 99.7344C419.391 100.047 418.938 100.484 418.594 101.047C418.266 101.594 418.023 102.242 417.867 102.992C417.727 103.742 417.656 104.562 417.656 105.453Z" fill="black"/>
<path d="M1134 0H1348C1356.28 0 1363 6.71573 1363 15V148C1363 156.284 1356.28 163 1348 163H1134V0Z" fill="#1E6673"/>
<path d="M1280.07 47.5H1216.93L1214.5 49.9286V113.071L1216.93 115.5H1280.07L1282.5 113.071V49.9286L1280.07 47.5ZM1277.64 110.643H1233.93V100.929H1245.1C1246.56 103.843 1249.96 105.786 1253.36 105.786C1258.7 105.786 1263.07 101.414 1263.07 96.0714C1263.07 90.7286 1258.7 86.3571 1253.36 86.3571C1248.01 86.3571 1243.64 90.7286 1243.64 96.0714H1229.07V110.643H1219.36V52.3571H1229.07V63.5286C1226.16 64.9857 1224.21 68.3857 1224.21 71.7857C1224.21 77.1286 1228.59 81.5 1233.93 81.5C1239.27 81.5 1243.64 77.1286 1243.64 71.7857H1253.36C1253.36 77.1286 1257.73 81.5 1263.07 81.5C1268.41 81.5 1272.79 77.1286 1272.79 71.7857C1272.79 66.4429 1268.41 62.0714 1263.07 62.0714C1259.67 62.0714 1256.27 64.0143 1254.81 66.9286H1242.19C1240.73 64.0143 1237.33 62.0714 1233.93 62.0714V52.3571H1277.64V110.643ZM1248.5 96.0714C1248.5 93.1571 1250.44 91.2143 1253.36 91.2143C1256.27 91.2143 1258.21 93.1571 1258.21 96.0714C1258.21 98.9857 1256.27 100.929 1253.36 100.929C1250.44 100.929 1248.5 98.9857 1248.5 96.0714ZM1233.93 66.9286C1236.84 66.9286 1238.79 68.8714 1238.79 71.7857C1238.79 74.7 1236.84 76.6429 1233.93 76.6429C1231.01 76.6429 1229.07 74.7 1229.07 71.7857C1229.07 68.8714 1231.01 66.9286 1233.93 66.9286ZM1263.07 66.9286C1265.99 66.9286 1267.93 68.8714 1267.93 71.7857C1267.93 74.7 1265.99 76.6429 1263.07 76.6429C1260.16 76.6429 1258.21 74.7 1258.21 71.7857C1258.21 68.8714 1260.16 66.9286 1263.07 66.9286Z" fill="white"/>
</svg>
