<svg width="1363" height="163" viewBox="0 0 1363 163" fill="none" xmlns="http://www.w3.org/2000/svg">
<path d="M0 15C0 6.71573 6.71573 0 15 0H37V163H15C6.71573 163 0 156.284 0 148V15Z" fill="#424242"/>
<rect width="1097" height="163" transform="translate(37)" fill="#F0F0F0"/>
<path d="M101.906 53.9219L94.3945 51.2383V48.0859L104.602 52.375V54.6367L101.906 53.9219ZM94.3945 56.1719L101.918 53.4297L104.602 52.7852V55.0352L94.3945 59.3242V56.1719ZM117.012 58.293L120.41 43.9375H122.309L122.742 46.3281L119.121 61H117.082L117.012 58.293ZM115.266 43.9375L118.078 58.293L117.844 61H115.57L111.785 43.9375H115.266ZM125.73 58.2344L128.508 43.9375H131.988L128.215 61H125.941L125.73 58.2344ZM123.375 43.9375L126.797 58.3516L126.703 61H124.664L121.02 46.3164L121.488 43.9375H123.375ZM139.148 61.2344C138.164 61.2344 137.281 61.0781 136.5 60.7656C135.719 60.4453 135.055 60.0039 134.508 59.4414C133.969 58.8789 133.555 58.2266 133.266 57.4844C132.977 56.7344 132.832 55.9375 132.832 55.0938V54.625C132.832 53.6641 132.969 52.7852 133.242 51.9883C133.516 51.1914 133.906 50.5 134.414 49.9141C134.93 49.3281 135.555 48.8789 136.289 48.5664C137.023 48.2461 137.852 48.0859 138.773 48.0859C139.672 48.0859 140.469 48.2344 141.164 48.5312C141.859 48.8281 142.441 49.25 142.91 49.7969C143.387 50.3438 143.746 51 143.988 51.7656C144.23 52.5234 144.352 53.3672 144.352 54.2969V55.7031H134.273V53.4531H141.035V53.1953C141.035 52.7266 140.949 52.3086 140.777 51.9414C140.613 51.5664 140.363 51.2695 140.027 51.0508C139.691 50.832 139.262 50.7227 138.738 50.7227C138.293 50.7227 137.91 50.8203 137.59 51.0156C137.27 51.2109 137.008 51.4844 136.805 51.8359C136.609 52.1875 136.461 52.6016 136.359 53.0781C136.266 53.5469 136.219 54.0625 136.219 54.625V55.0938C136.219 55.6016 136.289 56.0703 136.43 56.5C136.578 56.9297 136.785 57.3008 137.051 57.6133C137.324 57.9258 137.652 58.168 138.035 58.3398C138.426 58.5117 138.867 58.5977 139.359 58.5977C139.969 58.5977 140.535 58.4805 141.059 58.2461C141.59 58.0039 142.047 57.6406 142.43 57.1562L144.07 58.9375C143.805 59.3203 143.441 59.6875 142.98 60.0391C142.527 60.3906 141.98 60.6797 141.34 60.9062C140.699 61.125 139.969 61.2344 139.148 61.2344ZM146.273 43H149.648V58.0938L149.309 61H146.273V43ZM157.676 54.5312V54.7773C157.676 55.7227 157.574 56.5898 157.371 57.3789C157.176 58.168 156.871 58.8516 156.457 59.4297C156.043 60 155.527 60.4453 154.91 60.7656C154.301 61.0781 153.582 61.2344 152.754 61.2344C151.98 61.2344 151.309 61.0781 150.738 60.7656C150.176 60.4531 149.703 60.0117 149.32 59.4414C148.938 58.8711 148.629 58.2031 148.395 57.4375C148.16 56.6719 147.984 55.8359 147.867 54.9297V54.3906C147.984 53.4844 148.16 52.6484 148.395 51.8828C148.629 51.1172 148.938 50.4492 149.32 49.8789C149.703 49.3086 150.176 48.8672 150.738 48.5547C151.301 48.2422 151.965 48.0859 152.73 48.0859C153.566 48.0859 154.293 48.2461 154.91 48.5664C155.535 48.8789 156.051 49.3242 156.457 49.9023C156.871 50.4727 157.176 51.1523 157.371 51.9414C157.574 52.7227 157.676 53.5859 157.676 54.5312ZM154.301 54.7773V54.5312C154.301 54.0156 154.262 53.5312 154.184 53.0781C154.113 52.6172 153.988 52.2148 153.809 51.8711C153.629 51.5195 153.383 51.2422 153.07 51.0391C152.766 50.8359 152.371 50.7344 151.887 50.7344C151.426 50.7344 151.035 50.8125 150.715 50.9688C150.395 51.125 150.129 51.3438 149.918 51.625C149.715 51.9062 149.562 52.2422 149.461 52.6328C149.359 53.0156 149.297 53.4375 149.273 53.8984V55.4336C149.297 56.0508 149.398 56.5977 149.578 57.0742C149.766 57.543 150.047 57.9141 150.422 58.1875C150.805 58.4531 151.301 58.5859 151.91 58.5859C152.387 58.5859 152.781 58.4922 153.094 58.3047C153.406 58.1172 153.648 57.8516 153.82 57.5078C154 57.1641 154.125 56.7617 154.195 56.3008C154.266 55.832 154.301 55.3242 154.301 54.7773ZM166.629 57.4961C166.629 57.2539 166.559 57.0352 166.418 56.8398C166.277 56.6445 166.016 56.4648 165.633 56.3008C165.258 56.1289 164.715 55.9727 164.004 55.832C163.363 55.6914 162.766 55.5156 162.211 55.3047C161.664 55.0859 161.188 54.8242 160.781 54.5195C160.383 54.2148 160.07 53.8555 159.844 53.4414C159.617 53.0195 159.504 52.5391 159.504 52C159.504 51.4688 159.617 50.9688 159.844 50.5C160.078 50.0312 160.41 49.6172 160.84 49.2578C161.277 48.8906 161.809 48.6055 162.434 48.4023C163.066 48.1914 163.777 48.0859 164.566 48.0859C165.668 48.0859 166.613 48.2617 167.402 48.6133C168.199 48.9648 168.809 49.4492 169.23 50.0664C169.66 50.6758 169.875 51.3711 169.875 52.1523H166.5C166.5 51.8242 166.43 51.5312 166.289 51.2734C166.156 51.0078 165.945 50.8008 165.656 50.6523C165.375 50.4961 165.008 50.418 164.555 50.418C164.18 50.418 163.855 50.4844 163.582 50.6172C163.309 50.7422 163.098 50.9141 162.949 51.1328C162.809 51.3438 162.738 51.5781 162.738 51.8359C162.738 52.0312 162.777 52.207 162.855 52.3633C162.941 52.5117 163.078 52.6484 163.266 52.7734C163.453 52.8984 163.695 53.0156 163.992 53.125C164.297 53.2266 164.672 53.3203 165.117 53.4062C166.031 53.5938 166.848 53.8398 167.566 54.1445C168.285 54.4414 168.855 54.8477 169.277 55.3633C169.699 55.8711 169.91 56.5391 169.91 57.3672C169.91 57.9297 169.785 58.4453 169.535 58.9141C169.285 59.3828 168.926 59.793 168.457 60.1445C167.988 60.4883 167.426 60.7578 166.77 60.9531C166.121 61.1406 165.391 61.2344 164.578 61.2344C163.398 61.2344 162.398 61.0234 161.578 60.6016C160.766 60.1797 160.148 59.6445 159.727 58.9961C159.312 58.3398 159.105 57.668 159.105 56.9805H162.305C162.32 57.4414 162.438 57.8125 162.656 58.0938C162.883 58.375 163.168 58.5781 163.512 58.7031C163.863 58.8281 164.242 58.8906 164.648 58.8906C165.086 58.8906 165.449 58.832 165.738 58.7148C166.027 58.5898 166.246 58.4258 166.395 58.2227C166.551 58.0117 166.629 57.7695 166.629 57.4961ZM175.664 48.3203V61H172.277V48.3203H175.664ZM172.066 45.0156C172.066 44.5234 172.238 44.1172 172.582 43.7969C172.926 43.4766 173.387 43.3164 173.965 43.3164C174.535 43.3164 174.992 43.4766 175.336 43.7969C175.688 44.1172 175.863 44.5234 175.863 45.0156C175.863 45.5078 175.688 45.9141 175.336 46.2344C174.992 46.5547 174.535 46.7148 173.965 46.7148C173.387 46.7148 172.926 46.5547 172.582 46.2344C172.238 45.9141 172.066 45.5078 172.066 45.0156ZM184.664 48.3203V50.7109H177.281V48.3203H184.664ZM179.109 45.1914H182.484V57.1797C182.484 57.5469 182.531 57.8281 182.625 58.0234C182.727 58.2188 182.875 58.3555 183.07 58.4336C183.266 58.5039 183.512 58.5391 183.809 58.5391C184.02 58.5391 184.207 58.5312 184.371 58.5156C184.543 58.4922 184.688 58.4688 184.805 58.4453L184.816 60.9297C184.527 61.0234 184.215 61.0977 183.879 61.1523C183.543 61.207 183.172 61.2344 182.766 61.2344C182.023 61.2344 181.375 61.1133 180.82 60.8711C180.273 60.6211 179.852 60.2227 179.555 59.6758C179.258 59.1289 179.109 58.4102 179.109 57.5195V45.1914ZM192.422 61.2344C191.438 61.2344 190.555 61.0781 189.773 60.7656C188.992 60.4453 188.328 60.0039 187.781 59.4414C187.242 58.8789 186.828 58.2266 186.539 57.4844C186.25 56.7344 186.105 55.9375 186.105 55.0938V54.625C186.105 53.6641 186.242 52.7852 186.516 51.9883C186.789 51.1914 187.18 50.5 187.688 49.9141C188.203 49.3281 188.828 48.8789 189.562 48.5664C190.297 48.2461 191.125 48.0859 192.047 48.0859C192.945 48.0859 193.742 48.2344 194.438 48.5312C195.133 48.8281 195.715 49.25 196.184 49.7969C196.66 50.3438 197.02 51 197.262 51.7656C197.504 52.5234 197.625 53.3672 197.625 54.2969V55.7031H187.547V53.4531H194.309V53.1953C194.309 52.7266 194.223 52.3086 194.051 51.9414C193.887 51.5664 193.637 51.2695 193.301 51.0508C192.965 50.832 192.535 50.7227 192.012 50.7227C191.566 50.7227 191.184 50.8203 190.863 51.0156C190.543 51.2109 190.281 51.4844 190.078 51.8359C189.883 52.1875 189.734 52.6016 189.633 53.0781C189.539 53.5469 189.492 54.0625 189.492 54.625V55.0938C189.492 55.6016 189.562 56.0703 189.703 56.5C189.852 56.9297 190.059 57.3008 190.324 57.6133C190.598 57.9258 190.926 58.168 191.309 58.3398C191.699 58.5117 192.141 58.5977 192.633 58.5977C193.242 58.5977 193.809 58.4805 194.332 58.2461C194.863 58.0039 195.32 57.6406 195.703 57.1562L197.344 58.9375C197.078 59.3203 196.715 59.6875 196.254 60.0391C195.801 60.3906 195.254 60.6797 194.613 60.9062C193.973 61.125 193.242 61.2344 192.422 61.2344ZM212.414 53.5117H208.031L208.008 51.0977H211.688C212.336 51.0977 212.867 51.0156 213.281 50.8516C213.695 50.6797 214.004 50.4336 214.207 50.1133C214.418 49.7852 214.523 49.3867 214.523 48.918C214.523 48.3867 214.422 47.957 214.219 47.6289C214.023 47.3008 213.715 47.0625 213.293 46.9141C212.879 46.7656 212.344 46.6914 211.688 46.6914H209.25V61H205.734V43.9375H211.688C212.68 43.9375 213.566 44.0312 214.348 44.2188C215.137 44.4062 215.805 44.6914 216.352 45.0742C216.898 45.457 217.316 45.9414 217.605 46.5273C217.895 47.1055 218.039 47.793 218.039 48.5898C218.039 49.293 217.879 49.9414 217.559 50.5352C217.246 51.1289 216.75 51.6133 216.07 51.9883C215.398 52.3633 214.52 52.5703 213.434 52.6094L212.414 53.5117ZM212.262 61H207.07L208.441 58.2578H212.262C212.879 58.2578 213.383 58.1602 213.773 57.9648C214.164 57.7617 214.453 57.4883 214.641 57.1445C214.828 56.8008 214.922 56.4062 214.922 55.9609C214.922 55.4609 214.836 55.0273 214.664 54.6602C214.5 54.293 214.234 54.0117 213.867 53.8164C213.5 53.6133 213.016 53.5117 212.414 53.5117H209.027L209.051 51.0977H213.27L214.078 52.0469C215.117 52.0312 215.953 52.2148 216.586 52.5977C217.227 52.9727 217.691 53.4609 217.98 54.0625C218.277 54.6641 218.426 55.3086 218.426 55.9961C218.426 57.0898 218.188 58.0117 217.711 58.7617C217.234 59.5039 216.535 60.0625 215.613 60.4375C214.699 60.8125 213.582 61 212.262 61ZM228.352 57.9648V48.3203H231.727V61H228.551L228.352 57.9648ZM228.727 55.3633L229.723 55.3398C229.723 56.1836 229.625 56.9688 229.43 57.6953C229.234 58.4141 228.941 59.0391 228.551 59.5703C228.16 60.0938 227.668 60.5039 227.074 60.8008C226.48 61.0898 225.781 61.2344 224.977 61.2344C224.359 61.2344 223.789 61.1484 223.266 60.9766C222.75 60.7969 222.305 60.5195 221.93 60.1445C221.562 59.7617 221.273 59.2734 221.062 58.6797C220.859 58.0781 220.758 57.3555 220.758 56.5117V48.3203H224.133V56.5352C224.133 56.9102 224.176 57.2266 224.262 57.4844C224.355 57.7422 224.484 57.9531 224.648 58.1172C224.812 58.2812 225.004 58.3984 225.223 58.4688C225.449 58.5391 225.699 58.5742 225.973 58.5742C226.668 58.5742 227.215 58.4336 227.613 58.1523C228.02 57.8711 228.305 57.4883 228.469 57.0039C228.641 56.5117 228.727 55.9648 228.727 55.3633ZM237.867 48.3203V61H234.48V48.3203H237.867ZM234.27 45.0156C234.27 44.5234 234.441 44.1172 234.785 43.7969C235.129 43.4766 235.59 43.3164 236.168 43.3164C236.738 43.3164 237.195 43.4766 237.539 43.7969C237.891 44.1172 238.066 44.5234 238.066 45.0156C238.066 45.5078 237.891 45.9141 237.539 46.2344C237.195 46.5547 236.738 46.7148 236.168 46.7148C235.59 46.7148 235.129 46.5547 234.785 46.2344C234.441 45.9141 234.27 45.5078 234.27 45.0156ZM244.219 43V61H240.832V43H244.219ZM254.496 58.2344V43H257.895V61H254.836L254.496 58.2344ZM246.48 54.8125V54.5664C246.48 53.5977 246.59 52.7188 246.809 51.9297C247.027 51.1328 247.348 50.4492 247.77 49.8789C248.191 49.3086 248.711 48.8672 249.328 48.5547C249.945 48.2422 250.648 48.0859 251.438 48.0859C252.18 48.0859 252.828 48.2422 253.383 48.5547C253.945 48.8672 254.422 49.3125 254.812 49.8906C255.211 50.4609 255.531 51.1367 255.773 51.918C256.016 52.6914 256.191 53.5391 256.301 54.4609V55C256.191 55.8828 256.016 56.7031 255.773 57.4609C255.531 58.2188 255.211 58.8828 254.812 59.4531C254.422 60.0156 253.945 60.4531 253.383 60.7656C252.82 61.0781 252.164 61.2344 251.414 61.2344C250.625 61.2344 249.922 61.0742 249.305 60.7539C248.695 60.4336 248.18 59.9844 247.758 59.4062C247.344 58.8281 247.027 58.1484 246.809 57.3672C246.59 56.5859 246.48 55.7344 246.48 54.8125ZM249.855 54.5664V54.8125C249.855 55.3359 249.895 55.8242 249.973 56.2773C250.059 56.7305 250.195 57.1328 250.383 57.4844C250.578 57.8281 250.828 58.0977 251.133 58.293C251.445 58.4805 251.824 58.5742 252.27 58.5742C252.848 58.5742 253.324 58.4453 253.699 58.1875C254.074 57.9219 254.359 57.5586 254.555 57.0977C254.758 56.6367 254.875 56.1055 254.906 55.5039V53.9688C254.883 53.4766 254.812 53.0352 254.695 52.6445C254.586 52.2461 254.422 51.9062 254.203 51.625C253.992 51.3438 253.727 51.125 253.406 50.9688C253.094 50.8125 252.723 50.7344 252.293 50.7344C251.855 50.7344 251.48 50.8359 251.168 51.0391C250.855 51.2344 250.602 51.5039 250.406 51.8477C250.219 52.1914 250.078 52.5977 249.984 53.0664C249.898 53.5273 249.855 54.0273 249.855 54.5664ZM266.367 61.2344C265.383 61.2344 264.5 61.0781 263.719 60.7656C262.938 60.4453 262.273 60.0039 261.727 59.4414C261.188 58.8789 260.773 58.2266 260.484 57.4844C260.195 56.7344 260.051 55.9375 260.051 55.0938V54.625C260.051 53.6641 260.188 52.7852 260.461 51.9883C260.734 51.1914 261.125 50.5 261.633 49.9141C262.148 49.3281 262.773 48.8789 263.508 48.5664C264.242 48.2461 265.07 48.0859 265.992 48.0859C266.891 48.0859 267.688 48.2344 268.383 48.5312C269.078 48.8281 269.66 49.25 270.129 49.7969C270.605 50.3438 270.965 51 271.207 51.7656C271.449 52.5234 271.57 53.3672 271.57 54.2969V55.7031H261.492V53.4531H268.254V53.1953C268.254 52.7266 268.168 52.3086 267.996 51.9414C267.832 51.5664 267.582 51.2695 267.246 51.0508C266.91 50.832 266.48 50.7227 265.957 50.7227C265.512 50.7227 265.129 50.8203 264.809 51.0156C264.488 51.2109 264.227 51.4844 264.023 51.8359C263.828 52.1875 263.68 52.6016 263.578 53.0781C263.484 53.5469 263.438 54.0625 263.438 54.625V55.0938C263.438 55.6016 263.508 56.0703 263.648 56.5C263.797 56.9297 264.004 57.3008 264.27 57.6133C264.543 57.9258 264.871 58.168 265.254 58.3398C265.645 58.5117 266.086 58.5977 266.578 58.5977C267.188 58.5977 267.754 58.4805 268.277 58.2461C268.809 58.0039 269.266 57.6406 269.648 57.1562L271.289 58.9375C271.023 59.3203 270.66 59.6875 270.199 60.0391C269.746 60.3906 269.199 60.6797 268.559 60.9062C267.918 61.125 267.188 61.2344 266.367 61.2344ZM276.867 51.0859V61H273.492V48.3203H276.668L276.867 51.0859ZM280.688 48.2383L280.629 51.3672C280.465 51.3438 280.266 51.3242 280.031 51.3086C279.805 51.2852 279.598 51.2734 279.41 51.2734C278.934 51.2734 278.52 51.3359 278.168 51.4609C277.824 51.5781 277.535 51.7539 277.301 51.9883C277.074 52.2227 276.902 52.5078 276.785 52.8438C276.676 53.1797 276.613 53.5625 276.598 53.9922L275.918 53.7812C275.918 52.9609 276 52.207 276.164 51.5195C276.328 50.8242 276.566 50.2188 276.879 49.7031C277.199 49.1875 277.59 48.7891 278.051 48.5078C278.512 48.2266 279.039 48.0859 279.633 48.0859C279.82 48.0859 280.012 48.1016 280.207 48.1328C280.402 48.1562 280.562 48.1914 280.688 48.2383Z" fill="#888888"/>
<path d="M106.688 119H99.1172L99.1641 112.672H106.688C108.25 112.672 109.57 112.297 110.648 111.547C111.742 110.797 112.57 109.68 113.133 108.195C113.711 106.695 114 104.852 114 102.664V101.188C114 99.5469 113.836 98.1094 113.508 96.875C113.195 95.625 112.727 94.5859 112.102 93.7578C111.477 92.9141 110.695 92.2812 109.758 91.8594C108.836 91.4375 107.773 91.2266 106.57 91.2266H98.9766V84.875H106.57C108.883 84.875 111 85.2734 112.922 86.0703C114.859 86.8516 116.531 87.9766 117.938 89.4453C119.359 90.8984 120.453 92.625 121.219 94.625C122 96.6094 122.391 98.8125 122.391 101.234V102.664C122.391 105.07 122 107.273 121.219 109.273C120.453 111.273 119.367 113 117.961 114.453C116.555 115.906 114.891 117.031 112.969 117.828C111.062 118.609 108.969 119 106.688 119ZM103.828 84.875V119H95.6016V84.875H103.828ZM139.477 112.625V102.172C139.477 101.453 139.375 100.836 139.172 100.32C138.969 99.8047 138.648 99.4062 138.211 99.125C137.773 98.8281 137.188 98.6797 136.453 98.6797C135.859 98.6797 135.352 98.7812 134.93 98.9844C134.508 99.1875 134.188 99.4922 133.969 99.8984C133.75 100.305 133.641 100.82 133.641 101.445H125.742C125.742 100.273 126 99.1875 126.516 98.1875C127.047 97.1719 127.797 96.2891 128.766 95.5391C129.75 94.7891 130.922 94.2109 132.281 93.8047C133.656 93.3828 135.188 93.1719 136.875 93.1719C138.891 93.1719 140.688 93.5078 142.266 94.1797C143.859 94.8516 145.117 95.8594 146.039 97.2031C146.961 98.5312 147.422 100.203 147.422 102.219V112.602C147.422 114.258 147.516 115.516 147.703 116.375C147.891 117.219 148.156 117.961 148.5 118.602V119H140.578C140.203 118.219 139.922 117.266 139.734 116.141C139.562 115 139.477 113.828 139.477 112.625ZM140.438 103.508L140.484 107.727H136.992C136.258 107.727 135.633 107.828 135.117 108.031C134.617 108.234 134.211 108.516 133.898 108.875C133.602 109.219 133.383 109.609 133.242 110.047C133.117 110.484 133.055 110.945 133.055 111.43C133.055 111.898 133.164 112.32 133.383 112.695C133.617 113.055 133.93 113.336 134.32 113.539C134.711 113.742 135.148 113.844 135.633 113.844C136.508 113.844 137.25 113.68 137.859 113.352C138.484 113.008 138.961 112.594 139.289 112.109C139.617 111.625 139.781 111.172 139.781 110.75L141.516 113.984C141.203 114.609 140.844 115.242 140.438 115.883C140.047 116.523 139.555 117.117 138.961 117.664C138.383 118.195 137.672 118.633 136.828 118.977C135.984 119.305 134.961 119.469 133.758 119.469C132.195 119.469 130.758 119.148 129.445 118.508C128.148 117.867 127.109 116.977 126.328 115.836C125.547 114.68 125.156 113.352 125.156 111.852C125.156 110.539 125.391 109.367 125.859 108.336C126.344 107.305 127.07 106.43 128.039 105.711C129.008 104.992 130.242 104.445 131.742 104.07C133.242 103.695 135.008 103.508 137.039 103.508H140.438ZM165.164 93.6406V99.125H149.883V93.6406H165.164ZM153.094 87.3359H160.992V110.727C160.992 111.398 161.07 111.922 161.227 112.297C161.383 112.656 161.648 112.914 162.023 113.07C162.414 113.211 162.93 113.281 163.57 113.281C164.023 113.281 164.398 113.273 164.695 113.258C164.992 113.227 165.273 113.188 165.539 113.141V118.789C164.867 119.008 164.164 119.172 163.43 119.281C162.695 119.406 161.914 119.469 161.086 119.469C159.398 119.469 157.953 119.203 156.75 118.672C155.562 118.141 154.656 117.305 154.031 116.164C153.406 115.023 153.094 113.539 153.094 111.711V87.3359ZM181.477 112.625V102.172C181.477 101.453 181.375 100.836 181.172 100.32C180.969 99.8047 180.648 99.4062 180.211 99.125C179.773 98.8281 179.188 98.6797 178.453 98.6797C177.859 98.6797 177.352 98.7812 176.93 98.9844C176.508 99.1875 176.188 99.4922 175.969 99.8984C175.75 100.305 175.641 100.82 175.641 101.445H167.742C167.742 100.273 168 99.1875 168.516 98.1875C169.047 97.1719 169.797 96.2891 170.766 95.5391C171.75 94.7891 172.922 94.2109 174.281 93.8047C175.656 93.3828 177.188 93.1719 178.875 93.1719C180.891 93.1719 182.688 93.5078 184.266 94.1797C185.859 94.8516 187.117 95.8594 188.039 97.2031C188.961 98.5312 189.422 100.203 189.422 102.219V112.602C189.422 114.258 189.516 115.516 189.703 116.375C189.891 117.219 190.156 117.961 190.5 118.602V119H182.578C182.203 118.219 181.922 117.266 181.734 116.141C181.562 115 181.477 113.828 181.477 112.625ZM182.438 103.508L182.484 107.727H178.992C178.258 107.727 177.633 107.828 177.117 108.031C176.617 108.234 176.211 108.516 175.898 108.875C175.602 109.219 175.383 109.609 175.242 110.047C175.117 110.484 175.055 110.945 175.055 111.43C175.055 111.898 175.164 112.32 175.383 112.695C175.617 113.055 175.93 113.336 176.32 113.539C176.711 113.742 177.148 113.844 177.633 113.844C178.508 113.844 179.25 113.68 179.859 113.352C180.484 113.008 180.961 112.594 181.289 112.109C181.617 111.625 181.781 111.172 181.781 110.75L183.516 113.984C183.203 114.609 182.844 115.242 182.438 115.883C182.047 116.523 181.555 117.117 180.961 117.664C180.383 118.195 179.672 118.633 178.828 118.977C177.984 119.305 176.961 119.469 175.758 119.469C174.195 119.469 172.758 119.148 171.445 118.508C170.148 117.867 169.109 116.977 168.328 115.836C167.547 114.68 167.156 113.352 167.156 111.852C167.156 110.539 167.391 109.367 167.859 108.336C168.344 107.305 169.07 106.43 170.039 105.711C171.008 104.992 172.242 104.445 173.742 104.07C175.242 103.695 177.008 103.508 179.039 103.508H182.438ZM193.875 83H201.773V112.766L200.953 119H193.875V83ZM217.336 106.039V106.531C217.336 108.453 217.141 110.203 216.75 111.781C216.359 113.359 215.758 114.727 214.945 115.883C214.133 117.023 213.109 117.906 211.875 118.531C210.641 119.156 209.18 119.469 207.492 119.469C205.961 119.469 204.648 119.141 203.555 118.484C202.461 117.812 201.547 116.891 200.812 115.719C200.078 114.531 199.484 113.164 199.031 111.617C198.578 110.055 198.219 108.383 197.953 106.602V106.016C198.219 104.25 198.578 102.594 199.031 101.047C199.484 99.4844 200.078 98.1172 200.812 96.9453C201.547 95.7578 202.453 94.8359 203.531 94.1797C204.625 93.5078 205.93 93.1719 207.445 93.1719C209.148 93.1719 210.617 93.4922 211.852 94.1328C213.102 94.7734 214.133 95.6719 214.945 96.8281C215.758 97.9844 216.359 99.3438 216.75 100.906C217.141 102.469 217.336 104.18 217.336 106.039ZM209.438 106.531V106.039C209.438 105.117 209.383 104.25 209.273 103.438C209.164 102.625 208.969 101.906 208.688 101.281C208.406 100.656 208.008 100.164 207.492 99.8047C206.977 99.4453 206.305 99.2656 205.477 99.2656C204.633 99.2656 203.922 99.4062 203.344 99.6875C202.781 99.9688 202.328 100.375 201.984 100.906C201.656 101.422 201.422 102.062 201.281 102.828C201.141 103.578 201.078 104.43 201.094 105.383V107.234C201.062 108.531 201.18 109.641 201.445 110.562C201.711 111.484 202.172 112.188 202.828 112.672C203.484 113.156 204.383 113.398 205.523 113.398C206.367 113.398 207.047 113.234 207.562 112.906C208.094 112.578 208.492 112.109 208.758 111.5C209.023 110.891 209.203 110.164 209.297 109.32C209.391 108.477 209.438 107.547 209.438 106.531ZM234.023 112.625V102.172C234.023 101.453 233.922 100.836 233.719 100.32C233.516 99.8047 233.195 99.4062 232.758 99.125C232.32 98.8281 231.734 98.6797 231 98.6797C230.406 98.6797 229.898 98.7812 229.477 98.9844C229.055 99.1875 228.734 99.4922 228.516 99.8984C228.297 100.305 228.188 100.82 228.188 101.445H220.289C220.289 100.273 220.547 99.1875 221.062 98.1875C221.594 97.1719 222.344 96.2891 223.312 95.5391C224.297 94.7891 225.469 94.2109 226.828 93.8047C228.203 93.3828 229.734 93.1719 231.422 93.1719C233.438 93.1719 235.234 93.5078 236.812 94.1797C238.406 94.8516 239.664 95.8594 240.586 97.2031C241.508 98.5312 241.969 100.203 241.969 102.219V112.602C241.969 114.258 242.062 115.516 242.25 116.375C242.438 117.219 242.703 117.961 243.047 118.602V119H235.125C234.75 118.219 234.469 117.266 234.281 116.141C234.109 115 234.023 113.828 234.023 112.625ZM234.984 103.508L235.031 107.727H231.539C230.805 107.727 230.18 107.828 229.664 108.031C229.164 108.234 228.758 108.516 228.445 108.875C228.148 109.219 227.93 109.609 227.789 110.047C227.664 110.484 227.602 110.945 227.602 111.43C227.602 111.898 227.711 112.32 227.93 112.695C228.164 113.055 228.477 113.336 228.867 113.539C229.258 113.742 229.695 113.844 230.18 113.844C231.055 113.844 231.797 113.68 232.406 113.352C233.031 113.008 233.508 112.594 233.836 112.109C234.164 111.625 234.328 111.172 234.328 110.75L236.062 113.984C235.75 114.609 235.391 115.242 234.984 115.883C234.594 116.523 234.102 117.117 233.508 117.664C232.93 118.195 232.219 118.633 231.375 118.977C230.531 119.305 229.508 119.469 228.305 119.469C226.742 119.469 225.305 119.148 223.992 118.508C222.695 117.867 221.656 116.977 220.875 115.836C220.094 114.68 219.703 113.352 219.703 111.852C219.703 110.539 219.938 109.367 220.406 108.336C220.891 107.305 221.617 106.43 222.586 105.711C223.555 104.992 224.789 104.445 226.289 104.07C227.789 103.695 229.555 103.508 231.586 103.508H234.984ZM259.641 111.875C259.641 111.438 259.492 111.062 259.195 110.75C258.914 110.422 258.414 110.125 257.695 109.859C256.977 109.578 255.969 109.297 254.672 109.016C253.438 108.75 252.273 108.398 251.18 107.961C250.102 107.523 249.156 106.992 248.344 106.367C247.531 105.742 246.891 105 246.422 104.141C245.969 103.281 245.742 102.297 245.742 101.188C245.742 100.109 245.969 99.0938 246.422 98.1406C246.891 97.1719 247.57 96.3203 248.461 95.5859C249.367 94.8359 250.469 94.25 251.766 93.8281C253.062 93.3906 254.539 93.1719 256.195 93.1719C258.477 93.1719 260.445 93.5234 262.102 94.2266C263.758 94.9141 265.031 95.8828 265.922 97.1328C266.828 98.3672 267.281 99.7969 267.281 101.422H259.383C259.383 100.781 259.273 100.234 259.055 99.7812C258.852 99.3281 258.516 98.9844 258.047 98.75C257.578 98.5 256.953 98.375 256.172 98.375C255.625 98.375 255.125 98.4766 254.672 98.6797C254.234 98.8828 253.883 99.1641 253.617 99.5234C253.352 99.8828 253.219 100.305 253.219 100.789C253.219 101.133 253.297 101.445 253.453 101.727C253.625 101.992 253.883 102.242 254.227 102.477C254.57 102.695 255.008 102.898 255.539 103.086C256.07 103.258 256.711 103.414 257.461 103.555C259.164 103.867 260.758 104.312 262.242 104.891C263.727 105.469 264.93 106.289 265.852 107.352C266.789 108.414 267.258 109.844 267.258 111.641C267.258 112.766 267 113.805 266.484 114.758C265.969 115.695 265.227 116.523 264.258 117.242C263.289 117.945 262.125 118.492 260.766 118.883C259.406 119.273 257.875 119.469 256.172 119.469C253.75 119.469 251.703 119.039 250.031 118.18C248.359 117.305 247.094 116.211 246.234 114.898C245.391 113.57 244.969 112.227 244.969 110.867H252.328C252.359 111.648 252.547 112.289 252.891 112.789C253.25 113.289 253.727 113.656 254.32 113.891C254.914 114.125 255.602 114.242 256.383 114.242C257.102 114.242 257.695 114.141 258.164 113.938C258.648 113.734 259.016 113.461 259.266 113.117C259.516 112.758 259.641 112.344 259.641 111.875ZM283.242 119.469C281.18 119.469 279.336 119.148 277.711 118.508C276.086 117.852 274.711 116.953 273.586 115.812C272.477 114.672 271.625 113.359 271.031 111.875C270.453 110.391 270.164 108.82 270.164 107.164V106.273C270.164 104.414 270.422 102.695 270.938 101.117C271.453 99.5234 272.219 98.1328 273.234 96.9453C274.25 95.7578 275.523 94.8359 277.055 94.1797C278.586 93.5078 280.367 93.1719 282.398 93.1719C284.195 93.1719 285.805 93.4609 287.227 94.0391C288.648 94.6172 289.852 95.4453 290.836 96.5234C291.836 97.6016 292.594 98.9062 293.109 100.438C293.641 101.969 293.906 103.688 293.906 105.594V108.805H273.188V103.859H286.195V103.25C286.211 102.406 286.062 101.688 285.75 101.094C285.453 100.5 285.016 100.047 284.438 99.7344C283.859 99.4219 283.156 99.2656 282.328 99.2656C281.469 99.2656 280.758 99.4531 280.195 99.8281C279.648 100.203 279.219 100.719 278.906 101.375C278.609 102.016 278.398 102.758 278.273 103.602C278.148 104.445 278.086 105.336 278.086 106.273V107.164C278.086 108.102 278.211 108.953 278.461 109.719C278.727 110.484 279.102 111.141 279.586 111.688C280.086 112.219 280.68 112.633 281.367 112.93C282.07 113.227 282.867 113.375 283.758 113.375C284.836 113.375 285.898 113.172 286.945 112.766C287.992 112.359 288.891 111.688 289.641 110.75L293.227 115.016C292.711 115.75 291.977 116.461 291.023 117.148C290.086 117.836 288.961 118.398 287.648 118.836C286.336 119.258 284.867 119.469 283.242 119.469ZM320.531 119H312.961L313.008 112.672H320.531C322.094 112.672 323.414 112.297 324.492 111.547C325.586 110.797 326.414 109.68 326.977 108.195C327.555 106.695 327.844 104.852 327.844 102.664V101.188C327.844 99.5469 327.68 98.1094 327.352 96.875C327.039 95.625 326.57 94.5859 325.945 93.7578C325.32 92.9141 324.539 92.2812 323.602 91.8594C322.68 91.4375 321.617 91.2266 320.414 91.2266H312.82V84.875H320.414C322.727 84.875 324.844 85.2734 326.766 86.0703C328.703 86.8516 330.375 87.9766 331.781 89.4453C333.203 90.8984 334.297 92.625 335.062 94.625C335.844 96.6094 336.234 98.8125 336.234 101.234V102.664C336.234 105.07 335.844 107.273 335.062 109.273C334.297 111.273 333.211 113 331.805 114.453C330.398 115.906 328.734 117.031 326.812 117.828C324.906 118.609 322.812 119 320.531 119ZM317.672 84.875V119H309.445V84.875H317.672ZM352.43 119.469C350.367 119.469 348.523 119.148 346.898 118.508C345.273 117.852 343.898 116.953 342.773 115.812C341.664 114.672 340.812 113.359 340.219 111.875C339.641 110.391 339.352 108.82 339.352 107.164V106.273C339.352 104.414 339.609 102.695 340.125 101.117C340.641 99.5234 341.406 98.1328 342.422 96.9453C343.438 95.7578 344.711 94.8359 346.242 94.1797C347.773 93.5078 349.555 93.1719 351.586 93.1719C353.383 93.1719 354.992 93.4609 356.414 94.0391C357.836 94.6172 359.039 95.4453 360.023 96.5234C361.023 97.6016 361.781 98.9062 362.297 100.438C362.828 101.969 363.094 103.688 363.094 105.594V108.805H342.375V103.859H355.383V103.25C355.398 102.406 355.25 101.688 354.938 101.094C354.641 100.5 354.203 100.047 353.625 99.7344C353.047 99.4219 352.344 99.2656 351.516 99.2656C350.656 99.2656 349.945 99.4531 349.383 99.8281C348.836 100.203 348.406 100.719 348.094 101.375C347.797 102.016 347.586 102.758 347.461 103.602C347.336 104.445 347.273 105.336 347.273 106.273V107.164C347.273 108.102 347.398 108.953 347.648 109.719C347.914 110.484 348.289 111.141 348.773 111.688C349.273 112.219 349.867 112.633 350.555 112.93C351.258 113.227 352.055 113.375 352.945 113.375C354.023 113.375 355.086 113.172 356.133 112.766C357.18 112.359 358.078 111.688 358.828 110.75L362.414 115.016C361.898 115.75 361.164 116.461 360.211 117.148C359.273 117.836 358.148 118.398 356.836 118.836C355.523 119.258 354.055 119.469 352.43 119.469ZM379.594 111.875C379.594 111.438 379.445 111.062 379.148 110.75C378.867 110.422 378.367 110.125 377.648 109.859C376.93 109.578 375.922 109.297 374.625 109.016C373.391 108.75 372.227 108.398 371.133 107.961C370.055 107.523 369.109 106.992 368.297 106.367C367.484 105.742 366.844 105 366.375 104.141C365.922 103.281 365.695 102.297 365.695 101.188C365.695 100.109 365.922 99.0938 366.375 98.1406C366.844 97.1719 367.523 96.3203 368.414 95.5859C369.32 94.8359 370.422 94.25 371.719 93.8281C373.016 93.3906 374.492 93.1719 376.148 93.1719C378.43 93.1719 380.398 93.5234 382.055 94.2266C383.711 94.9141 384.984 95.8828 385.875 97.1328C386.781 98.3672 387.234 99.7969 387.234 101.422H379.336C379.336 100.781 379.227 100.234 379.008 99.7812C378.805 99.3281 378.469 98.9844 378 98.75C377.531 98.5 376.906 98.375 376.125 98.375C375.578 98.375 375.078 98.4766 374.625 98.6797C374.188 98.8828 373.836 99.1641 373.57 99.5234C373.305 99.8828 373.172 100.305 373.172 100.789C373.172 101.133 373.25 101.445 373.406 101.727C373.578 101.992 373.836 102.242 374.18 102.477C374.523 102.695 374.961 102.898 375.492 103.086C376.023 103.258 376.664 103.414 377.414 103.555C379.117 103.867 380.711 104.312 382.195 104.891C383.68 105.469 384.883 106.289 385.805 107.352C386.742 108.414 387.211 109.844 387.211 111.641C387.211 112.766 386.953 113.805 386.438 114.758C385.922 115.695 385.18 116.523 384.211 117.242C383.242 117.945 382.078 118.492 380.719 118.883C379.359 119.273 377.828 119.469 376.125 119.469C373.703 119.469 371.656 119.039 369.984 118.18C368.312 117.305 367.047 116.211 366.188 114.898C365.344 113.57 364.922 112.227 364.922 110.867H372.281C372.312 111.648 372.5 112.289 372.844 112.789C373.203 113.289 373.68 113.656 374.273 113.891C374.867 114.125 375.555 114.242 376.336 114.242C377.055 114.242 377.648 114.141 378.117 113.938C378.602 113.734 378.969 113.461 379.219 113.117C379.469 112.758 379.594 112.344 379.594 111.875ZM399.258 93.6406V119H391.336V93.6406H399.258ZM390.867 87.1016C390.867 85.9766 391.273 85.0547 392.086 84.3359C392.898 83.6172 393.953 83.2578 395.25 83.2578C396.547 83.2578 397.602 83.6172 398.414 84.3359C399.227 85.0547 399.633 85.9766 399.633 87.1016C399.633 88.2266 399.227 89.1484 398.414 89.8672C397.602 90.5859 396.547 90.9453 395.25 90.9453C393.953 90.9453 392.898 90.5859 392.086 89.8672C391.273 89.1484 390.867 88.2266 390.867 87.1016ZM420.07 93.6406H427.242V118.016C427.242 120.359 426.703 122.344 425.625 123.969C424.547 125.609 423.039 126.852 421.102 127.695C419.18 128.555 416.93 128.984 414.352 128.984C413.211 128.984 412.047 128.836 410.859 128.539C409.672 128.258 408.562 127.836 407.531 127.273C406.5 126.711 405.633 126.016 404.93 125.188L408.234 120.547C408.875 121.266 409.68 121.875 410.648 122.375C411.617 122.891 412.758 123.148 414.07 123.148C415.211 123.148 416.164 122.945 416.93 122.539C417.711 122.133 418.305 121.539 418.711 120.758C419.117 119.992 419.32 119.062 419.32 117.969V99.6406L420.07 93.6406ZM403.219 106.625V106.133C403.219 104.211 403.453 102.461 403.922 100.883C404.406 99.2891 405.094 97.9219 405.984 96.7812C406.891 95.625 407.984 94.7344 409.266 94.1094C410.547 93.4844 411.992 93.1719 413.602 93.1719C415.336 93.1719 416.758 93.5078 417.867 94.1797C418.992 94.8359 419.891 95.7578 420.562 96.9453C421.25 98.1328 421.781 99.5234 422.156 101.117C422.547 102.695 422.875 104.398 423.141 106.227V106.812C422.875 108.531 422.508 110.156 422.039 111.688C421.586 113.203 420.992 114.547 420.258 115.719C419.523 116.891 418.602 117.812 417.492 118.484C416.398 119.141 415.086 119.469 413.555 119.469C411.961 119.469 410.523 119.148 409.242 118.508C407.977 117.867 406.891 116.969 405.984 115.812C405.094 114.656 404.406 113.297 403.922 111.734C403.453 110.172 403.219 108.469 403.219 106.625ZM411.117 106.133V106.625C411.117 107.578 411.203 108.461 411.375 109.273C411.562 110.086 411.844 110.805 412.219 111.43C412.594 112.039 413.055 112.516 413.602 112.859C414.164 113.203 414.82 113.375 415.57 113.375C416.711 113.375 417.633 113.133 418.336 112.648C419.039 112.164 419.547 111.477 419.859 110.586C420.172 109.695 420.305 108.648 420.258 107.445V105.594C420.289 104.562 420.219 103.656 420.047 102.875C419.875 102.078 419.602 101.414 419.227 100.883C418.867 100.352 418.383 99.9531 417.773 99.6875C417.18 99.4062 416.461 99.2656 415.617 99.2656C414.883 99.2656 414.234 99.4375 413.672 99.7812C413.109 100.125 412.641 100.609 412.266 101.234C411.891 101.844 411.602 102.57 411.398 103.414C411.211 104.242 411.117 105.148 411.117 106.133ZM439.547 99.0547V119H431.648V93.6406H439.055L439.547 99.0547ZM438.609 105.453L436.758 105.5C436.758 103.562 436.992 101.836 437.461 100.32C437.93 98.7891 438.594 97.4922 439.453 96.4297C440.312 95.3672 441.336 94.5625 442.523 94.0156C443.727 93.4531 445.062 93.1719 446.531 93.1719C447.703 93.1719 448.773 93.3438 449.742 93.6875C450.727 94.0312 451.57 94.5859 452.273 95.3516C452.992 96.1172 453.539 97.1328 453.914 98.3984C454.305 99.6484 454.5 101.195 454.5 103.039V119H446.555V103.016C446.555 102 446.414 101.227 446.133 100.695C445.852 100.148 445.445 99.7734 444.914 99.5703C444.383 99.3672 443.734 99.2656 442.969 99.2656C442.156 99.2656 441.469 99.4219 440.906 99.7344C440.344 100.047 439.891 100.484 439.547 101.047C439.219 101.594 438.977 102.242 438.82 102.992C438.68 103.742 438.609 104.562 438.609 105.453Z" fill="black"/>
<path d="M1134 0H1348C1356.28 0 1363 6.71573 1363 15V148C1363 156.284 1356.28 163 1348 163H1134V0Z" fill="#1E6673"/>
<path d="M1217.58 64.1667C1217.58 66.0281 1218.51 67.7419 1220.09 69.2434C1221.67 70.7429 1223.94 72.0619 1226.71 73.1553C1232.26 75.343 1239.93 76.6667 1248.5 76.6667C1257.07 76.6667 1264.74 75.343 1270.29 73.1553C1273.06 72.0619 1275.33 70.7429 1276.91 69.2434C1278.49 67.7419 1279.42 66.0281 1279.42 64.1667C1279.42 62.3052 1278.49 60.5914 1276.91 59.0899C1275.33 57.5904 1273.06 56.2714 1270.29 55.178C1264.74 52.9903 1257.07 51.6667 1248.5 51.6667C1239.93 51.6667 1232.26 52.9903 1226.71 55.178C1223.94 56.2714 1221.67 57.5904 1220.09 59.0899C1218.51 60.5914 1217.58 62.3052 1217.58 64.1667ZM1221.62 64.1667C1221.62 63.0283 1222.37 61.8878 1223.88 60.7921C1225.37 59.7041 1227.52 58.7293 1230.11 57.9144C1235.28 56.2864 1242.07 55.3333 1248.5 55.3333C1254.93 55.3333 1261.72 56.2864 1266.89 57.9144C1269.48 58.7293 1271.63 59.7041 1273.12 60.7921C1274.63 61.8878 1275.37 63.0283 1275.37 64.1667C1275.37 65.305 1274.63 66.4455 1273.12 67.5412C1271.63 68.6292 1269.48 69.604 1266.89 70.4189C1261.72 72.0469 1254.93 73 1248.5 73C1242.07 73 1235.28 72.0469 1230.11 70.4189C1227.52 69.604 1225.37 68.6292 1223.88 67.5412C1222.37 66.4455 1221.62 65.305 1221.62 64.1667Z" fill="white" stroke="white"/>
<path d="M1217.58 74.8333C1217.58 76.6948 1218.51 78.4086 1220.09 79.9101C1221.67 81.4096 1223.94 82.7286 1226.71 83.822C1232.26 86.0097 1239.93 87.3333 1248.5 87.3333C1257.07 87.3333 1264.74 86.0097 1270.29 83.822C1273.06 82.7286 1275.33 81.4096 1276.91 79.9101C1278.49 78.4086 1279.42 76.6948 1279.42 74.8333V64.1667C1279.42 63.6576 1279.19 63.1851 1278.8 62.8479C1278.42 62.5126 1277.91 62.3333 1277.4 62.3333C1276.88 62.3333 1276.37 62.5126 1275.99 62.8479C1275.61 63.1851 1275.37 63.6576 1275.37 64.1667V74.8333C1275.37 75.9717 1274.63 77.1122 1273.12 78.2079C1271.63 79.2959 1269.48 80.2707 1266.89 81.0856C1261.72 82.7136 1254.93 83.6667 1248.5 83.6667C1242.07 83.6667 1235.28 82.7136 1230.11 81.0856C1227.52 80.2707 1225.37 79.2959 1223.88 78.2079C1222.37 77.1122 1221.62 75.9717 1221.62 74.8333V64.1667C1221.62 63.6576 1221.39 63.1851 1221.01 62.8479C1220.63 62.5126 1220.12 62.3333 1219.6 62.3333C1219.09 62.3333 1218.58 62.5126 1218.2 62.8479C1217.81 63.1851 1217.58 63.6576 1217.58 64.1667V74.8333Z" fill="white" stroke="white"/>
<path d="M1217.58 86.8333C1217.58 88.6948 1218.51 90.4086 1220.09 91.9101C1221.67 93.4095 1223.94 94.7286 1226.71 95.8219C1232.26 98.0097 1239.93 99.3333 1248.5 99.3333C1257.07 99.3333 1264.74 98.0097 1270.29 95.8219C1273.06 94.7286 1275.33 93.4095 1276.91 91.9101C1278.49 90.4086 1279.42 88.6948 1279.42 86.8333V74.8333C1279.42 74.3243 1279.19 73.8517 1278.8 73.5146C1278.42 73.1792 1277.91 73 1277.4 73C1276.88 73 1276.37 73.1792 1275.99 73.5146C1275.61 73.8517 1275.37 74.3243 1275.37 74.8333V86.8333C1275.37 87.9717 1274.63 89.1122 1273.12 90.2079C1271.63 91.2958 1269.48 92.2707 1266.89 93.0856C1261.72 94.7136 1254.93 95.6667 1248.5 95.6667C1242.07 95.6667 1235.28 94.7136 1230.11 93.0856C1227.52 92.2707 1225.37 91.2958 1223.88 90.2079C1222.37 89.1122 1221.62 87.9717 1221.62 86.8333V74.8333C1221.62 74.3243 1221.39 73.8517 1221.01 73.5146C1220.63 73.1792 1220.12 73 1219.6 73C1219.09 73 1218.58 73.1792 1218.2 73.5146C1217.81 73.8517 1217.58 74.3243 1217.58 74.8333V86.8333Z" fill="white" stroke="white"/>
<path d="M1217.58 98.8333C1217.58 100.695 1218.51 102.409 1220.09 103.91C1221.67 105.41 1223.94 106.729 1226.71 107.822C1232.26 110.01 1239.93 111.333 1248.5 111.333C1257.07 111.333 1264.74 110.01 1270.29 107.822C1273.06 106.729 1275.33 105.41 1276.91 103.91C1278.49 102.409 1279.42 100.695 1279.42 98.8333V86.8333C1279.42 86.3243 1279.19 85.8517 1278.8 85.5146C1278.42 85.1792 1277.91 85 1277.4 85C1276.88 85 1276.37 85.1792 1275.99 85.5146C1275.61 85.8517 1275.37 86.3243 1275.37 86.8333V98.8333C1275.37 99.9717 1274.63 101.112 1273.12 102.208C1271.63 103.296 1269.48 104.271 1266.89 105.086C1261.72 106.714 1254.93 107.667 1248.5 107.667C1242.07 107.667 1235.28 106.714 1230.11 105.086C1227.52 104.271 1225.37 103.296 1223.88 102.208C1222.37 101.112 1221.62 99.9717 1221.62 98.8333V86.8333C1221.62 86.3243 1221.39 85.8517 1221.01 85.5146C1220.63 85.1792 1220.12 85 1219.6 85C1219.09 85 1218.58 85.1792 1218.2 85.5146C1217.81 85.8517 1217.58 86.3243 1217.58 86.8333V98.8333Z" fill="white" stroke="white"/>
</svg>
