<svg width="1363" height="163" viewBox="0 0 1363 163" fill="none" xmlns="http://www.w3.org/2000/svg">
<path d="M0 15C0 6.71573 6.71573 0 15 0H37V163H15C6.71573 163 0 156.284 0 148V15Z" fill="#424242"/>
<rect width="1097" height="163" transform="translate(37)" fill="#F0F0F0"/>
<path d="M101.906 53.9219L94.3945 51.2383V48.0859L104.602 52.375V54.6367L101.906 53.9219ZM94.3945 56.1719L101.918 53.4297L104.602 52.7852V55.0352L94.3945 59.3242V56.1719ZM117.012 58.293L120.41 43.9375H122.309L122.742 46.3281L119.121 61H117.082L117.012 58.293ZM115.266 43.9375L118.078 58.293L117.844 61H115.57L111.785 43.9375H115.266ZM125.73 58.2344L128.508 43.9375H131.988L128.215 61H125.941L125.73 58.2344ZM123.375 43.9375L126.797 58.3516L126.703 61H124.664L121.02 46.3164L121.488 43.9375H123.375ZM139.148 61.2344C138.164 61.2344 137.281 61.0781 136.5 60.7656C135.719 60.4453 135.055 60.0039 134.508 59.4414C133.969 58.8789 133.555 58.2266 133.266 57.4844C132.977 56.7344 132.832 55.9375 132.832 55.0938V54.625C132.832 53.6641 132.969 52.7852 133.242 51.9883C133.516 51.1914 133.906 50.5 134.414 49.9141C134.93 49.3281 135.555 48.8789 136.289 48.5664C137.023 48.2461 137.852 48.0859 138.773 48.0859C139.672 48.0859 140.469 48.2344 141.164 48.5312C141.859 48.8281 142.441 49.25 142.91 49.7969C143.387 50.3438 143.746 51 143.988 51.7656C144.23 52.5234 144.352 53.3672 144.352 54.2969V55.7031H134.273V53.4531H141.035V53.1953C141.035 52.7266 140.949 52.3086 140.777 51.9414C140.613 51.5664 140.363 51.2695 140.027 51.0508C139.691 50.832 139.262 50.7227 138.738 50.7227C138.293 50.7227 137.91 50.8203 137.59 51.0156C137.27 51.2109 137.008 51.4844 136.805 51.8359C136.609 52.1875 136.461 52.6016 136.359 53.0781C136.266 53.5469 136.219 54.0625 136.219 54.625V55.0938C136.219 55.6016 136.289 56.0703 136.43 56.5C136.578 56.9297 136.785 57.3008 137.051 57.6133C137.324 57.9258 137.652 58.168 138.035 58.3398C138.426 58.5117 138.867 58.5977 139.359 58.5977C139.969 58.5977 140.535 58.4805 141.059 58.2461C141.59 58.0039 142.047 57.6406 142.43 57.1562L144.07 58.9375C143.805 59.3203 143.441 59.6875 142.98 60.0391C142.527 60.3906 141.98 60.6797 141.34 60.9062C140.699 61.125 139.969 61.2344 139.148 61.2344ZM146.273 43H149.648V58.0938L149.309 61H146.273V43ZM157.676 54.5312V54.7773C157.676 55.7227 157.574 56.5898 157.371 57.3789C157.176 58.168 156.871 58.8516 156.457 59.4297C156.043 60 155.527 60.4453 154.91 60.7656C154.301 61.0781 153.582 61.2344 152.754 61.2344C151.98 61.2344 151.309 61.0781 150.738 60.7656C150.176 60.4531 149.703 60.0117 149.32 59.4414C148.938 58.8711 148.629 58.2031 148.395 57.4375C148.16 56.6719 147.984 55.8359 147.867 54.9297V54.3906C147.984 53.4844 148.16 52.6484 148.395 51.8828C148.629 51.1172 148.938 50.4492 149.32 49.8789C149.703 49.3086 150.176 48.8672 150.738 48.5547C151.301 48.2422 151.965 48.0859 152.73 48.0859C153.566 48.0859 154.293 48.2461 154.91 48.5664C155.535 48.8789 156.051 49.3242 156.457 49.9023C156.871 50.4727 157.176 51.1523 157.371 51.9414C157.574 52.7227 157.676 53.5859 157.676 54.5312ZM154.301 54.7773V54.5312C154.301 54.0156 154.262 53.5312 154.184 53.0781C154.113 52.6172 153.988 52.2148 153.809 51.8711C153.629 51.5195 153.383 51.2422 153.07 51.0391C152.766 50.8359 152.371 50.7344 151.887 50.7344C151.426 50.7344 151.035 50.8125 150.715 50.9688C150.395 51.125 150.129 51.3438 149.918 51.625C149.715 51.9062 149.562 52.2422 149.461 52.6328C149.359 53.0156 149.297 53.4375 149.273 53.8984V55.4336C149.297 56.0508 149.398 56.5977 149.578 57.0742C149.766 57.543 150.047 57.9141 150.422 58.1875C150.805 58.4531 151.301 58.5859 151.91 58.5859C152.387 58.5859 152.781 58.4922 153.094 58.3047C153.406 58.1172 153.648 57.8516 153.82 57.5078C154 57.1641 154.125 56.7617 154.195 56.3008C154.266 55.832 154.301 55.3242 154.301 54.7773ZM166.629 57.4961C166.629 57.2539 166.559 57.0352 166.418 56.8398C166.277 56.6445 166.016 56.4648 165.633 56.3008C165.258 56.1289 164.715 55.9727 164.004 55.832C163.363 55.6914 162.766 55.5156 162.211 55.3047C161.664 55.0859 161.188 54.8242 160.781 54.5195C160.383 54.2148 160.07 53.8555 159.844 53.4414C159.617 53.0195 159.504 52.5391 159.504 52C159.504 51.4688 159.617 50.9688 159.844 50.5C160.078 50.0312 160.41 49.6172 160.84 49.2578C161.277 48.8906 161.809 48.6055 162.434 48.4023C163.066 48.1914 163.777 48.0859 164.566 48.0859C165.668 48.0859 166.613 48.2617 167.402 48.6133C168.199 48.9648 168.809 49.4492 169.23 50.0664C169.66 50.6758 169.875 51.3711 169.875 52.1523H166.5C166.5 51.8242 166.43 51.5312 166.289 51.2734C166.156 51.0078 165.945 50.8008 165.656 50.6523C165.375 50.4961 165.008 50.418 164.555 50.418C164.18 50.418 163.855 50.4844 163.582 50.6172C163.309 50.7422 163.098 50.9141 162.949 51.1328C162.809 51.3438 162.738 51.5781 162.738 51.8359C162.738 52.0312 162.777 52.207 162.855 52.3633C162.941 52.5117 163.078 52.6484 163.266 52.7734C163.453 52.8984 163.695 53.0156 163.992 53.125C164.297 53.2266 164.672 53.3203 165.117 53.4062C166.031 53.5938 166.848 53.8398 167.566 54.1445C168.285 54.4414 168.855 54.8477 169.277 55.3633C169.699 55.8711 169.91 56.5391 169.91 57.3672C169.91 57.9297 169.785 58.4453 169.535 58.9141C169.285 59.3828 168.926 59.793 168.457 60.1445C167.988 60.4883 167.426 60.7578 166.77 60.9531C166.121 61.1406 165.391 61.2344 164.578 61.2344C163.398 61.2344 162.398 61.0234 161.578 60.6016C160.766 60.1797 160.148 59.6445 159.727 58.9961C159.312 58.3398 159.105 57.668 159.105 56.9805H162.305C162.32 57.4414 162.438 57.8125 162.656 58.0938C162.883 58.375 163.168 58.5781 163.512 58.7031C163.863 58.8281 164.242 58.8906 164.648 58.8906C165.086 58.8906 165.449 58.832 165.738 58.7148C166.027 58.5898 166.246 58.4258 166.395 58.2227C166.551 58.0117 166.629 57.7695 166.629 57.4961ZM175.664 48.3203V61H172.277V48.3203H175.664ZM172.066 45.0156C172.066 44.5234 172.238 44.1172 172.582 43.7969C172.926 43.4766 173.387 43.3164 173.965 43.3164C174.535 43.3164 174.992 43.4766 175.336 43.7969C175.688 44.1172 175.863 44.5234 175.863 45.0156C175.863 45.5078 175.688 45.9141 175.336 46.2344C174.992 46.5547 174.535 46.7148 173.965 46.7148C173.387 46.7148 172.926 46.5547 172.582 46.2344C172.238 45.9141 172.066 45.5078 172.066 45.0156ZM184.664 48.3203V50.7109H177.281V48.3203H184.664ZM179.109 45.1914H182.484V57.1797C182.484 57.5469 182.531 57.8281 182.625 58.0234C182.727 58.2188 182.875 58.3555 183.07 58.4336C183.266 58.5039 183.512 58.5391 183.809 58.5391C184.02 58.5391 184.207 58.5312 184.371 58.5156C184.543 58.4922 184.688 58.4688 184.805 58.4453L184.816 60.9297C184.527 61.0234 184.215 61.0977 183.879 61.1523C183.543 61.207 183.172 61.2344 182.766 61.2344C182.023 61.2344 181.375 61.1133 180.82 60.8711C180.273 60.6211 179.852 60.2227 179.555 59.6758C179.258 59.1289 179.109 58.4102 179.109 57.5195V45.1914ZM192.422 61.2344C191.438 61.2344 190.555 61.0781 189.773 60.7656C188.992 60.4453 188.328 60.0039 187.781 59.4414C187.242 58.8789 186.828 58.2266 186.539 57.4844C186.25 56.7344 186.105 55.9375 186.105 55.0938V54.625C186.105 53.6641 186.242 52.7852 186.516 51.9883C186.789 51.1914 187.18 50.5 187.688 49.9141C188.203 49.3281 188.828 48.8789 189.562 48.5664C190.297 48.2461 191.125 48.0859 192.047 48.0859C192.945 48.0859 193.742 48.2344 194.438 48.5312C195.133 48.8281 195.715 49.25 196.184 49.7969C196.66 50.3438 197.02 51 197.262 51.7656C197.504 52.5234 197.625 53.3672 197.625 54.2969V55.7031H187.547V53.4531H194.309V53.1953C194.309 52.7266 194.223 52.3086 194.051 51.9414C193.887 51.5664 193.637 51.2695 193.301 51.0508C192.965 50.832 192.535 50.7227 192.012 50.7227C191.566 50.7227 191.184 50.8203 190.863 51.0156C190.543 51.2109 190.281 51.4844 190.078 51.8359C189.883 52.1875 189.734 52.6016 189.633 53.0781C189.539 53.5469 189.492 54.0625 189.492 54.625V55.0938C189.492 55.6016 189.562 56.0703 189.703 56.5C189.852 56.9297 190.059 57.3008 190.324 57.6133C190.598 57.9258 190.926 58.168 191.309 58.3398C191.699 58.5117 192.141 58.5977 192.633 58.5977C193.242 58.5977 193.809 58.4805 194.332 58.2461C194.863 58.0039 195.32 57.6406 195.703 57.1562L197.344 58.9375C197.078 59.3203 196.715 59.6875 196.254 60.0391C195.801 60.3906 195.254 60.6797 194.613 60.9062C193.973 61.125 193.242 61.2344 192.422 61.2344ZM212.414 53.5117H208.031L208.008 51.0977H211.688C212.336 51.0977 212.867 51.0156 213.281 50.8516C213.695 50.6797 214.004 50.4336 214.207 50.1133C214.418 49.7852 214.523 49.3867 214.523 48.918C214.523 48.3867 214.422 47.957 214.219 47.6289C214.023 47.3008 213.715 47.0625 213.293 46.9141C212.879 46.7656 212.344 46.6914 211.688 46.6914H209.25V61H205.734V43.9375H211.688C212.68 43.9375 213.566 44.0312 214.348 44.2188C215.137 44.4062 215.805 44.6914 216.352 45.0742C216.898 45.457 217.316 45.9414 217.605 46.5273C217.895 47.1055 218.039 47.793 218.039 48.5898C218.039 49.293 217.879 49.9414 217.559 50.5352C217.246 51.1289 216.75 51.6133 216.07 51.9883C215.398 52.3633 214.52 52.5703 213.434 52.6094L212.414 53.5117ZM212.262 61H207.07L208.441 58.2578H212.262C212.879 58.2578 213.383 58.1602 213.773 57.9648C214.164 57.7617 214.453 57.4883 214.641 57.1445C214.828 56.8008 214.922 56.4062 214.922 55.9609C214.922 55.4609 214.836 55.0273 214.664 54.6602C214.5 54.293 214.234 54.0117 213.867 53.8164C213.5 53.6133 213.016 53.5117 212.414 53.5117H209.027L209.051 51.0977H213.27L214.078 52.0469C215.117 52.0312 215.953 52.2148 216.586 52.5977C217.227 52.9727 217.691 53.4609 217.98 54.0625C218.277 54.6641 218.426 55.3086 218.426 55.9961C218.426 57.0898 218.188 58.0117 217.711 58.7617C217.234 59.5039 216.535 60.0625 215.613 60.4375C214.699 60.8125 213.582 61 212.262 61ZM228.352 57.9648V48.3203H231.727V61H228.551L228.352 57.9648ZM228.727 55.3633L229.723 55.3398C229.723 56.1836 229.625 56.9688 229.43 57.6953C229.234 58.4141 228.941 59.0391 228.551 59.5703C228.16 60.0938 227.668 60.5039 227.074 60.8008C226.48 61.0898 225.781 61.2344 224.977 61.2344C224.359 61.2344 223.789 61.1484 223.266 60.9766C222.75 60.7969 222.305 60.5195 221.93 60.1445C221.562 59.7617 221.273 59.2734 221.062 58.6797C220.859 58.0781 220.758 57.3555 220.758 56.5117V48.3203H224.133V56.5352C224.133 56.9102 224.176 57.2266 224.262 57.4844C224.355 57.7422 224.484 57.9531 224.648 58.1172C224.812 58.2812 225.004 58.3984 225.223 58.4688C225.449 58.5391 225.699 58.5742 225.973 58.5742C226.668 58.5742 227.215 58.4336 227.613 58.1523C228.02 57.8711 228.305 57.4883 228.469 57.0039C228.641 56.5117 228.727 55.9648 228.727 55.3633ZM237.867 48.3203V61H234.48V48.3203H237.867ZM234.27 45.0156C234.27 44.5234 234.441 44.1172 234.785 43.7969C235.129 43.4766 235.59 43.3164 236.168 43.3164C236.738 43.3164 237.195 43.4766 237.539 43.7969C237.891 44.1172 238.066 44.5234 238.066 45.0156C238.066 45.5078 237.891 45.9141 237.539 46.2344C237.195 46.5547 236.738 46.7148 236.168 46.7148C235.59 46.7148 235.129 46.5547 234.785 46.2344C234.441 45.9141 234.27 45.5078 234.27 45.0156ZM244.219 43V61H240.832V43H244.219ZM254.496 58.2344V43H257.895V61H254.836L254.496 58.2344ZM246.48 54.8125V54.5664C246.48 53.5977 246.59 52.7188 246.809 51.9297C247.027 51.1328 247.348 50.4492 247.77 49.8789C248.191 49.3086 248.711 48.8672 249.328 48.5547C249.945 48.2422 250.648 48.0859 251.438 48.0859C252.18 48.0859 252.828 48.2422 253.383 48.5547C253.945 48.8672 254.422 49.3125 254.812 49.8906C255.211 50.4609 255.531 51.1367 255.773 51.918C256.016 52.6914 256.191 53.5391 256.301 54.4609V55C256.191 55.8828 256.016 56.7031 255.773 57.4609C255.531 58.2188 255.211 58.8828 254.812 59.4531C254.422 60.0156 253.945 60.4531 253.383 60.7656C252.82 61.0781 252.164 61.2344 251.414 61.2344C250.625 61.2344 249.922 61.0742 249.305 60.7539C248.695 60.4336 248.18 59.9844 247.758 59.4062C247.344 58.8281 247.027 58.1484 246.809 57.3672C246.59 56.5859 246.48 55.7344 246.48 54.8125ZM249.855 54.5664V54.8125C249.855 55.3359 249.895 55.8242 249.973 56.2773C250.059 56.7305 250.195 57.1328 250.383 57.4844C250.578 57.8281 250.828 58.0977 251.133 58.293C251.445 58.4805 251.824 58.5742 252.27 58.5742C252.848 58.5742 253.324 58.4453 253.699 58.1875C254.074 57.9219 254.359 57.5586 254.555 57.0977C254.758 56.6367 254.875 56.1055 254.906 55.5039V53.9688C254.883 53.4766 254.812 53.0352 254.695 52.6445C254.586 52.2461 254.422 51.9062 254.203 51.625C253.992 51.3438 253.727 51.125 253.406 50.9688C253.094 50.8125 252.723 50.7344 252.293 50.7344C251.855 50.7344 251.48 50.8359 251.168 51.0391C250.855 51.2344 250.602 51.5039 250.406 51.8477C250.219 52.1914 250.078 52.5977 249.984 53.0664C249.898 53.5273 249.855 54.0273 249.855 54.5664ZM266.367 61.2344C265.383 61.2344 264.5 61.0781 263.719 60.7656C262.938 60.4453 262.273 60.0039 261.727 59.4414C261.188 58.8789 260.773 58.2266 260.484 57.4844C260.195 56.7344 260.051 55.9375 260.051 55.0938V54.625C260.051 53.6641 260.188 52.7852 260.461 51.9883C260.734 51.1914 261.125 50.5 261.633 49.9141C262.148 49.3281 262.773 48.8789 263.508 48.5664C264.242 48.2461 265.07 48.0859 265.992 48.0859C266.891 48.0859 267.688 48.2344 268.383 48.5312C269.078 48.8281 269.66 49.25 270.129 49.7969C270.605 50.3438 270.965 51 271.207 51.7656C271.449 52.5234 271.57 53.3672 271.57 54.2969V55.7031H261.492V53.4531H268.254V53.1953C268.254 52.7266 268.168 52.3086 267.996 51.9414C267.832 51.5664 267.582 51.2695 267.246 51.0508C266.91 50.832 266.48 50.7227 265.957 50.7227C265.512 50.7227 265.129 50.8203 264.809 51.0156C264.488 51.2109 264.227 51.4844 264.023 51.8359C263.828 52.1875 263.68 52.6016 263.578 53.0781C263.484 53.5469 263.438 54.0625 263.438 54.625V55.0938C263.438 55.6016 263.508 56.0703 263.648 56.5C263.797 56.9297 264.004 57.3008 264.27 57.6133C264.543 57.9258 264.871 58.168 265.254 58.3398C265.645 58.5117 266.086 58.5977 266.578 58.5977C267.188 58.5977 267.754 58.4805 268.277 58.2461C268.809 58.0039 269.266 57.6406 269.648 57.1562L271.289 58.9375C271.023 59.3203 270.66 59.6875 270.199 60.0391C269.746 60.3906 269.199 60.6797 268.559 60.9062C267.918 61.125 267.188 61.2344 266.367 61.2344ZM276.867 51.0859V61H273.492V48.3203H276.668L276.867 51.0859ZM280.688 48.2383L280.629 51.3672C280.465 51.3438 280.266 51.3242 280.031 51.3086C279.805 51.2852 279.598 51.2734 279.41 51.2734C278.934 51.2734 278.52 51.3359 278.168 51.4609C277.824 51.5781 277.535 51.7539 277.301 51.9883C277.074 52.2227 276.902 52.5078 276.785 52.8438C276.676 53.1797 276.613 53.5625 276.598 53.9922L275.918 53.7812C275.918 52.9609 276 52.207 276.164 51.5195C276.328 50.8242 276.566 50.2188 276.879 49.7031C277.199 49.1875 277.59 48.7891 278.051 48.5078C278.512 48.2266 279.039 48.0859 279.633 48.0859C279.82 48.0859 280.012 48.1016 280.207 48.1328C280.402 48.1562 280.562 48.1914 280.688 48.2383Z" fill="#888888"/>
<path d="M114.117 84.875H122.344V107.164C122.344 109.82 121.789 112.07 120.68 113.914C119.57 115.742 118.016 117.125 116.016 118.062C114.016 119 111.664 119.469 108.961 119.469C106.289 119.469 103.938 119 101.906 118.062C99.8906 117.125 98.3125 115.742 97.1719 113.914C96.0469 112.07 95.4844 109.82 95.4844 107.164V84.875H103.734V107.164C103.734 108.57 103.938 109.719 104.344 110.609C104.75 111.484 105.344 112.125 106.125 112.531C106.906 112.938 107.852 113.141 108.961 113.141C110.086 113.141 111.031 112.938 111.797 112.531C112.562 112.125 113.141 111.484 113.531 110.609C113.922 109.719 114.117 108.57 114.117 107.164V84.875ZM134.906 99.0547V119H127.008V93.6406H134.414L134.906 99.0547ZM133.969 105.453L132.117 105.5C132.117 103.562 132.352 101.836 132.82 100.32C133.289 98.7891 133.953 97.4922 134.812 96.4297C135.672 95.3672 136.695 94.5625 137.883 94.0156C139.086 93.4531 140.422 93.1719 141.891 93.1719C143.062 93.1719 144.133 93.3438 145.102 93.6875C146.086 94.0312 146.93 94.5859 147.633 95.3516C148.352 96.1172 148.898 97.1328 149.273 98.3984C149.664 99.6484 149.859 101.195 149.859 103.039V119H141.914V103.016C141.914 102 141.773 101.227 141.492 100.695C141.211 100.148 140.805 99.7734 140.273 99.5703C139.742 99.3672 139.094 99.2656 138.328 99.2656C137.516 99.2656 136.828 99.4219 136.266 99.7344C135.703 100.047 135.25 100.484 134.906 101.047C134.578 101.594 134.336 102.242 134.18 102.992C134.039 103.742 133.969 104.562 133.969 105.453ZM162.586 93.6406V119H154.664V93.6406H162.586ZM154.195 87.1016C154.195 85.9766 154.602 85.0547 155.414 84.3359C156.227 83.6172 157.281 83.2578 158.578 83.2578C159.875 83.2578 160.93 83.6172 161.742 84.3359C162.555 85.0547 162.961 85.9766 162.961 87.1016C162.961 88.2266 162.555 89.1484 161.742 89.8672C160.93 90.5859 159.875 90.9453 158.578 90.9453C157.281 90.9453 156.227 90.5859 155.414 89.8672C154.602 89.1484 154.195 88.2266 154.195 87.1016ZM180.82 93.6406V99.125H165.539V93.6406H180.82ZM168.75 87.3359H176.648V110.727C176.648 111.398 176.727 111.922 176.883 112.297C177.039 112.656 177.305 112.914 177.68 113.07C178.07 113.211 178.586 113.281 179.227 113.281C179.68 113.281 180.055 113.273 180.352 113.258C180.648 113.227 180.93 113.188 181.195 113.141V118.789C180.523 119.008 179.82 119.172 179.086 119.281C178.352 119.406 177.57 119.469 176.742 119.469C175.055 119.469 173.609 119.203 172.406 118.672C171.219 118.141 170.312 117.305 169.688 116.164C169.062 115.023 168.75 113.539 168.75 111.711V87.3359ZM211.406 84.875V119H203.18V84.875H211.406ZM221.672 84.875V91.2266H193.148V84.875H221.672ZM234.961 119.469C232.898 119.469 231.055 119.148 229.43 118.508C227.805 117.852 226.43 116.953 225.305 115.812C224.195 114.672 223.344 113.359 222.75 111.875C222.172 110.391 221.883 108.82 221.883 107.164V106.273C221.883 104.414 222.141 102.695 222.656 101.117C223.172 99.5234 223.938 98.1328 224.953 96.9453C225.969 95.7578 227.242 94.8359 228.773 94.1797C230.305 93.5078 232.086 93.1719 234.117 93.1719C235.914 93.1719 237.523 93.4609 238.945 94.0391C240.367 94.6172 241.57 95.4453 242.555 96.5234C243.555 97.6016 244.312 98.9062 244.828 100.438C245.359 101.969 245.625 103.688 245.625 105.594V108.805H224.906V103.859H237.914V103.25C237.93 102.406 237.781 101.688 237.469 101.094C237.172 100.5 236.734 100.047 236.156 99.7344C235.578 99.4219 234.875 99.2656 234.047 99.2656C233.188 99.2656 232.477 99.4531 231.914 99.8281C231.367 100.203 230.938 100.719 230.625 101.375C230.328 102.016 230.117 102.758 229.992 103.602C229.867 104.445 229.805 105.336 229.805 106.273V107.164C229.805 108.102 229.93 108.953 230.18 109.719C230.445 110.484 230.82 111.141 231.305 111.688C231.805 112.219 232.398 112.633 233.086 112.93C233.789 113.227 234.586 113.375 235.477 113.375C236.555 113.375 237.617 113.172 238.664 112.766C239.711 112.359 240.609 111.688 241.359 110.75L244.945 115.016C244.43 115.75 243.695 116.461 242.742 117.148C241.805 117.836 240.68 118.398 239.367 118.836C238.055 119.258 236.586 119.469 234.961 119.469ZM262.125 111.875C262.125 111.438 261.977 111.062 261.68 110.75C261.398 110.422 260.898 110.125 260.18 109.859C259.461 109.578 258.453 109.297 257.156 109.016C255.922 108.75 254.758 108.398 253.664 107.961C252.586 107.523 251.641 106.992 250.828 106.367C250.016 105.742 249.375 105 248.906 104.141C248.453 103.281 248.227 102.297 248.227 101.188C248.227 100.109 248.453 99.0938 248.906 98.1406C249.375 97.1719 250.055 96.3203 250.945 95.5859C251.852 94.8359 252.953 94.25 254.25 93.8281C255.547 93.3906 257.023 93.1719 258.68 93.1719C260.961 93.1719 262.93 93.5234 264.586 94.2266C266.242 94.9141 267.516 95.8828 268.406 97.1328C269.312 98.3672 269.766 99.7969 269.766 101.422H261.867C261.867 100.781 261.758 100.234 261.539 99.7812C261.336 99.3281 261 98.9844 260.531 98.75C260.062 98.5 259.438 98.375 258.656 98.375C258.109 98.375 257.609 98.4766 257.156 98.6797C256.719 98.8828 256.367 99.1641 256.102 99.5234C255.836 99.8828 255.703 100.305 255.703 100.789C255.703 101.133 255.781 101.445 255.938 101.727C256.109 101.992 256.367 102.242 256.711 102.477C257.055 102.695 257.492 102.898 258.023 103.086C258.555 103.258 259.195 103.414 259.945 103.555C261.648 103.867 263.242 104.312 264.727 104.891C266.211 105.469 267.414 106.289 268.336 107.352C269.273 108.414 269.742 109.844 269.742 111.641C269.742 112.766 269.484 113.805 268.969 114.758C268.453 115.695 267.711 116.523 266.742 117.242C265.773 117.945 264.609 118.492 263.25 118.883C261.891 119.273 260.359 119.469 258.656 119.469C256.234 119.469 254.188 119.039 252.516 118.18C250.844 117.305 249.578 116.211 248.719 114.898C247.875 113.57 247.453 112.227 247.453 110.867H254.812C254.844 111.648 255.031 112.289 255.375 112.789C255.734 113.289 256.211 113.656 256.805 113.891C257.398 114.125 258.086 114.242 258.867 114.242C259.586 114.242 260.18 114.141 260.648 113.938C261.133 113.734 261.5 113.461 261.75 113.117C262 112.758 262.125 112.344 262.125 111.875ZM286.805 93.6406V99.125H271.523V93.6406H286.805ZM274.734 87.3359H282.633V110.727C282.633 111.398 282.711 111.922 282.867 112.297C283.023 112.656 283.289 112.914 283.664 113.07C284.055 113.211 284.57 113.281 285.211 113.281C285.664 113.281 286.039 113.273 286.336 113.258C286.633 113.227 286.914 113.188 287.18 113.141V118.789C286.508 119.008 285.805 119.172 285.07 119.281C284.336 119.406 283.555 119.469 282.727 119.469C281.039 119.469 279.594 119.203 278.391 118.672C277.203 118.141 276.297 117.305 275.672 116.164C275.047 115.023 274.734 113.539 274.734 111.711V87.3359ZM298.289 93.6406V119H290.367V93.6406H298.289ZM289.898 87.1016C289.898 85.9766 290.305 85.0547 291.117 84.3359C291.93 83.6172 292.984 83.2578 294.281 83.2578C295.578 83.2578 296.633 83.6172 297.445 84.3359C298.258 85.0547 298.664 85.9766 298.664 87.1016C298.664 88.2266 298.258 89.1484 297.445 89.8672C296.633 90.5859 295.578 90.9453 294.281 90.9453C292.984 90.9453 291.93 90.5859 291.117 89.8672C290.305 89.1484 289.898 88.2266 289.898 87.1016ZM310.922 99.0547V119H303.023V93.6406H310.43L310.922 99.0547ZM309.984 105.453L308.133 105.5C308.133 103.562 308.367 101.836 308.836 100.32C309.305 98.7891 309.969 97.4922 310.828 96.4297C311.688 95.3672 312.711 94.5625 313.898 94.0156C315.102 93.4531 316.438 93.1719 317.906 93.1719C319.078 93.1719 320.148 93.3438 321.117 93.6875C322.102 94.0312 322.945 94.5859 323.648 95.3516C324.367 96.1172 324.914 97.1328 325.289 98.3984C325.68 99.6484 325.875 101.195 325.875 103.039V119H317.93V103.016C317.93 102 317.789 101.227 317.508 100.695C317.227 100.148 316.82 99.7734 316.289 99.5703C315.758 99.3672 315.109 99.2656 314.344 99.2656C313.531 99.2656 312.844 99.4219 312.281 99.7344C311.719 100.047 311.266 100.484 310.922 101.047C310.594 101.594 310.352 102.242 310.195 102.992C310.055 103.742 309.984 104.562 309.984 105.453ZM346.195 93.6406H353.367V118.016C353.367 120.359 352.828 122.344 351.75 123.969C350.672 125.609 349.164 126.852 347.227 127.695C345.305 128.555 343.055 128.984 340.477 128.984C339.336 128.984 338.172 128.836 336.984 128.539C335.797 128.258 334.688 127.836 333.656 127.273C332.625 126.711 331.758 126.016 331.055 125.188L334.359 120.547C335 121.266 335.805 121.875 336.773 122.375C337.742 122.891 338.883 123.148 340.195 123.148C341.336 123.148 342.289 122.945 343.055 122.539C343.836 122.133 344.43 121.539 344.836 120.758C345.242 119.992 345.445 119.062 345.445 117.969V99.6406L346.195 93.6406ZM329.344 106.625V106.133C329.344 104.211 329.578 102.461 330.047 100.883C330.531 99.2891 331.219 97.9219 332.109 96.7812C333.016 95.625 334.109 94.7344 335.391 94.1094C336.672 93.4844 338.117 93.1719 339.727 93.1719C341.461 93.1719 342.883 93.5078 343.992 94.1797C345.117 94.8359 346.016 95.7578 346.688 96.9453C347.375 98.1328 347.906 99.5234 348.281 101.117C348.672 102.695 349 104.398 349.266 106.227V106.812C349 108.531 348.633 110.156 348.164 111.688C347.711 113.203 347.117 114.547 346.383 115.719C345.648 116.891 344.727 117.812 343.617 118.484C342.523 119.141 341.211 119.469 339.68 119.469C338.086 119.469 336.648 119.148 335.367 118.508C334.102 117.867 333.016 116.969 332.109 115.812C331.219 114.656 330.531 113.297 330.047 111.734C329.578 110.172 329.344 108.469 329.344 106.625ZM337.242 106.133V106.625C337.242 107.578 337.328 108.461 337.5 109.273C337.688 110.086 337.969 110.805 338.344 111.43C338.719 112.039 339.18 112.516 339.727 112.859C340.289 113.203 340.945 113.375 341.695 113.375C342.836 113.375 343.758 113.133 344.461 112.648C345.164 112.164 345.672 111.477 345.984 110.586C346.297 109.695 346.43 108.648 346.383 107.445V105.594C346.414 104.562 346.344 103.656 346.172 102.875C346 102.078 345.727 101.414 345.352 100.883C344.992 100.352 344.508 99.9531 343.898 99.6875C343.305 99.4062 342.586 99.2656 341.742 99.2656C341.008 99.2656 340.359 99.4375 339.797 99.7812C339.234 100.125 338.766 100.609 338.391 101.234C338.016 101.844 337.727 102.57 337.523 103.414C337.336 104.242 337.242 105.148 337.242 106.133Z" fill="black"/>
<path d="M1134 0H1348C1356.28 0 1363 6.71573 1363 15V148C1363 156.284 1356.28 163 1348 163H1134V0Z" fill="#1E6673"/>
<path d="M1210.62 43.625H1286.38V119.375H1210.62V43.625Z" fill="white" fill-opacity="0.01"/>
<path d="M1276.91 72.0312V105.172C1276.91 107.787 1274.79 109.906 1272.17 109.906H1224.83C1222.21 109.906 1220.09 107.787 1220.09 105.172V57.8281C1220.09 55.2134 1222.21 53.0938 1224.83 53.0938H1261.12" stroke="white" stroke-width="7.24" stroke-linecap="round" stroke-linejoin="round"/>
<path d="M1232.72 75.1875L1248.5 87.8125L1276.91 53.0938" stroke="white" stroke-width="7.24" stroke-linecap="round" stroke-linejoin="round"/>
</svg>
