<svg width="1363" height="297" viewBox="0 0 1363 297" fill="none" xmlns="http://www.w3.org/2000/svg">
<path d="M0 15C0 6.71573 6.71573 0 15 0H37V297H15C6.71573 297 0 290.284 0 282V15Z" fill="#1E6673"/>
<path d="M37 0H1066V297H37V0Z" fill="#F0F0F0"/>
<path d="M113.795 70.8867V75H95.6543V70.8867H113.795ZM113.531 52.3418L97.9922 75H94.2832V71.9766L109.945 49.4062H113.531V52.3418ZM111.721 49.4062V53.5371H94.3008V49.4062H111.721ZM127.102 70.7109V62.2383C127.102 61.6289 127.002 61.1074 126.803 60.6738C126.604 60.2285 126.293 59.8828 125.871 59.6367C125.461 59.3906 124.928 59.2676 124.271 59.2676C123.709 59.2676 123.223 59.3672 122.812 59.5664C122.402 59.7539 122.086 60.0293 121.863 60.3926C121.641 60.7441 121.529 61.1602 121.529 61.6406H116.467C116.467 60.832 116.654 60.0645 117.029 59.3379C117.404 58.6113 117.949 57.9727 118.664 57.4219C119.379 56.8594 120.229 56.4199 121.213 56.1035C122.209 55.7871 123.322 55.6289 124.553 55.6289C126.029 55.6289 127.342 55.875 128.49 56.3672C129.639 56.8594 130.541 57.5977 131.197 58.582C131.865 59.5664 132.199 60.7969 132.199 62.2734V70.4121C132.199 71.4551 132.264 72.3105 132.393 72.9785C132.521 73.6348 132.709 74.209 132.955 74.7012V75H127.84C127.594 74.4844 127.406 73.8398 127.277 73.0664C127.16 72.2812 127.102 71.4961 127.102 70.7109ZM127.77 63.416L127.805 66.2812H124.975C124.307 66.2812 123.727 66.3574 123.234 66.5098C122.742 66.6621 122.338 66.8789 122.021 67.1602C121.705 67.4297 121.471 67.7461 121.318 68.1094C121.178 68.4727 121.107 68.8711 121.107 69.3047C121.107 69.7383 121.207 70.1309 121.406 70.4824C121.605 70.8223 121.893 71.0918 122.268 71.291C122.643 71.4785 123.082 71.5723 123.586 71.5723C124.348 71.5723 125.01 71.4199 125.572 71.1152C126.135 70.8105 126.568 70.4355 126.873 69.9902C127.189 69.5449 127.354 69.123 127.365 68.7246L128.701 70.8691C128.514 71.3496 128.256 71.8477 127.928 72.3633C127.611 72.8789 127.207 73.3652 126.715 73.8223C126.223 74.2676 125.631 74.6367 124.939 74.9297C124.248 75.2109 123.428 75.3516 122.479 75.3516C121.271 75.3516 120.176 75.1113 119.191 74.6309C118.219 74.1387 117.445 73.4648 116.871 72.6094C116.309 71.7422 116.027 70.7578 116.027 69.6562C116.027 68.6602 116.215 67.7754 116.59 67.002C116.965 66.2285 117.516 65.5781 118.242 65.0508C118.98 64.5117 119.9 64.1074 121.002 63.8379C122.104 63.5566 123.381 63.416 124.834 63.416H127.77ZM141.463 72.8555L146.508 55.9805H151.939L144.293 77.8652C144.129 78.3457 143.906 78.8613 143.625 79.4121C143.355 79.9629 142.986 80.4844 142.518 80.9766C142.061 81.4805 141.48 81.8906 140.777 82.207C140.086 82.5234 139.236 82.6816 138.229 82.6816C137.748 82.6816 137.355 82.6523 137.051 82.5938C136.746 82.5352 136.383 82.4531 135.961 82.3477V78.6387C136.09 78.6387 136.225 78.6387 136.365 78.6387C136.506 78.6504 136.641 78.6562 136.77 78.6562C137.438 78.6562 137.982 78.5801 138.404 78.4277C138.826 78.2754 139.166 78.041 139.424 77.7246C139.682 77.4199 139.887 77.0215 140.039 76.5293L141.463 72.8555ZM139.354 55.9805L143.484 69.7617L144.205 75.123L140.76 75.4922L133.922 55.9805H139.354ZM158.918 60.041V75H153.855V55.9805H158.602L158.918 60.041ZM158.18 64.8223H156.809C156.809 63.416 156.99 62.1504 157.354 61.0254C157.717 59.8887 158.227 58.9219 158.883 58.125C159.539 57.3164 160.318 56.7012 161.221 56.2793C162.135 55.8457 163.154 55.6289 164.279 55.6289C165.17 55.6289 165.984 55.7578 166.723 56.0156C167.461 56.2734 168.094 56.6836 168.621 57.2461C169.16 57.8086 169.57 58.5527 169.852 59.4785C170.145 60.4043 170.291 61.5352 170.291 62.8711V75H165.193V62.8535C165.193 62.0098 165.076 61.3535 164.842 60.8848C164.607 60.416 164.262 60.0879 163.805 59.9004C163.359 59.7012 162.809 59.6016 162.152 59.6016C161.473 59.6016 160.881 59.7363 160.377 60.0059C159.885 60.2754 159.475 60.6504 159.146 61.1309C158.83 61.5996 158.59 62.1504 158.426 62.7832C158.262 63.416 158.18 64.0957 158.18 64.8223ZM184.406 70.7109V62.2383C184.406 61.6289 184.307 61.1074 184.107 60.6738C183.908 60.2285 183.598 59.8828 183.176 59.6367C182.766 59.3906 182.232 59.2676 181.576 59.2676C181.014 59.2676 180.527 59.3672 180.117 59.5664C179.707 59.7539 179.391 60.0293 179.168 60.3926C178.945 60.7441 178.834 61.1602 178.834 61.6406H173.771C173.771 60.832 173.959 60.0645 174.334 59.3379C174.709 58.6113 175.254 57.9727 175.969 57.4219C176.684 56.8594 177.533 56.4199 178.518 56.1035C179.514 55.7871 180.627 55.6289 181.857 55.6289C183.334 55.6289 184.646 55.875 185.795 56.3672C186.943 56.8594 187.846 57.5977 188.502 58.582C189.17 59.5664 189.504 60.7969 189.504 62.2734V70.4121C189.504 71.4551 189.568 72.3105 189.697 72.9785C189.826 73.6348 190.014 74.209 190.26 74.7012V75H185.145C184.898 74.4844 184.711 73.8398 184.582 73.0664C184.465 72.2812 184.406 71.4961 184.406 70.7109ZM185.074 63.416L185.109 66.2812H182.279C181.611 66.2812 181.031 66.3574 180.539 66.5098C180.047 66.6621 179.643 66.8789 179.326 67.1602C179.01 67.4297 178.775 67.7461 178.623 68.1094C178.482 68.4727 178.412 68.8711 178.412 69.3047C178.412 69.7383 178.512 70.1309 178.711 70.4824C178.91 70.8223 179.197 71.0918 179.572 71.291C179.947 71.4785 180.387 71.5723 180.891 71.5723C181.652 71.5723 182.314 71.4199 182.877 71.1152C183.439 70.8105 183.873 70.4355 184.178 69.9902C184.494 69.5449 184.658 69.123 184.67 68.7246L186.006 70.8691C185.818 71.3496 185.561 71.8477 185.232 72.3633C184.916 72.8789 184.512 73.3652 184.02 73.8223C183.527 74.2676 182.936 74.6367 182.244 74.9297C181.553 75.2109 180.732 75.3516 179.783 75.3516C178.576 75.3516 177.48 75.1113 176.496 74.6309C175.523 74.1387 174.75 73.4648 174.176 72.6094C173.613 71.7422 173.332 70.7578 173.332 69.6562C173.332 68.6602 173.52 67.7754 173.895 67.002C174.27 66.2285 174.82 65.5781 175.547 65.0508C176.285 64.5117 177.205 64.1074 178.307 63.8379C179.408 63.5566 180.686 63.416 182.139 63.416H185.074ZM193.406 48H198.469V70.6406L197.959 75H193.406V48ZM210.51 65.2969V65.666C210.51 67.084 210.357 68.3848 210.053 69.5684C209.76 70.752 209.303 71.7773 208.682 72.6445C208.061 73.5 207.287 74.168 206.361 74.6484C205.447 75.1172 204.369 75.3516 203.127 75.3516C201.967 75.3516 200.959 75.1172 200.104 74.6484C199.26 74.1797 198.551 73.5176 197.977 72.6621C197.402 71.8066 196.939 70.8047 196.588 69.6562C196.236 68.5078 195.973 67.2539 195.797 65.8945V65.0859C195.973 63.7266 196.236 62.4727 196.588 61.3242C196.939 60.1758 197.402 59.1738 197.977 58.3184C198.551 57.4629 199.26 56.8008 200.104 56.332C200.947 55.8633 201.943 55.6289 203.092 55.6289C204.346 55.6289 205.436 55.8691 206.361 56.3496C207.299 56.8184 208.072 57.4863 208.682 58.3535C209.303 59.209 209.76 60.2285 210.053 61.4121C210.357 62.584 210.51 63.8789 210.51 65.2969ZM205.447 65.666V65.2969C205.447 64.5234 205.389 63.7969 205.271 63.1172C205.166 62.4258 204.979 61.8223 204.709 61.3066C204.439 60.7793 204.07 60.3633 203.602 60.0586C203.145 59.7539 202.553 59.6016 201.826 59.6016C201.135 59.6016 200.549 59.7188 200.068 59.9531C199.588 60.1875 199.189 60.5156 198.873 60.9375C198.568 61.3594 198.34 61.8633 198.188 62.4492C198.035 63.0234 197.941 63.6562 197.906 64.3477V66.6504C197.941 67.5762 198.094 68.3965 198.363 69.1113C198.645 69.8145 199.066 70.3711 199.629 70.7812C200.203 71.1797 200.947 71.3789 201.861 71.3789C202.576 71.3789 203.168 71.2383 203.637 70.957C204.105 70.6758 204.469 70.2773 204.727 69.7617C204.996 69.2461 205.184 68.6426 205.289 67.9512C205.395 67.248 205.447 66.4863 205.447 65.666ZM225.346 49.4062H229.811L236.385 68.1973L242.959 49.4062H247.424L238.178 75H234.592L225.346 49.4062ZM222.938 49.4062H227.385L228.193 67.7227V75H222.938V49.4062ZM245.385 49.4062H249.85V75H244.576V67.7227L245.385 49.4062ZM264.422 70.7109V62.2383C264.422 61.6289 264.322 61.1074 264.123 60.6738C263.924 60.2285 263.613 59.8828 263.191 59.6367C262.781 59.3906 262.248 59.2676 261.592 59.2676C261.029 59.2676 260.543 59.3672 260.133 59.5664C259.723 59.7539 259.406 60.0293 259.184 60.3926C258.961 60.7441 258.85 61.1602 258.85 61.6406H253.787C253.787 60.832 253.975 60.0645 254.35 59.3379C254.725 58.6113 255.27 57.9727 255.984 57.4219C256.699 56.8594 257.549 56.4199 258.533 56.1035C259.529 55.7871 260.643 55.6289 261.873 55.6289C263.35 55.6289 264.662 55.875 265.811 56.3672C266.959 56.8594 267.861 57.5977 268.518 58.582C269.186 59.5664 269.52 60.7969 269.52 62.2734V70.4121C269.52 71.4551 269.584 72.3105 269.713 72.9785C269.842 73.6348 270.029 74.209 270.275 74.7012V75H265.16C264.914 74.4844 264.727 73.8398 264.598 73.0664C264.48 72.2812 264.422 71.4961 264.422 70.7109ZM265.09 63.416L265.125 66.2812H262.295C261.627 66.2812 261.047 66.3574 260.555 66.5098C260.062 66.6621 259.658 66.8789 259.342 67.1602C259.025 67.4297 258.791 67.7461 258.639 68.1094C258.498 68.4727 258.428 68.8711 258.428 69.3047C258.428 69.7383 258.527 70.1309 258.727 70.4824C258.926 70.8223 259.213 71.0918 259.588 71.291C259.963 71.4785 260.402 71.5723 260.906 71.5723C261.668 71.5723 262.33 71.4199 262.893 71.1152C263.455 70.8105 263.889 70.4355 264.193 69.9902C264.51 69.5449 264.674 69.123 264.686 68.7246L266.021 70.8691C265.834 71.3496 265.576 71.8477 265.248 72.3633C264.932 72.8789 264.527 73.3652 264.035 73.8223C263.543 74.2676 262.951 74.6367 262.26 74.9297C261.568 75.2109 260.748 75.3516 259.799 75.3516C258.592 75.3516 257.496 75.1113 256.512 74.6309C255.539 74.1387 254.766 73.4648 254.191 72.6094C253.629 71.7422 253.348 70.7578 253.348 69.6562C253.348 68.6602 253.535 67.7754 253.91 67.002C254.285 66.2285 254.836 65.5781 255.562 65.0508C256.301 64.5117 257.221 64.1074 258.322 63.8379C259.424 63.5566 260.701 63.416 262.154 63.416H265.09ZM278.484 59.918V75H273.404V55.9805H278.168L278.484 59.918ZM277.781 64.8223H276.375C276.375 63.498 276.533 62.2793 276.85 61.166C277.178 60.041 277.652 59.0684 278.273 58.248C278.906 57.416 279.686 56.7715 280.611 56.3145C281.537 55.8574 282.609 55.6289 283.828 55.6289C284.672 55.6289 285.445 55.7578 286.148 56.0156C286.852 56.2617 287.455 56.6543 287.959 57.1934C288.475 57.7207 288.873 58.4121 289.154 59.2676C289.436 60.1113 289.576 61.125 289.576 62.3086V75H284.514V62.8711C284.514 62.0039 284.396 61.3359 284.162 60.8672C283.928 60.3984 283.594 60.0703 283.16 59.8828C282.738 59.6953 282.229 59.6016 281.631 59.6016C280.975 59.6016 280.4 59.7363 279.908 60.0059C279.428 60.2754 279.029 60.6504 278.713 61.1309C278.396 61.5996 278.162 62.1504 278.01 62.7832C277.857 63.416 277.781 64.0957 277.781 64.8223ZM289.102 64.2422L287.291 64.4707C287.291 63.2285 287.443 62.0742 287.748 61.0078C288.064 59.9414 288.527 59.0039 289.137 58.1953C289.758 57.3867 290.525 56.7598 291.439 56.3145C292.354 55.8574 293.408 55.6289 294.604 55.6289C295.518 55.6289 296.35 55.7637 297.1 56.0332C297.85 56.291 298.488 56.707 299.016 57.2812C299.555 57.8438 299.965 58.582 300.246 59.4961C300.539 60.4102 300.686 61.5293 300.686 62.8535V75H295.605V62.8535C295.605 61.9746 295.488 61.3066 295.254 60.8496C295.031 60.3809 294.703 60.0586 294.27 59.8828C293.848 59.6953 293.344 59.6016 292.758 59.6016C292.148 59.6016 291.615 59.7246 291.158 59.9707C290.701 60.2051 290.32 60.5332 290.016 60.9551C289.711 61.377 289.482 61.8691 289.33 62.4316C289.178 62.9824 289.102 63.5859 289.102 64.2422ZM314.871 70.7109V62.2383C314.871 61.6289 314.771 61.1074 314.572 60.6738C314.373 60.2285 314.062 59.8828 313.641 59.6367C313.23 59.3906 312.697 59.2676 312.041 59.2676C311.479 59.2676 310.992 59.3672 310.582 59.5664C310.172 59.7539 309.855 60.0293 309.633 60.3926C309.41 60.7441 309.299 61.1602 309.299 61.6406H304.236C304.236 60.832 304.424 60.0645 304.799 59.3379C305.174 58.6113 305.719 57.9727 306.434 57.4219C307.148 56.8594 307.998 56.4199 308.982 56.1035C309.979 55.7871 311.092 55.6289 312.322 55.6289C313.799 55.6289 315.111 55.875 316.26 56.3672C317.408 56.8594 318.311 57.5977 318.967 58.582C319.635 59.5664 319.969 60.7969 319.969 62.2734V70.4121C319.969 71.4551 320.033 72.3105 320.162 72.9785C320.291 73.6348 320.479 74.209 320.725 74.7012V75H315.609C315.363 74.4844 315.176 73.8398 315.047 73.0664C314.93 72.2812 314.871 71.4961 314.871 70.7109ZM315.539 63.416L315.574 66.2812H312.744C312.076 66.2812 311.496 66.3574 311.004 66.5098C310.512 66.6621 310.107 66.8789 309.791 67.1602C309.475 67.4297 309.24 67.7461 309.088 68.1094C308.947 68.4727 308.877 68.8711 308.877 69.3047C308.877 69.7383 308.977 70.1309 309.176 70.4824C309.375 70.8223 309.662 71.0918 310.037 71.291C310.412 71.4785 310.852 71.5723 311.355 71.5723C312.117 71.5723 312.779 71.4199 313.342 71.1152C313.904 70.8105 314.338 70.4355 314.643 69.9902C314.959 69.5449 315.123 69.123 315.135 68.7246L316.471 70.8691C316.283 71.3496 316.025 71.8477 315.697 72.3633C315.381 72.8789 314.977 73.3652 314.484 73.8223C313.992 74.2676 313.4 74.6367 312.709 74.9297C312.018 75.2109 311.197 75.3516 310.248 75.3516C309.041 75.3516 307.945 75.1113 306.961 74.6309C305.988 74.1387 305.215 73.4648 304.641 72.6094C304.078 71.7422 303.797 70.7578 303.797 69.6562C303.797 68.6602 303.984 67.7754 304.359 67.002C304.734 66.2285 305.285 65.5781 306.012 65.0508C306.75 64.5117 307.67 64.1074 308.771 63.8379C309.873 63.5566 311.15 63.416 312.604 63.416H315.539Z" fill="#888888"/>
<path d="M119.168 136.391L127.098 100.188H131.828L134.398 103.277L125.949 140H120.727L119.168 136.391ZM117.062 100.188L123.762 136.664L122.039 140H115.996L107.547 100.188H117.062ZM138.746 136.473L145.391 100.188H154.879L146.43 140H140.414L138.746 136.473ZM135.246 100.188L143.367 136.609L141.727 140H136.504L127.863 103.223L130.543 100.188H135.246ZM171.668 140.547C169.262 140.547 167.111 140.173 165.215 139.426C163.319 138.66 161.715 137.612 160.402 136.281C159.108 134.951 158.115 133.419 157.422 131.688C156.747 129.956 156.41 128.124 156.41 126.191V125.152C156.41 122.983 156.711 120.978 157.312 119.137C157.914 117.277 158.807 115.655 159.992 114.27C161.177 112.884 162.663 111.809 164.449 111.043C166.236 110.259 168.314 109.867 170.684 109.867C172.78 109.867 174.658 110.204 176.316 110.879C177.975 111.553 179.379 112.52 180.527 113.777C181.694 115.035 182.578 116.557 183.18 118.344C183.799 120.13 184.109 122.135 184.109 124.359V128.105H159.938V122.336H175.113V121.625C175.132 120.641 174.958 119.802 174.594 119.109C174.247 118.417 173.737 117.888 173.062 117.523C172.388 117.159 171.568 116.977 170.602 116.977C169.599 116.977 168.77 117.195 168.113 117.633C167.475 118.07 166.974 118.672 166.609 119.438C166.263 120.185 166.017 121.051 165.871 122.035C165.725 123.02 165.652 124.059 165.652 125.152V126.191C165.652 127.285 165.798 128.279 166.09 129.172C166.4 130.065 166.837 130.831 167.402 131.469C167.986 132.089 168.678 132.572 169.48 132.918C170.301 133.264 171.23 133.438 172.27 133.438C173.527 133.438 174.767 133.201 175.988 132.727C177.21 132.253 178.258 131.469 179.133 130.375L183.316 135.352C182.715 136.208 181.858 137.038 180.746 137.84C179.652 138.642 178.34 139.298 176.809 139.809C175.277 140.301 173.564 140.547 171.668 140.547ZM187.938 98H197.152V132.727L196.195 140H187.938V98ZM215.309 124.879V125.453C215.309 127.695 215.081 129.737 214.625 131.578C214.169 133.419 213.467 135.014 212.52 136.363C211.572 137.694 210.378 138.724 208.938 139.453C207.497 140.182 205.793 140.547 203.824 140.547C202.038 140.547 200.507 140.164 199.23 139.398C197.954 138.615 196.888 137.539 196.031 136.172C195.174 134.786 194.482 133.191 193.953 131.387C193.424 129.564 193.005 127.613 192.695 125.535V124.852C193.005 122.792 193.424 120.859 193.953 119.055C194.482 117.232 195.174 115.637 196.031 114.27C196.888 112.884 197.945 111.809 199.203 111.043C200.479 110.259 202.001 109.867 203.77 109.867C205.757 109.867 207.47 110.241 208.91 110.988C210.368 111.736 211.572 112.784 212.52 114.133C213.467 115.482 214.169 117.068 214.625 118.891C215.081 120.714 215.309 122.71 215.309 124.879ZM206.094 125.453V124.879C206.094 123.803 206.03 122.792 205.902 121.844C205.775 120.896 205.547 120.057 205.219 119.328C204.891 118.599 204.426 118.025 203.824 117.605C203.223 117.186 202.439 116.977 201.473 116.977C200.488 116.977 199.659 117.141 198.984 117.469C198.328 117.797 197.799 118.271 197.398 118.891C197.016 119.492 196.742 120.24 196.578 121.133C196.414 122.008 196.341 123.001 196.359 124.113V126.273C196.323 127.786 196.46 129.081 196.77 130.156C197.079 131.232 197.617 132.052 198.383 132.617C199.148 133.182 200.197 133.465 201.527 133.465C202.512 133.465 203.305 133.273 203.906 132.891C204.526 132.508 204.991 131.961 205.301 131.25C205.611 130.539 205.82 129.691 205.93 128.707C206.039 127.723 206.094 126.638 206.094 125.453ZM234.914 131.688C234.914 131.177 234.741 130.74 234.395 130.375C234.066 129.992 233.483 129.646 232.645 129.336C231.806 129.008 230.63 128.68 229.117 128.352C227.677 128.042 226.319 127.632 225.043 127.121C223.785 126.611 222.682 125.991 221.734 125.262C220.786 124.533 220.039 123.667 219.492 122.664C218.964 121.661 218.699 120.513 218.699 119.219C218.699 117.961 218.964 116.776 219.492 115.664C220.039 114.534 220.832 113.54 221.871 112.684C222.928 111.809 224.214 111.125 225.727 110.633C227.24 110.122 228.962 109.867 230.895 109.867C233.556 109.867 235.853 110.277 237.785 111.098C239.717 111.9 241.203 113.03 242.242 114.488C243.299 115.928 243.828 117.596 243.828 119.492H234.613C234.613 118.745 234.486 118.107 234.23 117.578C233.993 117.049 233.602 116.648 233.055 116.375C232.508 116.083 231.779 115.938 230.867 115.938C230.229 115.938 229.646 116.056 229.117 116.293C228.607 116.53 228.197 116.858 227.887 117.277C227.577 117.697 227.422 118.189 227.422 118.754C227.422 119.155 227.513 119.52 227.695 119.848C227.896 120.158 228.197 120.449 228.598 120.723C228.999 120.978 229.509 121.215 230.129 121.434C230.749 121.634 231.496 121.816 232.371 121.98C234.358 122.345 236.217 122.865 237.949 123.539C239.681 124.214 241.085 125.171 242.16 126.41C243.254 127.65 243.801 129.318 243.801 131.414C243.801 132.727 243.5 133.939 242.898 135.051C242.297 136.145 241.431 137.111 240.301 137.949C239.171 138.77 237.812 139.408 236.227 139.863C234.641 140.319 232.854 140.547 230.867 140.547C228.042 140.547 225.654 140.046 223.703 139.043C221.753 138.022 220.276 136.746 219.273 135.215C218.289 133.665 217.797 132.098 217.797 130.512H226.383C226.419 131.423 226.638 132.171 227.039 132.754C227.458 133.337 228.014 133.766 228.707 134.039C229.4 134.312 230.202 134.449 231.113 134.449C231.952 134.449 232.645 134.331 233.191 134.094C233.757 133.857 234.185 133.538 234.477 133.137C234.768 132.717 234.914 132.234 234.914 131.688ZM257.855 110.414V140H248.613V110.414H257.855ZM248.066 102.785C248.066 101.473 248.54 100.397 249.488 99.5586C250.436 98.7201 251.667 98.3008 253.18 98.3008C254.693 98.3008 255.923 98.7201 256.871 99.5586C257.819 100.397 258.293 101.473 258.293 102.785C258.293 104.098 257.819 105.173 256.871 106.012C255.923 106.85 254.693 107.27 253.18 107.27C251.667 107.27 250.436 106.85 249.488 106.012C248.54 105.173 248.066 104.098 248.066 102.785ZM279.129 110.414V116.812H261.301V110.414H279.129ZM265.047 103.059H274.262V130.348C274.262 131.132 274.353 131.742 274.535 132.18C274.717 132.599 275.027 132.9 275.465 133.082C275.921 133.246 276.522 133.328 277.27 133.328C277.798 133.328 278.236 133.319 278.582 133.301C278.928 133.264 279.257 133.219 279.566 133.164V139.754C278.783 140.009 277.962 140.201 277.105 140.328C276.249 140.474 275.337 140.547 274.371 140.547C272.402 140.547 270.716 140.237 269.312 139.617C267.927 138.997 266.87 138.022 266.141 136.691C265.411 135.361 265.047 133.629 265.047 131.496V103.059ZM297.121 140.547C294.715 140.547 292.564 140.173 290.668 139.426C288.772 138.66 287.168 137.612 285.855 136.281C284.561 134.951 283.568 133.419 282.875 131.688C282.201 129.956 281.863 128.124 281.863 126.191V125.152C281.863 122.983 282.164 120.978 282.766 119.137C283.367 117.277 284.26 115.655 285.445 114.27C286.63 112.884 288.116 111.809 289.902 111.043C291.689 110.259 293.767 109.867 296.137 109.867C298.233 109.867 300.111 110.204 301.77 110.879C303.428 111.553 304.832 112.52 305.98 113.777C307.147 115.035 308.031 116.557 308.633 118.344C309.253 120.13 309.562 122.135 309.562 124.359V128.105H285.391V122.336H300.566V121.625C300.585 120.641 300.411 119.802 300.047 119.109C299.701 118.417 299.19 117.888 298.516 117.523C297.841 117.159 297.021 116.977 296.055 116.977C295.052 116.977 294.223 117.195 293.566 117.633C292.928 118.07 292.427 118.672 292.062 119.438C291.716 120.185 291.47 121.051 291.324 122.035C291.178 123.02 291.105 124.059 291.105 125.152V126.191C291.105 127.285 291.251 128.279 291.543 129.172C291.853 130.065 292.29 130.831 292.855 131.469C293.439 132.089 294.132 132.572 294.934 132.918C295.754 133.264 296.684 133.438 297.723 133.438C298.98 133.438 300.22 133.201 301.441 132.727C302.663 132.253 303.711 131.469 304.586 130.375L308.77 135.352C308.168 136.208 307.311 137.038 306.199 137.84C305.105 138.642 303.793 139.298 302.262 139.809C300.73 140.301 299.017 140.547 297.121 140.547ZM343.934 123.074H333.68L333.625 116.785H341.938C343.432 116.785 344.626 116.621 345.52 116.293C346.413 115.947 347.06 115.445 347.461 114.789C347.88 114.133 348.09 113.312 348.09 112.328C348.09 111.198 347.88 110.286 347.461 109.594C347.042 108.901 346.376 108.4 345.465 108.09C344.572 107.762 343.414 107.598 341.992 107.598H337.289V140H327.691V100.188H341.992C344.453 100.188 346.65 100.415 348.582 100.871C350.514 101.309 352.155 101.983 353.504 102.895C354.871 103.806 355.91 104.954 356.621 106.34C357.332 107.707 357.688 109.32 357.688 111.18C357.688 112.802 357.341 114.324 356.648 115.746C355.956 117.168 354.798 118.326 353.176 119.219C351.572 120.094 349.375 120.549 346.586 120.586L343.934 123.074ZM343.551 140H331.355L334.637 132.617H343.551C344.863 132.617 345.911 132.417 346.695 132.016C347.497 131.596 348.072 131.049 348.418 130.375C348.783 129.682 348.965 128.917 348.965 128.078C348.965 127.057 348.792 126.173 348.445 125.426C348.117 124.678 347.589 124.104 346.859 123.703C346.13 123.284 345.155 123.074 343.934 123.074H335.867L335.922 116.785H345.574L347.816 119.301C350.478 119.191 352.583 119.565 354.133 120.422C355.701 121.279 356.822 122.409 357.496 123.812C358.171 125.216 358.508 126.684 358.508 128.215C358.508 130.822 357.943 133 356.812 134.75C355.701 136.5 354.033 137.812 351.809 138.688C349.585 139.562 346.832 140 343.551 140ZM380.684 132.809V110.414H389.926V140H381.285L380.684 132.809ZM381.559 126.793L383.965 126.738C383.965 128.725 383.728 130.566 383.254 132.262C382.78 133.939 382.078 135.397 381.148 136.637C380.237 137.876 379.107 138.842 377.758 139.535C376.427 140.21 374.887 140.547 373.137 140.547C371.678 140.547 370.339 140.346 369.117 139.945C367.914 139.526 366.875 138.879 366 138.004C365.125 137.111 364.441 135.971 363.949 134.586C363.475 133.182 363.238 131.505 363.238 129.555V110.414H372.453V129.609C372.453 130.266 372.535 130.831 372.699 131.305C372.863 131.779 373.1 132.18 373.41 132.508C373.72 132.818 374.103 133.055 374.559 133.219C375.033 133.365 375.57 133.438 376.172 133.438C377.557 133.438 378.642 133.146 379.426 132.562C380.21 131.979 380.757 131.186 381.066 130.184C381.395 129.181 381.559 128.051 381.559 126.793ZM404.746 110.414V140H395.504V110.414H404.746ZM394.957 102.785C394.957 101.473 395.431 100.397 396.379 99.5586C397.327 98.7201 398.557 98.3008 400.07 98.3008C401.583 98.3008 402.814 98.7201 403.762 99.5586C404.71 100.397 405.184 101.473 405.184 102.785C405.184 104.098 404.71 105.173 403.762 106.012C402.814 106.85 401.583 107.27 400.07 107.27C398.557 107.27 397.327 106.85 396.379 106.012C395.431 105.173 394.957 104.098 394.957 102.785ZM420.168 98V140H410.926V98H420.168ZM442.863 133.219V98H452.133V140H443.82L442.863 133.219ZM424.707 125.562V124.988C424.707 122.746 424.953 120.704 425.445 118.863C425.938 117.004 426.667 115.409 427.633 114.078C428.599 112.729 429.802 111.69 431.242 110.961C432.682 110.232 434.341 109.867 436.219 109.867C437.896 109.867 439.363 110.259 440.621 111.043C441.879 111.809 442.954 112.884 443.848 114.27C444.741 115.655 445.47 117.277 446.035 119.137C446.6 120.978 447.029 122.965 447.32 125.098V125.781C447.029 127.786 446.6 129.682 446.035 131.469C445.47 133.237 444.741 134.805 443.848 136.172C442.954 137.539 441.87 138.615 440.594 139.398C439.336 140.164 437.859 140.547 436.164 140.547C434.286 140.547 432.628 140.173 431.188 139.426C429.766 138.678 428.572 137.63 427.605 136.281C426.658 134.932 425.938 133.346 425.445 131.523C424.953 129.701 424.707 127.714 424.707 125.562ZM433.922 124.988V125.562C433.922 126.674 433.995 127.704 434.141 128.652C434.286 129.6 434.533 130.439 434.879 131.168C435.243 131.879 435.717 132.435 436.301 132.836C436.902 133.237 437.641 133.438 438.516 133.438C439.701 133.438 440.676 133.155 441.441 132.59C442.225 132.025 442.799 131.223 443.164 130.184C443.547 129.145 443.711 127.923 443.656 126.52V124.359C443.693 123.156 443.611 122.099 443.41 121.188C443.21 120.258 442.891 119.483 442.453 118.863C442.034 118.243 441.496 117.779 440.84 117.469C440.202 117.141 439.445 116.977 438.57 116.977C437.714 116.977 436.984 117.177 436.383 117.578C435.799 117.979 435.326 118.544 434.961 119.273C434.596 119.984 434.332 120.832 434.168 121.816C434.004 122.783 433.922 123.84 433.922 124.988ZM471.684 140.547C469.277 140.547 467.126 140.173 465.23 139.426C463.335 138.66 461.73 137.612 460.418 136.281C459.124 134.951 458.13 133.419 457.438 131.688C456.763 129.956 456.426 128.124 456.426 126.191V125.152C456.426 122.983 456.727 120.978 457.328 119.137C457.93 117.277 458.823 115.655 460.008 114.27C461.193 112.884 462.678 111.809 464.465 111.043C466.251 110.259 468.329 109.867 470.699 109.867C472.796 109.867 474.673 110.204 476.332 110.879C477.991 111.553 479.395 112.52 480.543 113.777C481.71 115.035 482.594 116.557 483.195 118.344C483.815 120.13 484.125 122.135 484.125 124.359V128.105H459.953V122.336H475.129V121.625C475.147 120.641 474.974 119.802 474.609 119.109C474.263 118.417 473.753 117.888 473.078 117.523C472.404 117.159 471.583 116.977 470.617 116.977C469.615 116.977 468.785 117.195 468.129 117.633C467.491 118.07 466.99 118.672 466.625 119.438C466.279 120.185 466.033 121.051 465.887 122.035C465.741 123.02 465.668 124.059 465.668 125.152V126.191C465.668 127.285 465.814 128.279 466.105 129.172C466.415 130.065 466.853 130.831 467.418 131.469C468.001 132.089 468.694 132.572 469.496 132.918C470.316 133.264 471.246 133.438 472.285 133.438C473.543 133.438 474.783 133.201 476.004 132.727C477.225 132.253 478.273 131.469 479.148 130.375L483.332 135.352C482.73 136.208 481.874 137.038 480.762 137.84C479.668 138.642 478.355 139.298 476.824 139.809C475.293 140.301 473.579 140.547 471.684 140.547ZM497.168 117.742V140H487.953V110.414H496.566L497.168 117.742ZM505.918 110.195L505.754 118.754C505.389 118.717 504.897 118.672 504.277 118.617C503.658 118.562 503.138 118.535 502.719 118.535C501.643 118.535 500.714 118.663 499.93 118.918C499.164 119.155 498.526 119.52 498.016 120.012C497.523 120.486 497.159 121.087 496.922 121.816C496.703 122.546 496.603 123.393 496.621 124.359L494.953 123.266C494.953 121.279 495.145 119.474 495.527 117.852C495.928 116.211 496.493 114.798 497.223 113.613C497.952 112.41 498.836 111.49 499.875 110.852C500.914 110.195 502.081 109.867 503.375 109.867C503.831 109.867 504.277 109.895 504.715 109.949C505.171 110.004 505.572 110.086 505.918 110.195Z" fill="black"/>
<rect x="93" y="178" width="917" height="77" rx="10" fill="#D3D3D3"/>
<rect x="111" y="196" width="104" height="41" rx="3" fill="#424242"/>
<rect x="111" y="196" width="104" height="41" rx="3" stroke="#424242" stroke-width="4"/>
<path d="M145.009 210.203V223H141.933L137.406 215.037V223H134.321V210.203H137.406L141.933 218.166V210.203H145.009ZM151.425 223.176C150.651 223.176 149.96 223.056 149.351 222.815C148.741 222.569 148.226 222.232 147.804 221.805C147.388 221.377 147.068 220.885 146.846 220.328C146.629 219.771 146.521 219.183 146.521 218.562V218.228C146.521 217.53 146.617 216.886 146.811 216.294C147.004 215.696 147.291 215.175 147.672 214.729C148.053 214.284 148.53 213.938 149.104 213.692C149.679 213.44 150.347 213.314 151.108 213.314C151.782 213.314 152.386 213.423 152.919 213.64C153.452 213.856 153.903 214.167 154.272 214.571C154.647 214.976 154.932 215.465 155.125 216.039C155.324 216.613 155.424 217.258 155.424 217.973V219.177H147.654V217.322H152.532V217.094C152.538 216.777 152.482 216.508 152.365 216.285C152.254 216.062 152.09 215.893 151.873 215.775C151.656 215.658 151.393 215.6 151.082 215.6C150.76 215.6 150.493 215.67 150.282 215.811C150.077 215.951 149.916 216.145 149.799 216.391C149.688 216.631 149.608 216.909 149.562 217.226C149.515 217.542 149.491 217.876 149.491 218.228V218.562C149.491 218.913 149.538 219.232 149.632 219.52C149.731 219.807 149.872 220.053 150.054 220.258C150.241 220.457 150.464 220.612 150.722 220.724C150.985 220.835 151.284 220.891 151.618 220.891C152.022 220.891 152.421 220.814 152.813 220.662C153.206 220.51 153.543 220.258 153.824 219.906L155.169 221.506C154.976 221.781 154.7 222.048 154.343 222.306C153.991 222.563 153.569 222.774 153.077 222.938C152.585 223.097 152.034 223.176 151.425 223.176ZM159.142 213.49L160.478 216.109L161.857 213.49H164.934L162.438 218.122L165.065 223H161.963L160.478 220.188L159.001 223H155.898L158.526 218.122L156.039 213.49H159.142ZM170.919 213.49V215.547H165.188V213.49H170.919ZM166.393 211.126H169.354V219.897C169.354 220.149 169.384 220.346 169.442 220.486C169.501 220.621 169.601 220.718 169.741 220.776C169.888 220.829 170.081 220.855 170.321 220.855C170.491 220.855 170.632 220.853 170.743 220.847C170.854 220.835 170.96 220.82 171.06 220.803V222.921C170.808 223.003 170.544 223.064 170.269 223.105C169.993 223.152 169.7 223.176 169.39 223.176C168.757 223.176 168.215 223.076 167.764 222.877C167.318 222.678 166.979 222.364 166.744 221.937C166.51 221.509 166.393 220.952 166.393 220.267V211.126ZM177.326 218.983V210.203H180.402V218.983C180.402 219.839 180.206 220.58 179.813 221.207C179.427 221.834 178.899 222.32 178.231 222.666C177.569 223.006 176.825 223.176 175.999 223.176C175.144 223.176 174.382 223.032 173.714 222.745C173.052 222.458 172.53 222.016 172.149 221.418C171.774 220.82 171.587 220.059 171.587 219.133H174.681C174.681 219.566 174.73 219.906 174.83 220.152C174.93 220.393 175.076 220.562 175.27 220.662C175.469 220.756 175.712 220.803 175.999 220.803C176.28 220.803 176.518 220.732 176.711 220.592C176.91 220.445 177.062 220.237 177.168 219.968C177.273 219.692 177.326 219.364 177.326 218.983ZM188.954 219.599C188.954 219.399 188.925 219.221 188.866 219.062C188.808 218.898 188.699 218.746 188.541 218.605C188.383 218.465 188.154 218.324 187.855 218.184C187.562 218.037 187.176 217.885 186.695 217.727C186.133 217.539 185.591 217.328 185.069 217.094C184.548 216.854 184.082 216.575 183.672 216.259C183.262 215.937 182.937 215.562 182.696 215.134C182.456 214.7 182.336 214.196 182.336 213.622C182.336 213.071 182.459 212.576 182.705 212.137C182.951 211.691 183.294 211.313 183.733 211.003C184.179 210.687 184.7 210.446 185.298 210.282C185.896 210.112 186.549 210.027 187.258 210.027C188.195 210.027 189.021 210.191 189.736 210.52C190.457 210.842 191.02 211.302 191.424 211.899C191.834 212.491 192.039 213.191 192.039 214H188.972C188.972 213.678 188.904 213.394 188.77 213.147C188.641 212.901 188.444 212.708 188.181 212.567C187.917 212.427 187.586 212.356 187.188 212.356C186.801 212.356 186.476 212.415 186.212 212.532C185.948 212.649 185.749 212.808 185.614 213.007C185.479 213.2 185.412 213.414 185.412 213.648C185.412 213.842 185.465 214.018 185.57 214.176C185.682 214.328 185.837 214.472 186.036 214.606C186.241 214.741 186.487 214.87 186.774 214.993C187.067 215.116 187.396 215.236 187.759 215.354C188.438 215.57 189.042 215.813 189.569 216.083C190.103 216.347 190.551 216.648 190.914 216.988C191.283 217.322 191.562 217.703 191.749 218.131C191.942 218.559 192.039 219.042 192.039 219.581C192.039 220.155 191.928 220.665 191.705 221.11C191.482 221.556 191.163 221.934 190.747 222.244C190.331 222.549 189.833 222.78 189.253 222.938C188.673 223.097 188.025 223.176 187.311 223.176C186.654 223.176 186.007 223.094 185.368 222.93C184.735 222.76 184.161 222.502 183.646 222.156C183.13 221.805 182.717 221.356 182.406 220.812C182.102 220.261 181.949 219.607 181.949 218.852H185.043C185.043 219.227 185.093 219.543 185.192 219.801C185.292 220.059 185.438 220.267 185.632 220.425C185.825 220.577 186.062 220.688 186.344 220.759C186.625 220.823 186.947 220.855 187.311 220.855C187.703 220.855 188.02 220.8 188.26 220.688C188.5 220.571 188.676 220.419 188.787 220.231C188.898 220.038 188.954 219.827 188.954 219.599Z" fill="white"/>
<rect x="235" y="196" width="104" height="41" rx="3" fill="#424242"/>
<rect x="235" y="196" width="104" height="41" rx="3" stroke="#424242" stroke-width="4"/>
<path d="M269.035 210.203V223H265.959L261.433 215.037V223H258.348V210.203H261.433L265.959 218.166V210.203H269.035ZM275.451 223.176C274.678 223.176 273.986 223.056 273.377 222.815C272.768 222.569 272.252 222.232 271.83 221.805C271.414 221.377 271.095 220.885 270.872 220.328C270.655 219.771 270.547 219.183 270.547 218.562V218.228C270.547 217.53 270.644 216.886 270.837 216.294C271.03 215.696 271.317 215.175 271.698 214.729C272.079 214.284 272.557 213.938 273.131 213.692C273.705 213.44 274.373 213.314 275.135 213.314C275.809 213.314 276.412 213.423 276.945 213.64C277.479 213.856 277.93 214.167 278.299 214.571C278.674 214.976 278.958 215.465 279.151 216.039C279.351 216.613 279.45 217.258 279.45 217.973V219.177H271.681V217.322H276.559V217.094C276.564 216.777 276.509 216.508 276.392 216.285C276.28 216.062 276.116 215.893 275.899 215.775C275.683 215.658 275.419 215.6 275.108 215.6C274.786 215.6 274.52 215.67 274.309 215.811C274.104 215.951 273.942 216.145 273.825 216.391C273.714 216.631 273.635 216.909 273.588 217.226C273.541 217.542 273.518 217.876 273.518 218.228V218.562C273.518 218.913 273.564 219.232 273.658 219.52C273.758 219.807 273.898 220.053 274.08 220.258C274.268 220.457 274.49 220.612 274.748 220.724C275.012 220.835 275.311 220.891 275.645 220.891C276.049 220.891 276.447 220.814 276.84 220.662C277.232 220.51 277.569 220.258 277.851 219.906L279.195 221.506C279.002 221.781 278.727 222.048 278.369 222.306C278.018 222.563 277.596 222.774 277.104 222.938C276.611 223.097 276.061 223.176 275.451 223.176ZM285.638 220.328C285.638 220.164 285.582 220.023 285.471 219.906C285.365 219.783 285.178 219.672 284.908 219.572C284.639 219.467 284.261 219.361 283.774 219.256C283.312 219.156 282.875 219.024 282.465 218.86C282.061 218.696 281.706 218.497 281.401 218.263C281.097 218.028 280.856 217.75 280.681 217.428C280.511 217.105 280.426 216.736 280.426 216.32C280.426 215.916 280.511 215.535 280.681 215.178C280.856 214.814 281.111 214.495 281.445 214.22C281.785 213.938 282.198 213.719 282.685 213.561C283.171 213.396 283.725 213.314 284.346 213.314C285.201 213.314 285.939 213.446 286.561 213.71C287.182 213.968 287.659 214.331 287.993 214.8C288.333 215.263 288.503 215.799 288.503 216.408H285.541C285.541 216.168 285.5 215.963 285.418 215.793C285.342 215.623 285.216 215.494 285.04 215.406C284.864 215.312 284.63 215.266 284.337 215.266C284.132 215.266 283.944 215.304 283.774 215.38C283.61 215.456 283.479 215.562 283.379 215.696C283.279 215.831 283.229 215.989 283.229 216.171C283.229 216.3 283.259 216.417 283.317 216.522C283.382 216.622 283.479 216.716 283.607 216.804C283.736 216.886 283.9 216.962 284.1 217.032C284.299 217.097 284.539 217.155 284.82 217.208C285.459 217.325 286.057 217.492 286.613 217.709C287.17 217.926 287.621 218.233 287.967 218.632C288.318 219.03 288.494 219.566 288.494 220.24C288.494 220.662 288.397 221.052 288.204 221.409C288.011 221.761 287.732 222.071 287.369 222.341C287.006 222.604 286.569 222.81 286.06 222.956C285.55 223.103 284.976 223.176 284.337 223.176C283.429 223.176 282.661 223.015 282.034 222.692C281.407 222.364 280.933 221.954 280.61 221.462C280.294 220.964 280.136 220.46 280.136 219.95H282.896C282.907 220.243 282.978 220.483 283.106 220.671C283.241 220.858 283.42 220.996 283.643 221.084C283.865 221.172 284.123 221.216 284.416 221.216C284.686 221.216 284.908 221.178 285.084 221.102C285.266 221.025 285.403 220.923 285.497 220.794C285.591 220.659 285.638 220.504 285.638 220.328ZM294.893 213.49V215.547H289.162V213.49H294.893ZM290.366 211.126H293.328V219.897C293.328 220.149 293.357 220.346 293.416 220.486C293.475 220.621 293.574 220.718 293.715 220.776C293.861 220.829 294.055 220.855 294.295 220.855C294.465 220.855 294.605 220.853 294.717 220.847C294.828 220.835 294.934 220.82 295.033 220.803V222.921C294.781 223.003 294.518 223.064 294.242 223.105C293.967 223.152 293.674 223.176 293.363 223.176C292.73 223.176 292.188 223.076 291.737 222.877C291.292 222.678 290.952 222.364 290.718 221.937C290.483 221.509 290.366 220.952 290.366 220.267V211.126ZM301.3 218.983V210.203H304.376V218.983C304.376 219.839 304.18 220.58 303.787 221.207C303.4 221.834 302.873 222.32 302.205 222.666C301.543 223.006 300.799 223.176 299.973 223.176C299.117 223.176 298.355 223.032 297.688 222.745C297.025 222.458 296.504 222.016 296.123 221.418C295.748 220.82 295.561 220.059 295.561 219.133H298.654C298.654 219.566 298.704 219.906 298.804 220.152C298.903 220.393 299.05 220.562 299.243 220.662C299.442 220.756 299.686 220.803 299.973 220.803C300.254 220.803 300.491 220.732 300.685 220.592C300.884 220.445 301.036 220.237 301.142 219.968C301.247 219.692 301.3 219.364 301.3 218.983ZM312.928 219.599C312.928 219.399 312.898 219.221 312.84 219.062C312.781 218.898 312.673 218.746 312.515 218.605C312.356 218.465 312.128 218.324 311.829 218.184C311.536 218.037 311.149 217.885 310.669 217.727C310.106 217.539 309.564 217.328 309.043 217.094C308.521 216.854 308.056 216.575 307.646 216.259C307.235 215.937 306.91 215.562 306.67 215.134C306.43 214.7 306.31 214.196 306.31 213.622C306.31 213.071 306.433 212.576 306.679 212.137C306.925 211.691 307.268 211.313 307.707 211.003C308.152 210.687 308.674 210.446 309.271 210.282C309.869 210.112 310.522 210.027 311.231 210.027C312.169 210.027 312.995 210.191 313.71 210.52C314.431 210.842 314.993 211.302 315.397 211.899C315.808 212.491 316.013 213.191 316.013 214H312.945C312.945 213.678 312.878 213.394 312.743 213.147C312.614 212.901 312.418 212.708 312.154 212.567C311.891 212.427 311.56 212.356 311.161 212.356C310.774 212.356 310.449 212.415 310.186 212.532C309.922 212.649 309.723 212.808 309.588 213.007C309.453 213.2 309.386 213.414 309.386 213.648C309.386 213.842 309.438 214.018 309.544 214.176C309.655 214.328 309.811 214.472 310.01 214.606C310.215 214.741 310.461 214.87 310.748 214.993C311.041 215.116 311.369 215.236 311.732 215.354C312.412 215.57 313.016 215.813 313.543 216.083C314.076 216.347 314.524 216.648 314.888 216.988C315.257 217.322 315.535 217.703 315.723 218.131C315.916 218.559 316.013 219.042 316.013 219.581C316.013 220.155 315.901 220.665 315.679 221.11C315.456 221.556 315.137 221.934 314.721 222.244C314.305 222.549 313.807 222.78 313.227 222.938C312.646 223.097 311.999 223.176 311.284 223.176C310.628 223.176 309.98 223.094 309.342 222.93C308.709 222.76 308.135 222.502 307.619 222.156C307.104 221.805 306.69 221.356 306.38 220.812C306.075 220.261 305.923 219.607 305.923 218.852H309.017C309.017 219.227 309.066 219.543 309.166 219.801C309.266 220.059 309.412 220.267 309.605 220.425C309.799 220.577 310.036 220.688 310.317 220.759C310.599 220.823 310.921 220.855 311.284 220.855C311.677 220.855 311.993 220.8 312.233 220.688C312.474 220.571 312.649 220.419 312.761 220.231C312.872 220.038 312.928 219.827 312.928 219.599Z" fill="white"/>
<rect x="359" y="196" width="109" height="41" rx="3" fill="#424242"/>
<rect x="359" y="196" width="109" height="41" rx="3" stroke="#424242" stroke-width="4"/>
<path d="M393.118 210.203V223H390.042L385.516 215.037V223H382.431V210.203H385.516L390.042 218.166V210.203H393.118ZM394.56 218.342V218.157C394.56 217.46 394.659 216.818 394.858 216.232C395.058 215.641 395.351 215.128 395.737 214.694C396.124 214.261 396.602 213.924 397.17 213.684C397.738 213.438 398.395 213.314 399.139 213.314C399.889 213.314 400.548 213.438 401.116 213.684C401.69 213.924 402.171 214.261 402.558 214.694C402.944 215.128 403.237 215.641 403.437 216.232C403.636 216.818 403.735 217.46 403.735 218.157V218.342C403.735 219.033 403.636 219.675 403.437 220.267C403.237 220.853 402.944 221.365 402.558 221.805C402.171 222.238 401.693 222.575 401.125 222.815C400.557 223.056 399.9 223.176 399.156 223.176C398.412 223.176 397.753 223.056 397.179 222.815C396.604 222.575 396.124 222.238 395.737 221.805C395.351 221.365 395.058 220.853 394.858 220.267C394.659 219.675 394.56 219.033 394.56 218.342ZM397.521 218.157V218.342C397.521 218.699 397.548 219.033 397.601 219.344C397.653 219.654 397.741 219.927 397.864 220.161C397.987 220.39 398.154 220.568 398.365 220.697C398.576 220.826 398.84 220.891 399.156 220.891C399.467 220.891 399.725 220.826 399.93 220.697C400.141 220.568 400.308 220.39 400.431 220.161C400.554 219.927 400.642 219.654 400.694 219.344C400.747 219.033 400.773 218.699 400.773 218.342V218.157C400.773 217.812 400.747 217.486 400.694 217.182C400.642 216.871 400.554 216.599 400.431 216.364C400.308 216.124 400.141 215.937 399.93 215.802C399.719 215.667 399.455 215.6 399.139 215.6C398.828 215.6 398.567 215.667 398.356 215.802C398.151 215.937 397.987 216.124 397.864 216.364C397.741 216.599 397.653 216.871 397.601 217.182C397.548 217.486 397.521 217.812 397.521 218.157ZM410.521 220.82V209.5H413.5V223H410.828L410.521 220.82ZM404.685 218.359V218.175C404.685 217.454 404.764 216.798 404.922 216.206C405.08 215.608 405.314 215.096 405.625 214.668C405.936 214.234 406.322 213.9 406.785 213.666C407.248 213.432 407.781 213.314 408.385 213.314C408.924 213.314 409.396 213.44 409.8 213.692C410.204 213.938 410.55 214.284 410.837 214.729C411.124 215.175 411.358 215.696 411.54 216.294C411.722 216.886 411.859 217.524 411.953 218.21V218.43C411.859 219.074 411.722 219.684 411.54 220.258C411.358 220.826 411.124 221.33 410.837 221.77C410.55 222.209 410.201 222.555 409.791 222.807C409.387 223.053 408.912 223.176 408.367 223.176C407.764 223.176 407.23 223.056 406.768 222.815C406.311 222.575 405.927 222.238 405.616 221.805C405.312 221.371 405.08 220.861 404.922 220.275C404.764 219.689 404.685 219.051 404.685 218.359ZM407.646 218.175V218.359C407.646 218.717 407.67 219.048 407.717 219.353C407.764 219.657 407.843 219.927 407.954 220.161C408.071 220.39 408.224 220.568 408.411 220.697C408.604 220.826 408.842 220.891 409.123 220.891C409.504 220.891 409.817 220.8 410.063 220.618C410.315 220.437 410.5 220.179 410.617 219.845C410.74 219.511 410.793 219.118 410.775 218.667V217.973C410.787 217.586 410.761 217.246 410.696 216.953C410.632 216.654 410.529 216.405 410.389 216.206C410.254 216.007 410.081 215.857 409.87 215.758C409.665 215.652 409.422 215.6 409.141 215.6C408.865 215.6 408.631 215.664 408.438 215.793C408.25 215.922 408.098 216.104 407.98 216.338C407.863 216.566 407.778 216.839 407.726 217.155C407.673 217.466 407.646 217.806 407.646 218.175ZM419.784 223.176C419.011 223.176 418.319 223.056 417.71 222.815C417.101 222.569 416.585 222.232 416.163 221.805C415.747 221.377 415.428 220.885 415.205 220.328C414.988 219.771 414.88 219.183 414.88 218.562V218.228C414.88 217.53 414.977 216.886 415.17 216.294C415.363 215.696 415.65 215.175 416.031 214.729C416.412 214.284 416.89 213.938 417.464 213.692C418.038 213.44 418.706 213.314 419.468 213.314C420.142 213.314 420.745 213.423 421.278 213.64C421.812 213.856 422.263 214.167 422.632 214.571C423.007 214.976 423.291 215.465 423.484 216.039C423.684 216.613 423.783 217.258 423.783 217.973V219.177H416.014V217.322H420.892V217.094C420.897 216.777 420.842 216.508 420.725 216.285C420.613 216.062 420.449 215.893 420.232 215.775C420.016 215.658 419.752 215.6 419.441 215.6C419.119 215.6 418.853 215.67 418.642 215.811C418.437 215.951 418.275 216.145 418.158 216.391C418.047 216.631 417.968 216.909 417.921 217.226C417.874 217.542 417.851 217.876 417.851 218.228V218.562C417.851 218.913 417.897 219.232 417.991 219.52C418.091 219.807 418.231 220.053 418.413 220.258C418.601 220.457 418.823 220.612 419.081 220.724C419.345 220.835 419.644 220.891 419.978 220.891C420.382 220.891 420.78 220.814 421.173 220.662C421.565 220.51 421.902 220.258 422.184 219.906L423.528 221.506C423.335 221.781 423.06 222.048 422.702 222.306C422.351 222.563 421.929 222.774 421.437 222.938C420.944 223.097 420.394 223.176 419.784 223.176ZM430.217 218.983V210.203H433.293V218.983C433.293 219.839 433.097 220.58 432.704 221.207C432.317 221.834 431.79 222.32 431.122 222.666C430.46 223.006 429.716 223.176 428.89 223.176C428.034 223.176 427.272 223.032 426.604 222.745C425.942 222.458 425.421 222.016 425.04 221.418C424.665 220.82 424.478 220.059 424.478 219.133H427.571C427.571 219.566 427.621 219.906 427.721 220.152C427.82 220.393 427.967 220.562 428.16 220.662C428.359 220.756 428.603 220.803 428.89 220.803C429.171 220.803 429.408 220.732 429.602 220.592C429.801 220.445 429.953 220.237 430.059 219.968C430.164 219.692 430.217 219.364 430.217 218.983ZM441.845 219.599C441.845 219.399 441.815 219.221 441.757 219.062C441.698 218.898 441.59 218.746 441.432 218.605C441.273 218.465 441.045 218.324 440.746 218.184C440.453 218.037 440.066 217.885 439.586 217.727C439.023 217.539 438.481 217.328 437.96 217.094C437.438 216.854 436.973 216.575 436.562 216.259C436.152 215.937 435.827 215.562 435.587 215.134C435.347 214.7 435.227 214.196 435.227 213.622C435.227 213.071 435.35 212.576 435.596 212.137C435.842 211.691 436.185 211.313 436.624 211.003C437.069 210.687 437.591 210.446 438.188 210.282C438.786 210.112 439.439 210.027 440.148 210.027C441.086 210.027 441.912 210.191 442.627 210.52C443.348 210.842 443.91 211.302 444.314 211.899C444.725 212.491 444.93 213.191 444.93 214H441.862C441.862 213.678 441.795 213.394 441.66 213.147C441.531 212.901 441.335 212.708 441.071 212.567C440.808 212.427 440.477 212.356 440.078 212.356C439.691 212.356 439.366 212.415 439.103 212.532C438.839 212.649 438.64 212.808 438.505 213.007C438.37 213.2 438.303 213.414 438.303 213.648C438.303 213.842 438.355 214.018 438.461 214.176C438.572 214.328 438.728 214.472 438.927 214.606C439.132 214.741 439.378 214.87 439.665 214.993C439.958 215.116 440.286 215.236 440.649 215.354C441.329 215.57 441.933 215.813 442.46 216.083C442.993 216.347 443.441 216.648 443.805 216.988C444.174 217.322 444.452 217.703 444.64 218.131C444.833 218.559 444.93 219.042 444.93 219.581C444.93 220.155 444.818 220.665 444.596 221.11C444.373 221.556 444.054 221.934 443.638 222.244C443.222 222.549 442.724 222.78 442.144 222.938C441.563 223.097 440.916 223.176 440.201 223.176C439.545 223.176 438.897 223.094 438.259 222.93C437.626 222.76 437.052 222.502 436.536 222.156C436.021 221.805 435.607 221.356 435.297 220.812C434.992 220.261 434.84 219.607 434.84 218.852H437.934C437.934 219.227 437.983 219.543 438.083 219.801C438.183 220.059 438.329 220.267 438.522 220.425C438.716 220.577 438.953 220.688 439.234 220.759C439.516 220.823 439.838 220.855 440.201 220.855C440.594 220.855 440.91 220.8 441.15 220.688C441.391 220.571 441.566 220.419 441.678 220.231C441.789 220.038 441.845 219.827 441.845 219.599Z" fill="white"/>
<rect x="488" y="196" width="131" height="41" rx="3" fill="#424242"/>
<rect x="488" y="196" width="131" height="41" rx="3" stroke="#424242" stroke-width="4"/>
<path d="M517.359 210.203V223H514.274V210.203H517.359ZM521.209 210.203V212.585H510.513V210.203H521.209ZM524.575 221.884L527.036 213.49H530.218L526.395 224.415C526.312 224.655 526.204 224.913 526.069 225.188C525.935 225.47 525.75 225.736 525.516 225.988C525.281 226.24 524.979 226.445 524.61 226.604C524.247 226.762 523.796 226.841 523.257 226.841C522.97 226.841 522.759 226.826 522.624 226.797C522.495 226.773 522.296 226.729 522.026 226.665V224.547C522.103 224.547 522.167 224.547 522.22 224.547C522.278 224.547 522.343 224.547 522.413 224.547C522.729 224.547 522.981 224.515 523.169 224.45C523.362 224.386 523.509 224.292 523.608 224.169C523.714 224.046 523.796 223.896 523.854 223.721L524.575 221.884ZM523.951 213.49L525.823 220.144L526.148 223.281H524.162L520.778 213.49H523.951ZM533.979 215.318V226.656H531.018V213.49H533.777L533.979 215.318ZM539.815 218.131V218.315C539.815 219.007 539.736 219.648 539.578 220.24C539.42 220.832 539.186 221.348 538.875 221.787C538.564 222.227 538.178 222.569 537.715 222.815C537.258 223.056 536.728 223.176 536.124 223.176C535.556 223.176 535.066 223.05 534.656 222.798C534.246 222.546 533.903 222.197 533.628 221.752C533.353 221.307 533.13 220.797 532.96 220.223C532.79 219.648 532.655 219.042 532.556 218.403V218.166C532.655 217.48 532.79 216.845 532.96 216.259C533.13 215.667 533.353 215.151 533.628 214.712C533.903 214.272 534.243 213.93 534.647 213.684C535.058 213.438 535.547 213.314 536.115 213.314C536.719 213.314 537.249 213.429 537.706 213.657C538.169 213.886 538.556 214.214 538.866 214.642C539.183 215.063 539.42 215.57 539.578 216.162C539.736 216.754 539.815 217.41 539.815 218.131ZM536.854 218.315V218.131C536.854 217.762 536.827 217.425 536.774 217.12C536.722 216.81 536.637 216.54 536.52 216.312C536.408 216.083 536.259 215.907 536.071 215.784C535.884 215.661 535.652 215.6 535.377 215.6C535.061 215.6 534.794 215.649 534.577 215.749C534.366 215.843 534.196 215.989 534.067 216.188C533.944 216.382 533.856 216.625 533.804 216.918C533.757 217.205 533.736 217.542 533.742 217.929V218.649C533.73 219.095 533.774 219.487 533.874 219.827C533.974 220.161 534.146 220.422 534.393 220.609C534.639 220.797 534.973 220.891 535.395 220.891C535.676 220.891 535.91 220.826 536.098 220.697C536.285 220.562 536.435 220.378 536.546 220.144C536.657 219.903 536.736 219.628 536.783 219.317C536.83 219.007 536.854 218.673 536.854 218.315ZM545.739 223.176C544.966 223.176 544.274 223.056 543.665 222.815C543.056 222.569 542.54 222.232 542.118 221.805C541.702 221.377 541.383 220.885 541.16 220.328C540.943 219.771 540.835 219.183 540.835 218.562V218.228C540.835 217.53 540.932 216.886 541.125 216.294C541.318 215.696 541.605 215.175 541.986 214.729C542.367 214.284 542.845 213.938 543.419 213.692C543.993 213.44 544.661 213.314 545.423 213.314C546.097 213.314 546.7 213.423 547.233 213.64C547.767 213.856 548.218 214.167 548.587 214.571C548.962 214.976 549.246 215.465 549.439 216.039C549.639 216.613 549.738 217.258 549.738 217.973V219.177H541.969V217.322H546.847V217.094C546.853 216.777 546.797 216.508 546.68 216.285C546.568 216.062 546.404 215.893 546.188 215.775C545.971 215.658 545.707 215.6 545.396 215.6C545.074 215.6 544.808 215.67 544.597 215.811C544.392 215.951 544.23 216.145 544.113 216.391C544.002 216.631 543.923 216.909 543.876 217.226C543.829 217.542 543.806 217.876 543.806 218.228V218.562C543.806 218.913 543.853 219.232 543.946 219.52C544.046 219.807 544.187 220.053 544.368 220.258C544.556 220.457 544.778 220.612 545.036 220.724C545.3 220.835 545.599 220.891 545.933 220.891C546.337 220.891 546.735 220.814 547.128 220.662C547.521 220.51 547.857 220.258 548.139 219.906L549.483 221.506C549.29 221.781 549.015 222.048 548.657 222.306C548.306 222.563 547.884 222.774 547.392 222.938C546.899 223.097 546.349 223.176 545.739 223.176ZM555.926 220.328C555.926 220.164 555.87 220.023 555.759 219.906C555.653 219.783 555.466 219.672 555.196 219.572C554.927 219.467 554.549 219.361 554.062 219.256C553.6 219.156 553.163 219.024 552.753 218.86C552.349 218.696 551.994 218.497 551.689 218.263C551.385 218.028 551.145 217.75 550.969 217.428C550.799 217.105 550.714 216.736 550.714 216.32C550.714 215.916 550.799 215.535 550.969 215.178C551.145 214.814 551.399 214.495 551.733 214.22C552.073 213.938 552.486 213.719 552.973 213.561C553.459 213.396 554.013 213.314 554.634 213.314C555.489 213.314 556.228 213.446 556.849 213.71C557.47 213.968 557.947 214.331 558.281 214.8C558.621 215.263 558.791 215.799 558.791 216.408H555.829C555.829 216.168 555.788 215.963 555.706 215.793C555.63 215.623 555.504 215.494 555.328 215.406C555.152 215.312 554.918 215.266 554.625 215.266C554.42 215.266 554.232 215.304 554.062 215.38C553.898 215.456 553.767 215.562 553.667 215.696C553.567 215.831 553.518 215.989 553.518 216.171C553.518 216.3 553.547 216.417 553.605 216.522C553.67 216.622 553.767 216.716 553.896 216.804C554.024 216.886 554.188 216.962 554.388 217.032C554.587 217.097 554.827 217.155 555.108 217.208C555.747 217.325 556.345 217.492 556.901 217.709C557.458 217.926 557.909 218.233 558.255 218.632C558.606 219.03 558.782 219.566 558.782 220.24C558.782 220.662 558.686 221.052 558.492 221.409C558.299 221.761 558.021 222.071 557.657 222.341C557.294 222.604 556.857 222.81 556.348 222.956C555.838 223.103 555.264 223.176 554.625 223.176C553.717 223.176 552.949 223.015 552.322 222.692C551.695 222.364 551.221 221.954 550.898 221.462C550.582 220.964 550.424 220.46 550.424 219.95H553.184C553.195 220.243 553.266 220.483 553.395 220.671C553.529 220.858 553.708 220.996 553.931 221.084C554.153 221.172 554.411 221.216 554.704 221.216C554.974 221.216 555.196 221.178 555.372 221.102C555.554 221.025 555.691 220.923 555.785 220.794C555.879 220.659 555.926 220.504 555.926 220.328ZM564.188 220.891C564.463 220.891 564.697 220.841 564.891 220.741C565.09 220.636 565.239 220.489 565.339 220.302C565.444 220.108 565.494 219.877 565.488 219.607H568.274C568.28 220.322 568.104 220.949 567.747 221.488C567.396 222.021 566.915 222.438 566.306 222.736C565.702 223.029 565.02 223.176 564.258 223.176C563.514 223.176 562.863 223.056 562.307 222.815C561.75 222.569 561.284 222.229 560.909 221.796C560.54 221.356 560.262 220.844 560.074 220.258C559.893 219.672 559.802 219.036 559.802 218.351V218.148C559.802 217.463 559.893 216.827 560.074 216.241C560.262 215.649 560.54 215.137 560.909 214.703C561.284 214.264 561.747 213.924 562.298 213.684C562.854 213.438 563.502 213.314 564.24 213.314C565.031 213.314 565.729 213.464 566.332 213.763C566.941 214.062 567.419 214.495 567.765 215.063C568.11 215.632 568.28 216.32 568.274 217.129H565.488C565.494 216.842 565.45 216.584 565.356 216.355C565.263 216.127 565.116 215.945 564.917 215.811C564.724 215.67 564.475 215.6 564.17 215.6C563.865 215.6 563.619 215.667 563.432 215.802C563.244 215.937 563.101 216.124 563.001 216.364C562.907 216.599 562.843 216.868 562.808 217.173C562.778 217.478 562.764 217.803 562.764 218.148V218.351C562.764 218.702 562.778 219.033 562.808 219.344C562.843 219.648 562.91 219.918 563.01 220.152C563.109 220.381 563.253 220.562 563.44 220.697C563.628 220.826 563.877 220.891 564.188 220.891ZM572.528 215.846V223H569.566V213.49H572.335L572.528 215.846ZM575.341 213.42L575.288 216.171C575.171 216.159 575.013 216.145 574.813 216.127C574.614 216.109 574.447 216.101 574.312 216.101C573.967 216.101 573.668 216.142 573.416 216.224C573.17 216.3 572.965 216.417 572.801 216.575C572.643 216.728 572.525 216.921 572.449 217.155C572.379 217.39 572.347 217.662 572.353 217.973L571.816 217.621C571.816 216.982 571.878 216.402 572.001 215.881C572.13 215.354 572.312 214.899 572.546 214.519C572.78 214.132 573.064 213.836 573.398 213.631C573.732 213.42 574.107 213.314 574.523 213.314C574.67 213.314 574.813 213.323 574.954 213.341C575.101 213.358 575.229 213.385 575.341 213.42ZM579.489 213.49V223H576.519V213.49H579.489ZM576.343 211.038C576.343 210.616 576.495 210.271 576.8 210.001C577.104 209.731 577.5 209.597 577.986 209.597C578.473 209.597 578.868 209.731 579.173 210.001C579.478 210.271 579.63 210.616 579.63 211.038C579.63 211.46 579.478 211.806 579.173 212.075C578.868 212.345 578.473 212.479 577.986 212.479C577.5 212.479 577.104 212.345 576.8 212.075C576.495 211.806 576.343 211.46 576.343 211.038ZM584.306 215.318V226.656H581.344V213.49H584.104L584.306 215.318ZM590.142 218.131V218.315C590.142 219.007 590.062 219.648 589.904 220.24C589.746 220.832 589.512 221.348 589.201 221.787C588.891 222.227 588.504 222.569 588.041 222.815C587.584 223.056 587.054 223.176 586.45 223.176C585.882 223.176 585.393 223.05 584.982 222.798C584.572 222.546 584.229 222.197 583.954 221.752C583.679 221.307 583.456 220.797 583.286 220.223C583.116 219.648 582.981 219.042 582.882 218.403V218.166C582.981 217.48 583.116 216.845 583.286 216.259C583.456 215.667 583.679 215.151 583.954 214.712C584.229 214.272 584.569 213.93 584.974 213.684C585.384 213.438 585.873 213.314 586.441 213.314C587.045 213.314 587.575 213.429 588.032 213.657C588.495 213.886 588.882 214.214 589.192 214.642C589.509 215.063 589.746 215.57 589.904 216.162C590.062 216.754 590.142 217.41 590.142 218.131ZM587.18 218.315V218.131C587.18 217.762 587.153 217.425 587.101 217.12C587.048 216.81 586.963 216.54 586.846 216.312C586.734 216.083 586.585 215.907 586.397 215.784C586.21 215.661 585.979 215.6 585.703 215.6C585.387 215.6 585.12 215.649 584.903 215.749C584.692 215.843 584.522 215.989 584.394 216.188C584.271 216.382 584.183 216.625 584.13 216.918C584.083 217.205 584.062 217.542 584.068 217.929V218.649C584.057 219.095 584.101 219.487 584.2 219.827C584.3 220.161 584.473 220.422 584.719 220.609C584.965 220.797 585.299 220.891 585.721 220.891C586.002 220.891 586.236 220.826 586.424 220.697C586.611 220.562 586.761 220.378 586.872 220.144C586.983 219.903 587.062 219.628 587.109 219.317C587.156 219.007 587.18 218.673 587.18 218.315ZM596.47 213.49V215.547H590.739V213.49H596.47ZM591.943 211.126H594.905V219.897C594.905 220.149 594.935 220.346 594.993 220.486C595.052 220.621 595.151 220.718 595.292 220.776C595.438 220.829 595.632 220.855 595.872 220.855C596.042 220.855 596.183 220.853 596.294 220.847C596.405 220.835 596.511 220.82 596.61 220.803V222.921C596.358 223.003 596.095 223.064 595.819 223.105C595.544 223.152 595.251 223.176 594.94 223.176C594.308 223.176 593.766 223.076 593.314 222.877C592.869 222.678 592.529 222.364 592.295 221.937C592.061 221.509 591.943 220.952 591.943 220.267V211.126Z" fill="white"/>
<path d="M1066 0H1348C1356.28 0 1363 6.71573 1363 15V282C1363 290.284 1356.28 297 1348 297H1066V0Z" fill="white"/>
</svg>
